M48
; DRILL file {KiCad (5.1.10)-1} date 03/18/22 20:48:03
; FORMAT={-:-/ absolute / inch / decimal}
; #@! TF.CreationDate,2022-03-18T20:48:03-05:00
; #@! TF.GenerationSoftware,Kicad,Pcbnew,(5.1.10)-1
; #@! TF.FileFunction,Plated,1,2,PTH
FMAT,2
INCH
T1C0.0157
T2C0.0276
T3C0.0295
T4C0.0315
T5C0.0350
T6C0.0354
T7C0.0394
T8C0.0400
T9C0.0402
T10C0.0500
T11C0.0630
T12C0.1210
T13C0.1280
T14C0.1598
%
G90
G05
T1
X2.6Y-3.3
X2.6Y-3.71
X3.15Y-3.43
X3.19Y-3.99
X3.5Y-3.09
X4.03Y-3.59
X4.07Y-2.93
X4.1Y-3.2
X4.11Y-2.87
X4.14Y-3.06
X4.16Y-3.37
X4.3Y-3.17
X4.31Y-3.965
X4.32Y-3.55
X4.36Y-3.09
X4.39Y-3.58
X4.48Y-3.09
X4.96Y-2.96
X4.96Y-3.12
X4.9886Y-2.8836
X5.11Y-3.17
X5.33Y-3.09
X5.53Y-2.42
X5.53Y-2.48
X5.63Y-2.88
X5.675Y-2.5
X5.725Y-2.45
X5.825Y-2.935
X5.825Y-3.13
X5.925Y-3.105
X6.03Y-3.65
X6.239Y-2.269
X6.26Y-2.52
X6.55Y-3.94
T2
X4.6606Y-3.3765
X4.6606Y-3.4552
X4.6606Y-3.5339
X4.7394Y-3.3765
X4.7394Y-3.4552
X4.7394Y-3.5339
T3
X4.4Y-3.7599
X4.5Y-3.7599
X4.6Y-3.7599
X4.7Y-3.7599
X4.8Y-3.7599
T4
X4.15Y-3.28
X4.15Y-3.88
X4.25Y-3.28
X4.25Y-3.38
X4.25Y-3.88
X4.35Y-3.28
X4.35Y-3.88
X4.45Y-3.28
X4.45Y-3.88
X4.55Y-3.28
X4.55Y-3.88
X4.65Y-3.28
X4.65Y-3.88
X4.75Y-3.28
X4.75Y-3.88
X4.85Y-3.28
X4.85Y-3.88
X4.95Y-3.28
X4.95Y-3.88
X5.05Y-3.28
X5.05Y-3.88
X5.15Y-3.28
X5.15Y-3.88
X5.25Y-3.28
X5.25Y-3.88
X5.35Y-3.28
X5.35Y-3.88
X5.45Y-3.28
X5.45Y-3.88
X5.55Y-3.28
X5.55Y-3.88
X5.65Y-3.28
X5.65Y-3.88
X5.75Y-3.28
X5.75Y-3.88
X5.85Y-3.28
X5.85Y-3.88
X5.8963Y-2.5175
X5.8963Y-2.5963
X5.8963Y-2.675
X5.95Y-3.28
X5.95Y-3.38
X5.95Y-3.48
X5.95Y-3.58
X5.95Y-3.68
X5.95Y-3.78
X5.95Y-3.88
X5.975Y-2.5175
X5.975Y-2.5963
X5.975Y-2.675
X6.05Y-3.28
X6.05Y-3.88
X6.15Y-3.28
X6.15Y-3.88
X6.25Y-3.28
X6.25Y-3.88
X6.35Y-3.28
X6.35Y-3.88
X6.45Y-3.28
X6.45Y-3.88
T5
X2.27Y-3.55
X2.37Y-3.55
X2.47Y-3.55
T6
X6.0955Y-2.269
X6.0955Y-2.369
X6.0955Y-2.469
X6.0955Y-2.569
X6.1955Y-2.319
X6.1955Y-2.419
X6.1955Y-2.519
X6.1955Y-2.619
T7
X2.75Y-3.55
X2.85Y-3.55
X2.95Y-3.55
T8
X3.28Y-2.04
X3.4Y-2.04
X3.62Y-2.04
X3.74Y-2.04
X3.96Y-2.04
X4.08Y-2.04
X4.3Y-2.04
X4.42Y-2.04
X4.64Y-2.04
X4.76Y-2.04
X4.98Y-2.04
X5.1Y-2.04
X5.41Y-2.04
X5.53Y-2.04
X5.65Y-2.04
X6.63Y-2.97
X6.63Y-3.09
X6.63Y-3.21
X6.63Y-3.53
X6.63Y-3.65
X6.63Y-3.77
T9
X6.575Y-2.195
X6.575Y-2.593
X6.6455Y-2.295
X6.6455Y-2.693
T10
X3.28Y-2.44
X3.435Y-2.92
X3.58Y-2.44
X4.32Y-2.44
X4.4Y-2.915
X5.06Y-2.45
X5.27Y-2.925
T11
X6.3254Y-2.134
X6.3254Y-2.7541
T12
X3.34Y-1.87
X3.68Y-1.87
X4.02Y-1.87
X4.36Y-1.87
X4.7Y-1.87
X5.04Y-1.87
X5.53Y-1.87
X6.8Y-3.09
X6.8Y-3.65
T13
X6.4455Y-2.219
X6.4455Y-2.669
T14
X2.24Y-2.75
X2.55Y-2.75
X2.86Y-2.75
T0
M30
