M48
; DRILL file {KiCad (5.1.10)-1} date 11/16/21 19:54:46
; FORMAT={-:-/ absolute / inch / decimal}
; #@! TF.CreationDate,2021-11-16T19:54:46-06:00
; #@! TF.GenerationSoftware,Kicad,Pcbnew,(5.1.10)-1
; #@! TF.FileFunction,Plated,1,2,PTH
FMAT,2
INCH
T1C0.0157
T2C0.0276
T3C0.0295
T4C0.0315
T5C0.0350
T6C0.0354
T7C0.0394
T8C0.0400
T9C0.0402
T10C0.0500
T11C0.0630
T12C0.1210
T13C0.1280
T14C0.1598
%
G90
G05
T1
X2.52Y-3.3
X2.52Y-3.55
X3.07Y-3.43
X3.11Y-3.99
X4.0Y-3.95
X4.065Y-3.655
X4.25Y-2.85
X4.25Y-3.14
X4.27Y-2.55
X4.2979Y-3.392
X4.31Y-3.655
X4.36Y-3.09
X4.75Y-2.8
X5.07Y-2.5
X5.23Y-2.94
X5.35Y-3.03
X5.6Y-3.06
X5.75Y-3.12
X6.03Y-3.65
X6.239Y-2.269
X6.26Y-2.52
X6.52Y-2.97
X6.55Y-3.94
T2
X4.6606Y-3.3765
X4.6606Y-3.4552
X4.6606Y-3.5339
X4.7394Y-3.3765
X4.7394Y-3.4552
X4.7394Y-3.5339
T3
X4.4Y-3.7599
X4.5Y-3.7599
X4.6Y-3.7599
X4.7Y-3.7599
X4.8Y-3.7599
T4
X4.15Y-3.28
X4.15Y-3.88
X4.25Y-3.28
X4.25Y-3.38
X4.25Y-3.88
X4.35Y-3.28
X4.35Y-3.88
X4.45Y-3.28
X4.45Y-3.88
X4.55Y-3.28
X4.55Y-3.88
X4.65Y-3.28
X4.65Y-3.88
X4.75Y-3.28
X4.75Y-3.88
X4.85Y-3.28
X4.85Y-3.88
X4.95Y-3.28
X4.95Y-3.88
X5.05Y-3.28
X5.05Y-3.88
X5.15Y-3.28
X5.15Y-3.88
X5.25Y-3.28
X5.25Y-3.88
X5.35Y-3.28
X5.35Y-3.88
X5.45Y-3.28
X5.45Y-3.88
X5.55Y-3.28
X5.55Y-3.88
X5.65Y-3.28
X5.65Y-3.88
X5.75Y-3.28
X5.75Y-3.88
X5.85Y-3.28
X5.85Y-3.88
X5.8963Y-2.5175
X5.8963Y-2.5963
X5.8963Y-2.675
X5.95Y-3.28
X5.95Y-3.38
X5.95Y-3.48
X5.95Y-3.58
X5.95Y-3.68
X5.95Y-3.78
X5.95Y-3.88
X5.975Y-2.5175
X5.975Y-2.5963
X5.975Y-2.675
X6.05Y-3.28
X6.05Y-3.88
X6.15Y-3.28
X6.15Y-3.88
X6.25Y-3.28
X6.25Y-3.88
X6.35Y-3.28
X6.35Y-3.88
X6.45Y-3.28
X6.45Y-3.88
T5
X2.19Y-3.39
X2.29Y-3.39
X2.39Y-3.39
T6
X6.0955Y-2.269
X6.0955Y-2.369
X6.0955Y-2.469
X6.0955Y-2.569
X6.1955Y-2.319
X6.1955Y-2.419
X6.1955Y-2.519
X6.1955Y-2.619
T7
X2.67Y-3.39
X2.77Y-3.39
X2.87Y-3.39
T8
X3.37Y-2.35
X3.49Y-2.35
X3.67Y-2.35
X3.79Y-2.35
X3.97Y-2.35
X4.09Y-2.35
X4.27Y-2.35
X4.39Y-2.35
X4.57Y-2.35
X4.69Y-2.35
X4.87Y-2.35
X4.99Y-2.35
X5.23Y-2.35
X5.35Y-2.35
X5.47Y-2.35
X6.63Y-2.97
X6.63Y-3.09
X6.63Y-3.21
X6.63Y-3.53
X6.63Y-3.65
X6.63Y-3.77
T9
X6.575Y-2.195
X6.575Y-2.593
X6.6455Y-2.295
X6.6455Y-2.693
T10
X3.19Y-2.44
X3.47Y-2.855
X3.47Y-3.15
X3.485Y-2.57
X3.76Y-2.435
X4.57Y-2.43
X4.87Y-2.43
T11
X6.3254Y-2.134
X6.3254Y-2.7541
T12
X3.43Y-2.18
X3.73Y-2.18
X4.03Y-2.18
X4.33Y-2.18
X4.63Y-2.18
X4.93Y-2.18
X5.35Y-2.18
X6.8Y-3.09
X6.8Y-3.65
T13
X6.4455Y-2.219
X6.4455Y-2.669
T14
X2.24Y-2.75
X2.55Y-2.75
X2.86Y-2.75
T0
M30
