M48
; DRILL file {KiCad (6.0.10)} date Wed Dec 28 15:45:04 2022
; FORMAT={-:-/ absolute / metric / decimal}
; #@! TF.CreationDate,2022-12-28T15:45:04-06:00
; #@! TF.GenerationSoftware,Kicad,Pcbnew,(6.0.10)
; #@! TF.FileFunction,Plated,1,2,PTH
FMAT,2
METRIC
; #@! TA.AperFunction,Plated,PTH,ViaDrill
T1C0.400
; #@! TA.AperFunction,Plated,PTH,ComponentDrill
T2C0.700
; #@! TA.AperFunction,Plated,PTH,ComponentDrill
T3C0.750
; #@! TA.AperFunction,Plated,PTH,ComponentDrill
T4C0.800
; #@! TA.AperFunction,Plated,PTH,ComponentDrill
T5C0.889
; #@! TA.AperFunction,Plated,PTH,ComponentDrill
T6C0.900
; #@! TA.AperFunction,Plated,PTH,ComponentDrill
T7C1.020
; #@! TA.AperFunction,Plated,PTH,ComponentDrill
T8C1.600
; #@! TA.AperFunction,Plated,PTH,ComponentDrill
T9C2.000
; #@! TA.AperFunction,Plated,PTH,ComponentDrill
T10C3.250
%
G90
G05
T1
X54.61Y-78.105
X58.928Y-129.794
X59.055Y-79.375
X59.118Y-87.947
X65.024Y-77.978
X65.024Y-79.756
X67.945Y-100.711
X69.469Y-79.375
X69.469Y-87.884
X69.596Y-129.794
X75.311Y-77.851
X75.311Y-79.629
X78.482Y-100.711
X79.248Y-119.507
X79.855Y-79.248
X79.855Y-87.856
X80.391Y-129.794
X85.725Y-77.851
X85.725Y-79.629
X88.9Y-100.584
X90.269Y-79.121
X90.269Y-87.785
X90.932Y-129.794
X92.837Y-116.459
X96.139Y-77.724
X96.139Y-79.502
X97.79Y-116.459
X99.314Y-100.711
X100.683Y-79.121
X100.683Y-87.912
X101.6Y-129.794
X104.14Y-112.522
X104.14Y-116.459
X106.419Y-77.722
X106.426Y-79.502
X109.22Y-112.522
X109.22Y-116.459
X109.728Y-100.711
X110.871Y-79.121
X110.871Y-87.884
X112.395Y-129.794
X114.3Y-116.459
X116.967Y-77.724
X116.967Y-79.375
X119.38Y-116.459
X120.142Y-100.838
X121.638Y-79.121
X121.638Y-87.912
X122.936Y-129.794
X124.46Y-116.459
X126.873Y-103.886
X127.381Y-77.724
X127.381Y-79.502
X129.413Y-103.886
X130.556Y-100.711
X131.925Y-79.121
X131.925Y-87.785
X133.477Y-129.794
X137.795Y-77.724
X137.795Y-79.502
X140.97Y-100.711
X142.339Y-79.121
X142.339Y-87.856
X144.272Y-129.794
X148.209Y-77.724
X148.209Y-79.502
X151.003Y-100.711
X151.772Y-115.316
X152.753Y-79.121
X152.753Y-87.856
X154.559Y-115.291
X154.94Y-129.794
X157.099Y-115.316
X158.623Y-77.724
X158.623Y-79.502
X159.512Y-115.316
X161.798Y-100.711
X162.052Y-115.316
X163.167Y-79.121
X163.167Y-87.856
X164.973Y-115.316
X165.481Y-112.522
X165.481Y-129.794
X168.148Y-115.316
X168.275Y-112.522
X169.037Y-77.724
X169.037Y-79.502
X171.069Y-115.316
X171.196Y-112.522
X171.958Y-100.584
X173.581Y-79.121
X173.581Y-87.856
X173.99Y-115.316
X174.117Y-112.522
X174.244Y-107.188
X175.514Y-105.664
X176.403Y-129.794
X176.784Y-115.316
X176.911Y-112.522
X179.324Y-77.597
X179.324Y-79.375
X179.324Y-82.042
X179.324Y-83.947
X179.705Y-112.522
X179.705Y-115.316
X180.086Y-131.318
X182.372Y-95.504
X182.372Y-112.522
X182.372Y-115.316
X185.039Y-95.504
X187.96Y-95.504
T2
X131.08Y-117.629
X131.08Y-119.629
X131.08Y-121.629
X133.08Y-117.629
X133.08Y-119.629
X133.08Y-121.629
T3
X129.54Y-111.889
X132.08Y-111.889
X134.62Y-111.889
X137.16Y-111.889
X139.7Y-111.889
T4
X79.137Y-110.395
X79.137Y-112.395
X79.137Y-114.395
X81.137Y-110.395
X81.137Y-112.395
X81.137Y-114.395
X87.63Y-108.839
X87.63Y-124.079
X90.17Y-108.839
X90.17Y-124.079
X92.71Y-108.839
X92.71Y-124.079
X95.25Y-108.839
X95.25Y-124.079
X97.79Y-108.839
X97.79Y-124.079
X100.33Y-108.839
X100.33Y-111.379
X100.33Y-113.919
X100.33Y-116.459
X100.33Y-118.999
X100.33Y-121.539
X100.33Y-124.079
X102.87Y-108.839
X102.87Y-124.079
X105.41Y-108.839
X105.41Y-124.079
X107.95Y-108.839
X107.95Y-124.079
X110.49Y-108.839
X110.49Y-124.079
X113.03Y-108.839
X113.03Y-124.079
X115.57Y-108.839
X115.57Y-124.079
X118.11Y-108.839
X118.11Y-124.079
X120.65Y-108.839
X120.65Y-124.079
X123.19Y-108.839
X123.19Y-124.079
X125.73Y-108.839
X125.73Y-124.079
X128.27Y-108.839
X128.27Y-124.079
X130.81Y-108.839
X130.81Y-124.079
X133.35Y-108.839
X133.35Y-124.079
X135.89Y-108.839
X135.89Y-124.079
X138.43Y-108.839
X138.43Y-124.079
X140.97Y-108.839
X140.97Y-124.079
X143.51Y-108.839
X143.51Y-121.539
X143.51Y-124.079
X146.05Y-108.839
X146.05Y-124.079
T5
X184.912Y-80.264
X187.452Y-80.264
X189.992Y-80.264
T6
X53.848Y-134.62
X56.388Y-134.62
X58.928Y-134.62
X61.595Y-90.019
X61.595Y-96.877
X64.135Y-90.019
X64.135Y-96.877
X64.516Y-134.62
X67.056Y-134.62
X69.596Y-134.62
X72.009Y-90.019
X72.009Y-96.877
X73.452Y-111.76
X73.452Y-114.3
X73.452Y-116.84
X73.452Y-119.38
X74.549Y-90.019
X74.549Y-96.877
X75.184Y-134.62
X75.992Y-113.03
X75.992Y-115.57
X75.992Y-118.11
X75.992Y-120.65
X77.724Y-134.62
X80.264Y-134.62
X82.423Y-90.019
X82.423Y-96.877
X84.963Y-90.019
X84.963Y-96.877
X85.852Y-134.62
X88.392Y-134.62
X90.932Y-134.62
X92.837Y-90.019
X92.837Y-96.877
X95.377Y-90.019
X95.377Y-96.877
X96.52Y-134.62
X99.06Y-134.62
X101.6Y-134.62
X103.251Y-90.019
X103.251Y-96.877
X105.791Y-90.019
X105.791Y-96.877
X107.188Y-134.62
X109.728Y-134.62
X112.268Y-134.62
X113.665Y-90.019
X113.665Y-96.877
X116.205Y-90.019
X116.205Y-96.877
X117.856Y-134.62
X120.396Y-134.62
X122.936Y-134.62
X124.079Y-90.019
X124.079Y-96.877
X126.619Y-90.019
X126.619Y-96.877
X128.524Y-134.62
X131.064Y-134.62
X133.604Y-134.62
X134.493Y-90.019
X134.493Y-96.877
X137.033Y-90.019
X137.033Y-96.877
X139.192Y-134.62
X141.732Y-134.62
X144.272Y-134.62
X144.907Y-90.019
X144.907Y-96.877
X147.447Y-90.019
X147.447Y-96.877
X149.86Y-134.62
X152.4Y-134.62
X154.94Y-134.62
X155.321Y-90.018
X155.321Y-96.876
X157.861Y-90.018
X157.861Y-96.876
X160.528Y-134.62
X163.068Y-134.62
X165.608Y-134.62
X165.735Y-90.018
X165.735Y-96.876
X168.275Y-90.018
X168.275Y-96.876
X171.196Y-134.62
X173.736Y-134.62
X176.149Y-90.018
X176.149Y-96.876
X176.276Y-134.62
X178.689Y-90.018
X178.689Y-96.876
T7
X62.022Y-109.88
X62.022Y-119.99
X63.812Y-112.42
X63.812Y-122.53
T8
X70.152Y-108.33
X70.152Y-124.08
T10
X67.102Y-110.49
X67.102Y-121.92
T9
G00X66.935Y-59.825
M15
G01X66.935Y-61.925
M16
G05
G00X66.935Y-67.699
M15
G01X66.935Y-69.799
M16
G05
T0
M30
