%TF.GenerationSoftware,KiCad,Pcbnew,(5.1.10)-1*%
%TF.CreationDate,2021-11-16T19:54:51-06:00*%
%TF.ProjectId,hardware,68617264-7761-4726-952e-6b696361645f,rev?*%
%TF.SameCoordinates,Original*%
%TF.FileFunction,Paste,Top*%
%TF.FilePolarity,Positive*%
%FSLAX46Y46*%
G04 Gerber Fmt 4.6, Leading zero omitted, Abs format (unit mm)*
G04 Created by KiCad (PCBNEW (5.1.10)-1) date 2021-11-16 19:54:51*
%MOMM*%
%LPD*%
G01*
G04 APERTURE LIST*
%ADD10R,1.550000X0.600000*%
%ADD11R,0.750000X0.300000*%
%ADD12R,0.830000X0.300000*%
%ADD13R,0.510000X0.635000*%
G04 APERTURE END LIST*
D10*
%TO.C,U6*%
X90772000Y-67691000D03*
X90772000Y-65151000D03*
X90772000Y-63881000D03*
X96172000Y-63881000D03*
X96172000Y-65151000D03*
X96172000Y-66421000D03*
X96172000Y-67691000D03*
%TD*%
%TO.C,U5*%
X90899000Y-75184000D03*
X90899000Y-72644000D03*
X90899000Y-71374000D03*
X96299000Y-71374000D03*
X96299000Y-72644000D03*
X96299000Y-73914000D03*
X96299000Y-75184000D03*
%TD*%
%TO.C,U4*%
X90899000Y-82550000D03*
X90899000Y-80010000D03*
X90899000Y-78740000D03*
X96299000Y-78740000D03*
X96299000Y-80010000D03*
X96299000Y-81280000D03*
X96299000Y-82550000D03*
%TD*%
%TO.C,R3*%
G36*
G01*
X99651000Y-64532500D02*
X99651000Y-65007500D01*
G75*
G02*
X99413500Y-65245000I-237500J0D01*
G01*
X98913500Y-65245000D01*
G75*
G02*
X98676000Y-65007500I0J237500D01*
G01*
X98676000Y-64532500D01*
G75*
G02*
X98913500Y-64295000I237500J0D01*
G01*
X99413500Y-64295000D01*
G75*
G02*
X99651000Y-64532500I0J-237500D01*
G01*
G37*
G36*
G01*
X101476000Y-64532500D02*
X101476000Y-65007500D01*
G75*
G02*
X101238500Y-65245000I-237500J0D01*
G01*
X100738500Y-65245000D01*
G75*
G02*
X100501000Y-65007500I0J237500D01*
G01*
X100501000Y-64532500D01*
G75*
G02*
X100738500Y-64295000I237500J0D01*
G01*
X101238500Y-64295000D01*
G75*
G02*
X101476000Y-64532500I0J-237500D01*
G01*
G37*
%TD*%
%TO.C,R2*%
G36*
G01*
X99547500Y-72152500D02*
X99547500Y-72627500D01*
G75*
G02*
X99310000Y-72865000I-237500J0D01*
G01*
X98810000Y-72865000D01*
G75*
G02*
X98572500Y-72627500I0J237500D01*
G01*
X98572500Y-72152500D01*
G75*
G02*
X98810000Y-71915000I237500J0D01*
G01*
X99310000Y-71915000D01*
G75*
G02*
X99547500Y-72152500I0J-237500D01*
G01*
G37*
G36*
G01*
X101372500Y-72152500D02*
X101372500Y-72627500D01*
G75*
G02*
X101135000Y-72865000I-237500J0D01*
G01*
X100635000Y-72865000D01*
G75*
G02*
X100397500Y-72627500I0J237500D01*
G01*
X100397500Y-72152500D01*
G75*
G02*
X100635000Y-71915000I237500J0D01*
G01*
X101135000Y-71915000D01*
G75*
G02*
X101372500Y-72152500I0J-237500D01*
G01*
G37*
%TD*%
%TO.C,R1*%
G36*
G01*
X99674500Y-79518500D02*
X99674500Y-79993500D01*
G75*
G02*
X99437000Y-80231000I-237500J0D01*
G01*
X98937000Y-80231000D01*
G75*
G02*
X98699500Y-79993500I0J237500D01*
G01*
X98699500Y-79518500D01*
G75*
G02*
X98937000Y-79281000I237500J0D01*
G01*
X99437000Y-79281000D01*
G75*
G02*
X99674500Y-79518500I0J-237500D01*
G01*
G37*
G36*
G01*
X101499500Y-79518500D02*
X101499500Y-79993500D01*
G75*
G02*
X101262000Y-80231000I-237500J0D01*
G01*
X100762000Y-80231000D01*
G75*
G02*
X100524500Y-79993500I0J237500D01*
G01*
X100524500Y-79518500D01*
G75*
G02*
X100762000Y-79281000I237500J0D01*
G01*
X101262000Y-79281000D01*
G75*
G02*
X101499500Y-79518500I0J-237500D01*
G01*
G37*
%TD*%
D11*
%TO.C,Q3*%
X82777000Y-63922000D03*
X82777000Y-64572000D03*
X82777000Y-65222000D03*
X82777000Y-65872000D03*
D12*
X85887000Y-65872000D03*
X85887000Y-65222000D03*
X85887000Y-64572000D03*
X85887000Y-63922000D03*
D13*
X83707000Y-64271000D03*
X84567000Y-64271000D03*
X83707000Y-65523000D03*
X84567000Y-65523000D03*
%TD*%
D11*
%TO.C,Q2*%
X82777000Y-71415000D03*
X82777000Y-72065000D03*
X82777000Y-72715000D03*
X82777000Y-73365000D03*
D12*
X85887000Y-73365000D03*
X85887000Y-72715000D03*
X85887000Y-72065000D03*
X85887000Y-71415000D03*
D13*
X83707000Y-71764000D03*
X84567000Y-71764000D03*
X83707000Y-73016000D03*
X84567000Y-73016000D03*
%TD*%
D11*
%TO.C,Q1*%
X82777000Y-78781000D03*
X82777000Y-79431000D03*
X82777000Y-80081000D03*
X82777000Y-80731000D03*
D12*
X85887000Y-80731000D03*
X85887000Y-80081000D03*
X85887000Y-79431000D03*
X85887000Y-78781000D03*
D13*
X83707000Y-79130000D03*
X84567000Y-79130000D03*
X83707000Y-80382000D03*
X84567000Y-80382000D03*
%TD*%
%TO.C,C13*%
G36*
G01*
X93897500Y-69833500D02*
X93897500Y-69358500D01*
G75*
G02*
X94135000Y-69121000I237500J0D01*
G01*
X94735000Y-69121000D01*
G75*
G02*
X94972500Y-69358500I0J-237500D01*
G01*
X94972500Y-69833500D01*
G75*
G02*
X94735000Y-70071000I-237500J0D01*
G01*
X94135000Y-70071000D01*
G75*
G02*
X93897500Y-69833500I0J237500D01*
G01*
G37*
G36*
G01*
X92172500Y-69833500D02*
X92172500Y-69358500D01*
G75*
G02*
X92410000Y-69121000I237500J0D01*
G01*
X93010000Y-69121000D01*
G75*
G02*
X93247500Y-69358500I0J-237500D01*
G01*
X93247500Y-69833500D01*
G75*
G02*
X93010000Y-70071000I-237500J0D01*
G01*
X92410000Y-70071000D01*
G75*
G02*
X92172500Y-69833500I0J237500D01*
G01*
G37*
%TD*%
%TO.C,C12*%
G36*
G01*
X100401000Y-67039500D02*
X100401000Y-66564500D01*
G75*
G02*
X100638500Y-66327000I237500J0D01*
G01*
X101238500Y-66327000D01*
G75*
G02*
X101476000Y-66564500I0J-237500D01*
G01*
X101476000Y-67039500D01*
G75*
G02*
X101238500Y-67277000I-237500J0D01*
G01*
X100638500Y-67277000D01*
G75*
G02*
X100401000Y-67039500I0J237500D01*
G01*
G37*
G36*
G01*
X98676000Y-67039500D02*
X98676000Y-66564500D01*
G75*
G02*
X98913500Y-66327000I237500J0D01*
G01*
X99513500Y-66327000D01*
G75*
G02*
X99751000Y-66564500I0J-237500D01*
G01*
X99751000Y-67039500D01*
G75*
G02*
X99513500Y-67277000I-237500J0D01*
G01*
X98913500Y-67277000D01*
G75*
G02*
X98676000Y-67039500I0J237500D01*
G01*
G37*
%TD*%
%TO.C,C11*%
G36*
G01*
X93950500Y-77199500D02*
X93950500Y-76724500D01*
G75*
G02*
X94188000Y-76487000I237500J0D01*
G01*
X94788000Y-76487000D01*
G75*
G02*
X95025500Y-76724500I0J-237500D01*
G01*
X95025500Y-77199500D01*
G75*
G02*
X94788000Y-77437000I-237500J0D01*
G01*
X94188000Y-77437000D01*
G75*
G02*
X93950500Y-77199500I0J237500D01*
G01*
G37*
G36*
G01*
X92225500Y-77199500D02*
X92225500Y-76724500D01*
G75*
G02*
X92463000Y-76487000I237500J0D01*
G01*
X93063000Y-76487000D01*
G75*
G02*
X93300500Y-76724500I0J-237500D01*
G01*
X93300500Y-77199500D01*
G75*
G02*
X93063000Y-77437000I-237500J0D01*
G01*
X92463000Y-77437000D01*
G75*
G02*
X92225500Y-77199500I0J237500D01*
G01*
G37*
%TD*%
%TO.C,C10*%
G36*
G01*
X100247500Y-74659500D02*
X100247500Y-74184500D01*
G75*
G02*
X100485000Y-73947000I237500J0D01*
G01*
X101085000Y-73947000D01*
G75*
G02*
X101322500Y-74184500I0J-237500D01*
G01*
X101322500Y-74659500D01*
G75*
G02*
X101085000Y-74897000I-237500J0D01*
G01*
X100485000Y-74897000D01*
G75*
G02*
X100247500Y-74659500I0J237500D01*
G01*
G37*
G36*
G01*
X98522500Y-74659500D02*
X98522500Y-74184500D01*
G75*
G02*
X98760000Y-73947000I237500J0D01*
G01*
X99360000Y-73947000D01*
G75*
G02*
X99597500Y-74184500I0J-237500D01*
G01*
X99597500Y-74659500D01*
G75*
G02*
X99360000Y-74897000I-237500J0D01*
G01*
X98760000Y-74897000D01*
G75*
G02*
X98522500Y-74659500I0J237500D01*
G01*
G37*
%TD*%
%TO.C,C9*%
G36*
G01*
X90694500Y-86330500D02*
X91169500Y-86330500D01*
G75*
G02*
X91407000Y-86568000I0J-237500D01*
G01*
X91407000Y-87168000D01*
G75*
G02*
X91169500Y-87405500I-237500J0D01*
G01*
X90694500Y-87405500D01*
G75*
G02*
X90457000Y-87168000I0J237500D01*
G01*
X90457000Y-86568000D01*
G75*
G02*
X90694500Y-86330500I237500J0D01*
G01*
G37*
G36*
G01*
X90694500Y-84605500D02*
X91169500Y-84605500D01*
G75*
G02*
X91407000Y-84843000I0J-237500D01*
G01*
X91407000Y-85443000D01*
G75*
G02*
X91169500Y-85680500I-237500J0D01*
G01*
X90694500Y-85680500D01*
G75*
G02*
X90457000Y-85443000I0J237500D01*
G01*
X90457000Y-84843000D01*
G75*
G02*
X90694500Y-84605500I237500J0D01*
G01*
G37*
%TD*%
%TO.C,C8*%
G36*
G01*
X100427500Y-82025500D02*
X100427500Y-81550500D01*
G75*
G02*
X100665000Y-81313000I237500J0D01*
G01*
X101265000Y-81313000D01*
G75*
G02*
X101502500Y-81550500I0J-237500D01*
G01*
X101502500Y-82025500D01*
G75*
G02*
X101265000Y-82263000I-237500J0D01*
G01*
X100665000Y-82263000D01*
G75*
G02*
X100427500Y-82025500I0J237500D01*
G01*
G37*
G36*
G01*
X98702500Y-82025500D02*
X98702500Y-81550500D01*
G75*
G02*
X98940000Y-81313000I237500J0D01*
G01*
X99540000Y-81313000D01*
G75*
G02*
X99777500Y-81550500I0J-237500D01*
G01*
X99777500Y-82025500D01*
G75*
G02*
X99540000Y-82263000I-237500J0D01*
G01*
X98940000Y-82263000D01*
G75*
G02*
X98702500Y-82025500I0J237500D01*
G01*
G37*
%TD*%
%TO.C,C7*%
G36*
G01*
X81732000Y-89899500D02*
X81732000Y-89424500D01*
G75*
G02*
X81969500Y-89187000I237500J0D01*
G01*
X82569500Y-89187000D01*
G75*
G02*
X82807000Y-89424500I0J-237500D01*
G01*
X82807000Y-89899500D01*
G75*
G02*
X82569500Y-90137000I-237500J0D01*
G01*
X81969500Y-90137000D01*
G75*
G02*
X81732000Y-89899500I0J237500D01*
G01*
G37*
G36*
G01*
X80007000Y-89899500D02*
X80007000Y-89424500D01*
G75*
G02*
X80244500Y-89187000I237500J0D01*
G01*
X80844500Y-89187000D01*
G75*
G02*
X81082000Y-89424500I0J-237500D01*
G01*
X81082000Y-89899500D01*
G75*
G02*
X80844500Y-90137000I-237500J0D01*
G01*
X80244500Y-90137000D01*
G75*
G02*
X80007000Y-89899500I0J237500D01*
G01*
G37*
%TD*%
%TO.C,C6*%
G36*
G01*
X81732000Y-87994500D02*
X81732000Y-87519500D01*
G75*
G02*
X81969500Y-87282000I237500J0D01*
G01*
X82569500Y-87282000D01*
G75*
G02*
X82807000Y-87519500I0J-237500D01*
G01*
X82807000Y-87994500D01*
G75*
G02*
X82569500Y-88232000I-237500J0D01*
G01*
X81969500Y-88232000D01*
G75*
G02*
X81732000Y-87994500I0J237500D01*
G01*
G37*
G36*
G01*
X80007000Y-87994500D02*
X80007000Y-87519500D01*
G75*
G02*
X80244500Y-87282000I237500J0D01*
G01*
X80844500Y-87282000D01*
G75*
G02*
X81082000Y-87519500I0J-237500D01*
G01*
X81082000Y-87994500D01*
G75*
G02*
X80844500Y-88232000I-237500J0D01*
G01*
X80244500Y-88232000D01*
G75*
G02*
X80007000Y-87994500I0J237500D01*
G01*
G37*
%TD*%
%TO.C,C5*%
G36*
G01*
X61677500Y-75708500D02*
X61677500Y-76183500D01*
G75*
G02*
X61440000Y-76421000I-237500J0D01*
G01*
X60840000Y-76421000D01*
G75*
G02*
X60602500Y-76183500I0J237500D01*
G01*
X60602500Y-75708500D01*
G75*
G02*
X60840000Y-75471000I237500J0D01*
G01*
X61440000Y-75471000D01*
G75*
G02*
X61677500Y-75708500I0J-237500D01*
G01*
G37*
G36*
G01*
X63402500Y-75708500D02*
X63402500Y-76183500D01*
G75*
G02*
X63165000Y-76421000I-237500J0D01*
G01*
X62565000Y-76421000D01*
G75*
G02*
X62327500Y-76183500I0J237500D01*
G01*
X62327500Y-75708500D01*
G75*
G02*
X62565000Y-75471000I237500J0D01*
G01*
X63165000Y-75471000D01*
G75*
G02*
X63402500Y-75708500I0J-237500D01*
G01*
G37*
%TD*%
%TO.C,C4*%
G36*
G01*
X58121500Y-81169500D02*
X58121500Y-81644500D01*
G75*
G02*
X57884000Y-81882000I-237500J0D01*
G01*
X57284000Y-81882000D01*
G75*
G02*
X57046500Y-81644500I0J237500D01*
G01*
X57046500Y-81169500D01*
G75*
G02*
X57284000Y-80932000I237500J0D01*
G01*
X57884000Y-80932000D01*
G75*
G02*
X58121500Y-81169500I0J-237500D01*
G01*
G37*
G36*
G01*
X59846500Y-81169500D02*
X59846500Y-81644500D01*
G75*
G02*
X59609000Y-81882000I-237500J0D01*
G01*
X59009000Y-81882000D01*
G75*
G02*
X58771500Y-81644500I0J237500D01*
G01*
X58771500Y-81169500D01*
G75*
G02*
X59009000Y-80932000I237500J0D01*
G01*
X59609000Y-80932000D01*
G75*
G02*
X59846500Y-81169500I0J-237500D01*
G01*
G37*
%TD*%
%TO.C,C3*%
G36*
G01*
X58121500Y-79137500D02*
X58121500Y-79612500D01*
G75*
G02*
X57884000Y-79850000I-237500J0D01*
G01*
X57284000Y-79850000D01*
G75*
G02*
X57046500Y-79612500I0J237500D01*
G01*
X57046500Y-79137500D01*
G75*
G02*
X57284000Y-78900000I237500J0D01*
G01*
X57884000Y-78900000D01*
G75*
G02*
X58121500Y-79137500I0J-237500D01*
G01*
G37*
G36*
G01*
X59846500Y-79137500D02*
X59846500Y-79612500D01*
G75*
G02*
X59609000Y-79850000I-237500J0D01*
G01*
X59009000Y-79850000D01*
G75*
G02*
X58771500Y-79612500I0J237500D01*
G01*
X58771500Y-79137500D01*
G75*
G02*
X59009000Y-78900000I237500J0D01*
G01*
X59609000Y-78900000D01*
G75*
G02*
X59846500Y-79137500I0J-237500D01*
G01*
G37*
%TD*%
%TO.C,C2*%
G36*
G01*
X61677500Y-77232500D02*
X61677500Y-77707500D01*
G75*
G02*
X61440000Y-77945000I-237500J0D01*
G01*
X60840000Y-77945000D01*
G75*
G02*
X60602500Y-77707500I0J237500D01*
G01*
X60602500Y-77232500D01*
G75*
G02*
X60840000Y-76995000I237500J0D01*
G01*
X61440000Y-76995000D01*
G75*
G02*
X61677500Y-77232500I0J-237500D01*
G01*
G37*
G36*
G01*
X63402500Y-77232500D02*
X63402500Y-77707500D01*
G75*
G02*
X63165000Y-77945000I-237500J0D01*
G01*
X62565000Y-77945000D01*
G75*
G02*
X62327500Y-77707500I0J237500D01*
G01*
X62327500Y-77232500D01*
G75*
G02*
X62565000Y-76995000I237500J0D01*
G01*
X63165000Y-76995000D01*
G75*
G02*
X63402500Y-77232500I0J-237500D01*
G01*
G37*
%TD*%
%TO.C,C1*%
G36*
G01*
X150984000Y-56181000D02*
X150984000Y-55706000D01*
G75*
G02*
X151221500Y-55468500I237500J0D01*
G01*
X151821500Y-55468500D01*
G75*
G02*
X152059000Y-55706000I0J-237500D01*
G01*
X152059000Y-56181000D01*
G75*
G02*
X151821500Y-56418500I-237500J0D01*
G01*
X151221500Y-56418500D01*
G75*
G02*
X150984000Y-56181000I0J237500D01*
G01*
G37*
G36*
G01*
X149259000Y-56181000D02*
X149259000Y-55706000D01*
G75*
G02*
X149496500Y-55468500I237500J0D01*
G01*
X150096500Y-55468500D01*
G75*
G02*
X150334000Y-55706000I0J-237500D01*
G01*
X150334000Y-56181000D01*
G75*
G02*
X150096500Y-56418500I-237500J0D01*
G01*
X149496500Y-56418500D01*
G75*
G02*
X149259000Y-56181000I0J237500D01*
G01*
G37*
%TD*%
M02*
