%TF.GenerationSoftware,KiCad,Pcbnew,(5.1.10)-1*%
%TF.CreationDate,2021-11-19T22:40:20-06:00*%
%TF.ProjectId,hardware,68617264-7761-4726-952e-6b696361645f,rev?*%
%TF.SameCoordinates,Original*%
%TF.FileFunction,Legend,Bot*%
%TF.FilePolarity,Positive*%
%FSLAX46Y46*%
G04 Gerber Fmt 4.6, Leading zero omitted, Abs format (unit mm)*
G04 Created by KiCad (PCBNEW (5.1.10)-1) date 2021-11-19 22:40:20*
%MOMM*%
%LPD*%
G01*
G04 APERTURE LIST*
%ADD10C,0.150000*%
G04 APERTURE END LIST*
D10*
%TO.C,Conn2*%
X69875400Y-51689000D02*
X75438000Y-51689000D01*
X69824600Y-51689000D02*
G75*
G03*
X69824600Y-51689000I-1117600J0D01*
G01*
X76581000Y-50546000D02*
X76581000Y-41656000D01*
X76581000Y-52806600D02*
X76581000Y-66290000D01*
X52959000Y-50546000D02*
X52959000Y-49326800D01*
X68707000Y-54000400D02*
X68707000Y-52806600D01*
X66395600Y-51689000D02*
X67564000Y-51689000D01*
X68707000Y-49377600D02*
X68707000Y-50546000D01*
X52959000Y-53949600D02*
X52959000Y-52857400D01*
X54102000Y-51689000D02*
X55270400Y-51689000D01*
X63119000Y-51689000D02*
X61976000Y-51689000D01*
X60807600Y-41656000D02*
X60807600Y-50546000D01*
X58547000Y-51689000D02*
X59690000Y-51689000D01*
X60833000Y-53975000D02*
X60833000Y-52832000D01*
X63119000Y-51689000D02*
X66421000Y-51689000D01*
X60833000Y-53975000D02*
X60833000Y-66294000D01*
X58547000Y-51689000D02*
X55270400Y-51689000D01*
X61976000Y-51689000D02*
G75*
G03*
X61976000Y-51689000I-1143000J0D01*
G01*
X68707000Y-53975000D02*
X68707000Y-66294000D01*
X68707000Y-49403000D02*
X68707000Y-41656000D01*
X52959000Y-41656000D02*
X52959000Y-49403000D01*
X52959000Y-53975000D02*
X52959000Y-66294000D01*
X76329000Y-41652000D02*
X52957000Y-41652000D01*
X76581000Y-66290000D02*
X52957000Y-66290000D01*
X52959000Y-50546000D02*
G75*
G02*
X54102000Y-51689000I0J-1143000D01*
G01*
X54102000Y-51689000D02*
G75*
G02*
X52959000Y-52832000I-1143000J0D01*
G01*
X75514200Y-51663600D02*
G75*
G02*
X76581000Y-50596800I1066800J0D01*
G01*
X76581000Y-52755800D02*
G75*
G02*
X75514200Y-51689000I0J1066800D01*
G01*
%TD*%
M02*
