%TF.GenerationSoftware,KiCad,Pcbnew,(6.0.10)*%
%TF.CreationDate,2022-12-28T15:45:52-06:00*%
%TF.ProjectId,Hardware_Rev1,48617264-7761-4726-955f-526576312e6b,rev?*%
%TF.SameCoordinates,Original*%
%TF.FileFunction,Soldermask,Bot*%
%TF.FilePolarity,Negative*%
%FSLAX46Y46*%
G04 Gerber Fmt 4.6, Leading zero omitted, Abs format (unit mm)*
G04 Created by KiCad (PCBNEW (6.0.10)) date 2022-12-28 15:45:52*
%MOMM*%
%LPD*%
G01*
G04 APERTURE LIST*
%ADD10C,1.524000*%
%ADD11C,1.100000*%
%ADD12C,1.400000*%
%ADD13C,4.000000*%
%ADD14C,2.000000*%
%ADD15R,1.350000X1.350000*%
%ADD16O,1.350000X1.350000*%
%ADD17O,3.000000X5.100000*%
%ADD18C,1.308000*%
%ADD19C,1.258000*%
%ADD20C,1.208000*%
%ADD21C,2.946400*%
G04 APERTURE END LIST*
D10*
X171196000Y-134620000D03*
X173736000Y-134620000D03*
X176276000Y-134620000D03*
X92837000Y-90019500D03*
X95377000Y-90019500D03*
X103251000Y-90019500D03*
X105791000Y-90019500D03*
D11*
X73452000Y-111760000D03*
X75992000Y-113030000D03*
X73452000Y-114300000D03*
X75992000Y-115570000D03*
X73452000Y-116840000D03*
X75992000Y-118110000D03*
X73452000Y-119380000D03*
X75992000Y-120650000D03*
D12*
X62022000Y-109880000D03*
X63812000Y-112420000D03*
X62022000Y-119990000D03*
X63812000Y-122530000D03*
D13*
X67102000Y-110490000D03*
X67102000Y-121920000D03*
D14*
X70152000Y-124080000D03*
X70152000Y-108330000D03*
D10*
X124079000Y-90019500D03*
X126619000Y-90019500D03*
X92837000Y-96877500D03*
X95377000Y-96877500D03*
D15*
X79137000Y-110395000D03*
D16*
X81137000Y-110395000D03*
X79137000Y-112395000D03*
X81137000Y-112395000D03*
X79137000Y-114395000D03*
X81137000Y-114395000D03*
D10*
X113665000Y-96877500D03*
X116205000Y-96877500D03*
X176149000Y-96875600D03*
X178689000Y-96875600D03*
X117856000Y-134620000D03*
X120396000Y-134620000D03*
X122936000Y-134620000D03*
X61595000Y-96877500D03*
X64135000Y-96877500D03*
X53848000Y-134620000D03*
X56388000Y-134620000D03*
X58928000Y-134620000D03*
D17*
X66935400Y-60875000D03*
X66935400Y-68749000D03*
D10*
X72009000Y-90019500D03*
X74549000Y-90019500D03*
X72009000Y-96877500D03*
X74549000Y-96877500D03*
X165735000Y-96875600D03*
X168275000Y-96875600D03*
X75184000Y-134620000D03*
X77724000Y-134620000D03*
X80264000Y-134620000D03*
X85852000Y-134620000D03*
X88392000Y-134620000D03*
X90932000Y-134620000D03*
X155321000Y-96875600D03*
X157861000Y-96875600D03*
D18*
X143510000Y-108839000D03*
X140970000Y-108839000D03*
X138430000Y-108839000D03*
X135890000Y-108839000D03*
X110490000Y-108839000D03*
X140970000Y-124079000D03*
X100330000Y-113919000D03*
X133350000Y-108839000D03*
X130810000Y-108839000D03*
D19*
X139700000Y-111889000D03*
D18*
X128270000Y-108839000D03*
X125730000Y-108839000D03*
X123190000Y-108839000D03*
X120650000Y-108839000D03*
X118110000Y-108839000D03*
X115570000Y-108839000D03*
X113030000Y-108839000D03*
X113030000Y-124079000D03*
X115570000Y-124079000D03*
X118110000Y-124079000D03*
X120650000Y-124079000D03*
X123190000Y-124079000D03*
X125730000Y-124079000D03*
X128270000Y-124079000D03*
X130810000Y-124079000D03*
X133350000Y-124079000D03*
X135890000Y-124079000D03*
X138430000Y-124079000D03*
X107950000Y-108839000D03*
X105410000Y-108839000D03*
X102870000Y-108839000D03*
X100330000Y-108839000D03*
X97790000Y-108839000D03*
X95250000Y-108839000D03*
X92710000Y-108839000D03*
X90170000Y-108839000D03*
X87630000Y-108839000D03*
X87630000Y-124079000D03*
X90170000Y-124079000D03*
X92710000Y-124079000D03*
X95250000Y-124079000D03*
X97790000Y-124079000D03*
X100330000Y-124079000D03*
X102870000Y-124079000D03*
X105410000Y-124079000D03*
X107950000Y-124079000D03*
D19*
X134620000Y-111889000D03*
X137160000Y-111889000D03*
D18*
X146050000Y-108839000D03*
X110490000Y-124079000D03*
X143510000Y-124079000D03*
X100330000Y-116459000D03*
D20*
X131080000Y-119629000D03*
X133080000Y-119629000D03*
D18*
X100330000Y-121539000D03*
X100330000Y-118999000D03*
D20*
X133080000Y-121629000D03*
X131080000Y-121629000D03*
X131080000Y-117629000D03*
X133080000Y-117629000D03*
D19*
X132080000Y-111889000D03*
X129540000Y-111889000D03*
D18*
X100330000Y-111379000D03*
X146050000Y-124079000D03*
X143510000Y-121539000D03*
D10*
X165735000Y-90017600D03*
X168275000Y-90017600D03*
X144907000Y-90019500D03*
X147447000Y-90019500D03*
X61595000Y-90019500D03*
X64135000Y-90019500D03*
X144907000Y-96877500D03*
X147447000Y-96877500D03*
X128524000Y-134620000D03*
X131064000Y-134620000D03*
X133604000Y-134620000D03*
X64516000Y-134620000D03*
X67056000Y-134620000D03*
X69596000Y-134620000D03*
X107188000Y-134620000D03*
X109728000Y-134620000D03*
X112268000Y-134620000D03*
D21*
X52914420Y-143935580D03*
D10*
X134493000Y-96877500D03*
X137033000Y-96877500D03*
X82423000Y-90019500D03*
X84963000Y-90019500D03*
X96520000Y-134620000D03*
X99060000Y-134620000D03*
X101600000Y-134620000D03*
X134493000Y-90019500D03*
X137033000Y-90019500D03*
X184912000Y-80264000D03*
X187452000Y-80264000D03*
X189992000Y-80264000D03*
X149860000Y-134620000D03*
X152400000Y-134620000D03*
X154940000Y-134620000D03*
X160528000Y-134620000D03*
X163068000Y-134620000D03*
X165608000Y-134620000D03*
X82423000Y-96877500D03*
X84963000Y-96877500D03*
D21*
X52903120Y-51644420D03*
D10*
X124079000Y-96877500D03*
X126619000Y-96877500D03*
X113665000Y-90019500D03*
X116205000Y-90019500D03*
X176149000Y-90017600D03*
X178689000Y-90017600D03*
X155321000Y-90017600D03*
X157861000Y-90017600D03*
D21*
X192206880Y-143946880D03*
X192195580Y-51644420D03*
D10*
X103251000Y-96877500D03*
X105791000Y-96877500D03*
X139192000Y-134620000D03*
X141732000Y-134620000D03*
X144272000Y-134620000D03*
M02*
