%TF.GenerationSoftware,KiCad,Pcbnew,(5.1.10)-1*%
%TF.CreationDate,2021-11-16T19:54:51-06:00*%
%TF.ProjectId,hardware,68617264-7761-4726-952e-6b696361645f,rev?*%
%TF.SameCoordinates,Original*%
%TF.FileFunction,Soldermask,Top*%
%TF.FilePolarity,Negative*%
%FSLAX46Y46*%
G04 Gerber Fmt 4.6, Leading zero omitted, Abs format (unit mm)*
G04 Created by KiCad (PCBNEW (5.1.10)-1) date 2021-11-16 19:54:51*
%MOMM*%
%LPD*%
G01*
G04 APERTURE LIST*
%ADD10R,1.550000X0.600000*%
%ADD11C,1.800000*%
%ADD12R,1.800000X1.800000*%
%ADD13C,1.308000*%
%ADD14C,1.208000*%
%ADD15C,1.258000*%
%ADD16C,1.524000*%
%ADD17C,0.100000*%
%ADD18C,1.100000*%
%ADD19C,4.000000*%
%ADD20C,1.400000*%
%ADD21C,2.000000*%
%ADD22O,1.350000X1.350000*%
%ADD23R,1.350000X1.350000*%
%ADD24C,3.073400*%
%ADD25C,5.080000*%
G04 APERTURE END LIST*
D10*
%TO.C,U6*%
X90772000Y-67691000D03*
X90772000Y-65151000D03*
X90772000Y-63881000D03*
X96172000Y-63881000D03*
X96172000Y-65151000D03*
X96172000Y-66421000D03*
X96172000Y-67691000D03*
%TD*%
%TO.C,U5*%
X90899000Y-75184000D03*
X90899000Y-72644000D03*
X90899000Y-71374000D03*
X96299000Y-71374000D03*
X96299000Y-72644000D03*
X96299000Y-73914000D03*
X96299000Y-75184000D03*
%TD*%
%TO.C,U4*%
X90899000Y-82550000D03*
X90899000Y-80010000D03*
X90899000Y-78740000D03*
X96299000Y-78740000D03*
X96299000Y-80010000D03*
X96299000Y-81280000D03*
X96299000Y-82550000D03*
%TD*%
D11*
%TO.C,U3*%
X72898000Y-86106000D03*
X70358000Y-86106000D03*
D12*
X67818000Y-86106000D03*
%TD*%
D13*
%TO.C,U2*%
X105410000Y-98552000D03*
X151130000Y-96012000D03*
X140970000Y-83312000D03*
D14*
X120380000Y-85762000D03*
X120380000Y-89762000D03*
D13*
X151130000Y-85852000D03*
D14*
X118380000Y-85762000D03*
D13*
X107950000Y-98552000D03*
X151130000Y-93472000D03*
X107950000Y-85852000D03*
X151130000Y-88392000D03*
D14*
X120380000Y-87762000D03*
D13*
X151130000Y-90932000D03*
X105410000Y-83312000D03*
X130810000Y-98552000D03*
X161290000Y-98552000D03*
X148590000Y-83312000D03*
X115570000Y-98552000D03*
X118110000Y-83312000D03*
X110490000Y-83312000D03*
D15*
X111760000Y-95502000D03*
D13*
X110490000Y-98552000D03*
D15*
X114300000Y-95502000D03*
D13*
X133350000Y-83312000D03*
X107950000Y-83312000D03*
X158750000Y-83312000D03*
D14*
X118380000Y-87762000D03*
D13*
X143510000Y-83312000D03*
X135890000Y-98552000D03*
D15*
X116840000Y-95502000D03*
D13*
X123190000Y-83312000D03*
X120650000Y-83312000D03*
X153670000Y-98552000D03*
X143510000Y-98552000D03*
X163830000Y-98552000D03*
X156210000Y-98552000D03*
X151130000Y-83312000D03*
X125730000Y-83312000D03*
X128270000Y-98552000D03*
D14*
X118380000Y-89762000D03*
D13*
X156210000Y-83312000D03*
X146050000Y-83312000D03*
X118110000Y-98552000D03*
D15*
X119380000Y-95502000D03*
D13*
X123190000Y-98552000D03*
X133350000Y-98552000D03*
X138430000Y-98552000D03*
X161290000Y-83312000D03*
X151130000Y-98552000D03*
X163830000Y-83312000D03*
D15*
X121920000Y-95502000D03*
D13*
X135890000Y-83312000D03*
X128270000Y-83312000D03*
X120650000Y-98552000D03*
X125730000Y-98552000D03*
X115570000Y-83312000D03*
X146050000Y-98552000D03*
X113030000Y-98552000D03*
X130810000Y-83312000D03*
X148590000Y-98552000D03*
X140970000Y-98552000D03*
X138430000Y-83312000D03*
X158750000Y-98552000D03*
X153670000Y-83312000D03*
X113030000Y-83312000D03*
%TD*%
D16*
%TO.C,U1*%
X60706000Y-86106000D03*
X58166000Y-86106000D03*
X55626000Y-86106000D03*
%TD*%
%TO.C,R3*%
G36*
G01*
X99651000Y-64532500D02*
X99651000Y-65007500D01*
G75*
G02*
X99413500Y-65245000I-237500J0D01*
G01*
X98913500Y-65245000D01*
G75*
G02*
X98676000Y-65007500I0J237500D01*
G01*
X98676000Y-64532500D01*
G75*
G02*
X98913500Y-64295000I237500J0D01*
G01*
X99413500Y-64295000D01*
G75*
G02*
X99651000Y-64532500I0J-237500D01*
G01*
G37*
G36*
G01*
X101476000Y-64532500D02*
X101476000Y-65007500D01*
G75*
G02*
X101238500Y-65245000I-237500J0D01*
G01*
X100738500Y-65245000D01*
G75*
G02*
X100501000Y-65007500I0J237500D01*
G01*
X100501000Y-64532500D01*
G75*
G02*
X100738500Y-64295000I237500J0D01*
G01*
X101238500Y-64295000D01*
G75*
G02*
X101476000Y-64532500I0J-237500D01*
G01*
G37*
%TD*%
%TO.C,R2*%
G36*
G01*
X99547500Y-72152500D02*
X99547500Y-72627500D01*
G75*
G02*
X99310000Y-72865000I-237500J0D01*
G01*
X98810000Y-72865000D01*
G75*
G02*
X98572500Y-72627500I0J237500D01*
G01*
X98572500Y-72152500D01*
G75*
G02*
X98810000Y-71915000I237500J0D01*
G01*
X99310000Y-71915000D01*
G75*
G02*
X99547500Y-72152500I0J-237500D01*
G01*
G37*
G36*
G01*
X101372500Y-72152500D02*
X101372500Y-72627500D01*
G75*
G02*
X101135000Y-72865000I-237500J0D01*
G01*
X100635000Y-72865000D01*
G75*
G02*
X100397500Y-72627500I0J237500D01*
G01*
X100397500Y-72152500D01*
G75*
G02*
X100635000Y-71915000I237500J0D01*
G01*
X101135000Y-71915000D01*
G75*
G02*
X101372500Y-72152500I0J-237500D01*
G01*
G37*
%TD*%
%TO.C,R1*%
G36*
G01*
X99674500Y-79518500D02*
X99674500Y-79993500D01*
G75*
G02*
X99437000Y-80231000I-237500J0D01*
G01*
X98937000Y-80231000D01*
G75*
G02*
X98699500Y-79993500I0J237500D01*
G01*
X98699500Y-79518500D01*
G75*
G02*
X98937000Y-79281000I237500J0D01*
G01*
X99437000Y-79281000D01*
G75*
G02*
X99674500Y-79518500I0J-237500D01*
G01*
G37*
G36*
G01*
X101499500Y-79518500D02*
X101499500Y-79993500D01*
G75*
G02*
X101262000Y-80231000I-237500J0D01*
G01*
X100762000Y-80231000D01*
G75*
G02*
X100524500Y-79993500I0J237500D01*
G01*
X100524500Y-79518500D01*
G75*
G02*
X100762000Y-79281000I237500J0D01*
G01*
X101262000Y-79281000D01*
G75*
G02*
X101499500Y-79518500I0J-237500D01*
G01*
G37*
%TD*%
D17*
%TO.C,Q3*%
G36*
X82392245Y-66121039D02*
G01*
X82382866Y-66118194D01*
X82374221Y-66113573D01*
X82366645Y-66107355D01*
X82360427Y-66099779D01*
X82355806Y-66091134D01*
X82352961Y-66081755D01*
X82352000Y-66072000D01*
X82352000Y-65672000D01*
X82352961Y-65662245D01*
X82355806Y-65652866D01*
X82360427Y-65644221D01*
X82366645Y-65636645D01*
X82374221Y-65630427D01*
X82382866Y-65625806D01*
X82392245Y-65622961D01*
X82402000Y-65622000D01*
X82972000Y-65622000D01*
X82972000Y-65472000D01*
X82402000Y-65472000D01*
X82392245Y-65471039D01*
X82382866Y-65468194D01*
X82374221Y-65463573D01*
X82366645Y-65457355D01*
X82360427Y-65449779D01*
X82355806Y-65441134D01*
X82352961Y-65431755D01*
X82352000Y-65422000D01*
X82352000Y-65022000D01*
X82352961Y-65012245D01*
X82355806Y-65002866D01*
X82360427Y-64994221D01*
X82366645Y-64986645D01*
X82374221Y-64980427D01*
X82382866Y-64975806D01*
X82392245Y-64972961D01*
X82402000Y-64972000D01*
X82972000Y-64972000D01*
X82972000Y-64822000D01*
X82402000Y-64822000D01*
X82392245Y-64821039D01*
X82382866Y-64818194D01*
X82374221Y-64813573D01*
X82366645Y-64807355D01*
X82360427Y-64799779D01*
X82355806Y-64791134D01*
X82352961Y-64781755D01*
X82352000Y-64772000D01*
X82352000Y-64372000D01*
X82352961Y-64362245D01*
X82355806Y-64352866D01*
X82360427Y-64344221D01*
X82366645Y-64336645D01*
X82374221Y-64330427D01*
X82382866Y-64325806D01*
X82392245Y-64322961D01*
X82402000Y-64322000D01*
X82972000Y-64322000D01*
X82972000Y-64172000D01*
X82402000Y-64172000D01*
X82392245Y-64171039D01*
X82382866Y-64168194D01*
X82374221Y-64163573D01*
X82366645Y-64157355D01*
X82360427Y-64149779D01*
X82355806Y-64141134D01*
X82352961Y-64131755D01*
X82352000Y-64122000D01*
X82352000Y-63722000D01*
X82352961Y-63712245D01*
X82355806Y-63702866D01*
X82360427Y-63694221D01*
X82366645Y-63686645D01*
X82374221Y-63680427D01*
X82382866Y-63675806D01*
X82392245Y-63672961D01*
X82402000Y-63672000D01*
X83022000Y-63672000D01*
X83031755Y-63672961D01*
X83041134Y-63675806D01*
X83049779Y-63680427D01*
X83057355Y-63686645D01*
X83063573Y-63694221D01*
X83068194Y-63702866D01*
X83071039Y-63712245D01*
X83072000Y-63722000D01*
X84872000Y-63722000D01*
X84881755Y-63722961D01*
X84891134Y-63725806D01*
X84899779Y-63730427D01*
X84907355Y-63736645D01*
X84913573Y-63744221D01*
X84918194Y-63752866D01*
X84921039Y-63762245D01*
X84922000Y-63772000D01*
X84922000Y-66022000D01*
X84921039Y-66031755D01*
X84918194Y-66041134D01*
X84913573Y-66049779D01*
X84907355Y-66057355D01*
X84899779Y-66063573D01*
X84891134Y-66068194D01*
X84881755Y-66071039D01*
X84872000Y-66072000D01*
X83072000Y-66072000D01*
X83071039Y-66081755D01*
X83068194Y-66091134D01*
X83063573Y-66099779D01*
X83057355Y-66107355D01*
X83049779Y-66113573D01*
X83041134Y-66118194D01*
X83031755Y-66121039D01*
X83022000Y-66122000D01*
X82402000Y-66122000D01*
X82392245Y-66121039D01*
G37*
G36*
G01*
X86352000Y-63722000D02*
X86352000Y-64122000D01*
G75*
G02*
X86302000Y-64172000I-50000J0D01*
G01*
X85472000Y-64172000D01*
G75*
G02*
X85422000Y-64122000I0J50000D01*
G01*
X85422000Y-63722000D01*
G75*
G02*
X85472000Y-63672000I50000J0D01*
G01*
X86302000Y-63672000D01*
G75*
G02*
X86352000Y-63722000I0J-50000D01*
G01*
G37*
G36*
G01*
X86352000Y-64372000D02*
X86352000Y-64772000D01*
G75*
G02*
X86302000Y-64822000I-50000J0D01*
G01*
X85472000Y-64822000D01*
G75*
G02*
X85422000Y-64772000I0J50000D01*
G01*
X85422000Y-64372000D01*
G75*
G02*
X85472000Y-64322000I50000J0D01*
G01*
X86302000Y-64322000D01*
G75*
G02*
X86352000Y-64372000I0J-50000D01*
G01*
G37*
G36*
G01*
X86352000Y-65672000D02*
X86352000Y-66072000D01*
G75*
G02*
X86302000Y-66122000I-50000J0D01*
G01*
X85472000Y-66122000D01*
G75*
G02*
X85422000Y-66072000I0J50000D01*
G01*
X85422000Y-65672000D01*
G75*
G02*
X85472000Y-65622000I50000J0D01*
G01*
X86302000Y-65622000D01*
G75*
G02*
X86352000Y-65672000I0J-50000D01*
G01*
G37*
G36*
G01*
X86352000Y-65022000D02*
X86352000Y-65422000D01*
G75*
G02*
X86302000Y-65472000I-50000J0D01*
G01*
X85472000Y-65472000D01*
G75*
G02*
X85422000Y-65422000I0J50000D01*
G01*
X85422000Y-65022000D01*
G75*
G02*
X85472000Y-64972000I50000J0D01*
G01*
X86302000Y-64972000D01*
G75*
G02*
X86352000Y-65022000I0J-50000D01*
G01*
G37*
%TD*%
%TO.C,Q2*%
G36*
X82392245Y-73614039D02*
G01*
X82382866Y-73611194D01*
X82374221Y-73606573D01*
X82366645Y-73600355D01*
X82360427Y-73592779D01*
X82355806Y-73584134D01*
X82352961Y-73574755D01*
X82352000Y-73565000D01*
X82352000Y-73165000D01*
X82352961Y-73155245D01*
X82355806Y-73145866D01*
X82360427Y-73137221D01*
X82366645Y-73129645D01*
X82374221Y-73123427D01*
X82382866Y-73118806D01*
X82392245Y-73115961D01*
X82402000Y-73115000D01*
X82972000Y-73115000D01*
X82972000Y-72965000D01*
X82402000Y-72965000D01*
X82392245Y-72964039D01*
X82382866Y-72961194D01*
X82374221Y-72956573D01*
X82366645Y-72950355D01*
X82360427Y-72942779D01*
X82355806Y-72934134D01*
X82352961Y-72924755D01*
X82352000Y-72915000D01*
X82352000Y-72515000D01*
X82352961Y-72505245D01*
X82355806Y-72495866D01*
X82360427Y-72487221D01*
X82366645Y-72479645D01*
X82374221Y-72473427D01*
X82382866Y-72468806D01*
X82392245Y-72465961D01*
X82402000Y-72465000D01*
X82972000Y-72465000D01*
X82972000Y-72315000D01*
X82402000Y-72315000D01*
X82392245Y-72314039D01*
X82382866Y-72311194D01*
X82374221Y-72306573D01*
X82366645Y-72300355D01*
X82360427Y-72292779D01*
X82355806Y-72284134D01*
X82352961Y-72274755D01*
X82352000Y-72265000D01*
X82352000Y-71865000D01*
X82352961Y-71855245D01*
X82355806Y-71845866D01*
X82360427Y-71837221D01*
X82366645Y-71829645D01*
X82374221Y-71823427D01*
X82382866Y-71818806D01*
X82392245Y-71815961D01*
X82402000Y-71815000D01*
X82972000Y-71815000D01*
X82972000Y-71665000D01*
X82402000Y-71665000D01*
X82392245Y-71664039D01*
X82382866Y-71661194D01*
X82374221Y-71656573D01*
X82366645Y-71650355D01*
X82360427Y-71642779D01*
X82355806Y-71634134D01*
X82352961Y-71624755D01*
X82352000Y-71615000D01*
X82352000Y-71215000D01*
X82352961Y-71205245D01*
X82355806Y-71195866D01*
X82360427Y-71187221D01*
X82366645Y-71179645D01*
X82374221Y-71173427D01*
X82382866Y-71168806D01*
X82392245Y-71165961D01*
X82402000Y-71165000D01*
X83022000Y-71165000D01*
X83031755Y-71165961D01*
X83041134Y-71168806D01*
X83049779Y-71173427D01*
X83057355Y-71179645D01*
X83063573Y-71187221D01*
X83068194Y-71195866D01*
X83071039Y-71205245D01*
X83072000Y-71215000D01*
X84872000Y-71215000D01*
X84881755Y-71215961D01*
X84891134Y-71218806D01*
X84899779Y-71223427D01*
X84907355Y-71229645D01*
X84913573Y-71237221D01*
X84918194Y-71245866D01*
X84921039Y-71255245D01*
X84922000Y-71265000D01*
X84922000Y-73515000D01*
X84921039Y-73524755D01*
X84918194Y-73534134D01*
X84913573Y-73542779D01*
X84907355Y-73550355D01*
X84899779Y-73556573D01*
X84891134Y-73561194D01*
X84881755Y-73564039D01*
X84872000Y-73565000D01*
X83072000Y-73565000D01*
X83071039Y-73574755D01*
X83068194Y-73584134D01*
X83063573Y-73592779D01*
X83057355Y-73600355D01*
X83049779Y-73606573D01*
X83041134Y-73611194D01*
X83031755Y-73614039D01*
X83022000Y-73615000D01*
X82402000Y-73615000D01*
X82392245Y-73614039D01*
G37*
G36*
G01*
X86352000Y-71215000D02*
X86352000Y-71615000D01*
G75*
G02*
X86302000Y-71665000I-50000J0D01*
G01*
X85472000Y-71665000D01*
G75*
G02*
X85422000Y-71615000I0J50000D01*
G01*
X85422000Y-71215000D01*
G75*
G02*
X85472000Y-71165000I50000J0D01*
G01*
X86302000Y-71165000D01*
G75*
G02*
X86352000Y-71215000I0J-50000D01*
G01*
G37*
G36*
G01*
X86352000Y-71865000D02*
X86352000Y-72265000D01*
G75*
G02*
X86302000Y-72315000I-50000J0D01*
G01*
X85472000Y-72315000D01*
G75*
G02*
X85422000Y-72265000I0J50000D01*
G01*
X85422000Y-71865000D01*
G75*
G02*
X85472000Y-71815000I50000J0D01*
G01*
X86302000Y-71815000D01*
G75*
G02*
X86352000Y-71865000I0J-50000D01*
G01*
G37*
G36*
G01*
X86352000Y-73165000D02*
X86352000Y-73565000D01*
G75*
G02*
X86302000Y-73615000I-50000J0D01*
G01*
X85472000Y-73615000D01*
G75*
G02*
X85422000Y-73565000I0J50000D01*
G01*
X85422000Y-73165000D01*
G75*
G02*
X85472000Y-73115000I50000J0D01*
G01*
X86302000Y-73115000D01*
G75*
G02*
X86352000Y-73165000I0J-50000D01*
G01*
G37*
G36*
G01*
X86352000Y-72515000D02*
X86352000Y-72915000D01*
G75*
G02*
X86302000Y-72965000I-50000J0D01*
G01*
X85472000Y-72965000D01*
G75*
G02*
X85422000Y-72915000I0J50000D01*
G01*
X85422000Y-72515000D01*
G75*
G02*
X85472000Y-72465000I50000J0D01*
G01*
X86302000Y-72465000D01*
G75*
G02*
X86352000Y-72515000I0J-50000D01*
G01*
G37*
%TD*%
%TO.C,Q1*%
G36*
X82392245Y-80980039D02*
G01*
X82382866Y-80977194D01*
X82374221Y-80972573D01*
X82366645Y-80966355D01*
X82360427Y-80958779D01*
X82355806Y-80950134D01*
X82352961Y-80940755D01*
X82352000Y-80931000D01*
X82352000Y-80531000D01*
X82352961Y-80521245D01*
X82355806Y-80511866D01*
X82360427Y-80503221D01*
X82366645Y-80495645D01*
X82374221Y-80489427D01*
X82382866Y-80484806D01*
X82392245Y-80481961D01*
X82402000Y-80481000D01*
X82972000Y-80481000D01*
X82972000Y-80331000D01*
X82402000Y-80331000D01*
X82392245Y-80330039D01*
X82382866Y-80327194D01*
X82374221Y-80322573D01*
X82366645Y-80316355D01*
X82360427Y-80308779D01*
X82355806Y-80300134D01*
X82352961Y-80290755D01*
X82352000Y-80281000D01*
X82352000Y-79881000D01*
X82352961Y-79871245D01*
X82355806Y-79861866D01*
X82360427Y-79853221D01*
X82366645Y-79845645D01*
X82374221Y-79839427D01*
X82382866Y-79834806D01*
X82392245Y-79831961D01*
X82402000Y-79831000D01*
X82972000Y-79831000D01*
X82972000Y-79681000D01*
X82402000Y-79681000D01*
X82392245Y-79680039D01*
X82382866Y-79677194D01*
X82374221Y-79672573D01*
X82366645Y-79666355D01*
X82360427Y-79658779D01*
X82355806Y-79650134D01*
X82352961Y-79640755D01*
X82352000Y-79631000D01*
X82352000Y-79231000D01*
X82352961Y-79221245D01*
X82355806Y-79211866D01*
X82360427Y-79203221D01*
X82366645Y-79195645D01*
X82374221Y-79189427D01*
X82382866Y-79184806D01*
X82392245Y-79181961D01*
X82402000Y-79181000D01*
X82972000Y-79181000D01*
X82972000Y-79031000D01*
X82402000Y-79031000D01*
X82392245Y-79030039D01*
X82382866Y-79027194D01*
X82374221Y-79022573D01*
X82366645Y-79016355D01*
X82360427Y-79008779D01*
X82355806Y-79000134D01*
X82352961Y-78990755D01*
X82352000Y-78981000D01*
X82352000Y-78581000D01*
X82352961Y-78571245D01*
X82355806Y-78561866D01*
X82360427Y-78553221D01*
X82366645Y-78545645D01*
X82374221Y-78539427D01*
X82382866Y-78534806D01*
X82392245Y-78531961D01*
X82402000Y-78531000D01*
X83022000Y-78531000D01*
X83031755Y-78531961D01*
X83041134Y-78534806D01*
X83049779Y-78539427D01*
X83057355Y-78545645D01*
X83063573Y-78553221D01*
X83068194Y-78561866D01*
X83071039Y-78571245D01*
X83072000Y-78581000D01*
X84872000Y-78581000D01*
X84881755Y-78581961D01*
X84891134Y-78584806D01*
X84899779Y-78589427D01*
X84907355Y-78595645D01*
X84913573Y-78603221D01*
X84918194Y-78611866D01*
X84921039Y-78621245D01*
X84922000Y-78631000D01*
X84922000Y-80881000D01*
X84921039Y-80890755D01*
X84918194Y-80900134D01*
X84913573Y-80908779D01*
X84907355Y-80916355D01*
X84899779Y-80922573D01*
X84891134Y-80927194D01*
X84881755Y-80930039D01*
X84872000Y-80931000D01*
X83072000Y-80931000D01*
X83071039Y-80940755D01*
X83068194Y-80950134D01*
X83063573Y-80958779D01*
X83057355Y-80966355D01*
X83049779Y-80972573D01*
X83041134Y-80977194D01*
X83031755Y-80980039D01*
X83022000Y-80981000D01*
X82402000Y-80981000D01*
X82392245Y-80980039D01*
G37*
G36*
G01*
X86352000Y-78581000D02*
X86352000Y-78981000D01*
G75*
G02*
X86302000Y-79031000I-50000J0D01*
G01*
X85472000Y-79031000D01*
G75*
G02*
X85422000Y-78981000I0J50000D01*
G01*
X85422000Y-78581000D01*
G75*
G02*
X85472000Y-78531000I50000J0D01*
G01*
X86302000Y-78531000D01*
G75*
G02*
X86352000Y-78581000I0J-50000D01*
G01*
G37*
G36*
G01*
X86352000Y-79231000D02*
X86352000Y-79631000D01*
G75*
G02*
X86302000Y-79681000I-50000J0D01*
G01*
X85472000Y-79681000D01*
G75*
G02*
X85422000Y-79631000I0J50000D01*
G01*
X85422000Y-79231000D01*
G75*
G02*
X85472000Y-79181000I50000J0D01*
G01*
X86302000Y-79181000D01*
G75*
G02*
X86352000Y-79231000I0J-50000D01*
G01*
G37*
G36*
G01*
X86352000Y-80531000D02*
X86352000Y-80931000D01*
G75*
G02*
X86302000Y-80981000I-50000J0D01*
G01*
X85472000Y-80981000D01*
G75*
G02*
X85422000Y-80931000I0J50000D01*
G01*
X85422000Y-80531000D01*
G75*
G02*
X85472000Y-80481000I50000J0D01*
G01*
X86302000Y-80481000D01*
G75*
G02*
X86352000Y-80531000I0J-50000D01*
G01*
G37*
G36*
G01*
X86352000Y-79881000D02*
X86352000Y-80281000D01*
G75*
G02*
X86302000Y-80331000I-50000J0D01*
G01*
X85472000Y-80331000D01*
G75*
G02*
X85422000Y-80281000I0J50000D01*
G01*
X85422000Y-79881000D01*
G75*
G02*
X85472000Y-79831000I50000J0D01*
G01*
X86302000Y-79831000D01*
G75*
G02*
X86352000Y-79881000I0J-50000D01*
G01*
G37*
%TD*%
D18*
%TO.C,J2*%
X154825000Y-57633000D03*
X154825000Y-60173000D03*
X154825000Y-62713000D03*
X154825000Y-65253000D03*
X157365000Y-58903000D03*
X157365000Y-61443000D03*
X157365000Y-63983000D03*
X157365000Y-66523000D03*
D19*
X163715000Y-56363000D03*
X163715000Y-67793000D03*
D20*
X168795000Y-58293000D03*
X167005000Y-65863000D03*
X167005000Y-55753000D03*
X168795000Y-68403000D03*
D21*
X160665000Y-69953000D03*
X160665000Y-54203000D03*
%TD*%
D22*
%TO.C,J1*%
X149765000Y-63945000D03*
X151765000Y-63945000D03*
X149765000Y-65945000D03*
X151765000Y-65945000D03*
X149765000Y-67945000D03*
D23*
X151765000Y-67945000D03*
%TD*%
D16*
%TO.C,Conn11*%
X123698000Y-59690000D03*
X126746000Y-59690000D03*
D24*
X125222000Y-55372000D03*
%TD*%
D16*
%TO.C,Conn10*%
X116078000Y-59690000D03*
X119126000Y-59690000D03*
D24*
X117602000Y-55372000D03*
%TD*%
D16*
%TO.C,Conn9*%
X168402000Y-95758000D03*
D24*
X172720000Y-92710000D03*
D16*
X168402000Y-92710000D03*
X168402000Y-89662000D03*
%TD*%
%TO.C,Conn8*%
X108458000Y-59690000D03*
X111506000Y-59690000D03*
D24*
X109982000Y-55372000D03*
%TD*%
D16*
%TO.C,Conn7*%
X100838000Y-59690000D03*
X103886000Y-59690000D03*
D24*
X102362000Y-55372000D03*
%TD*%
D16*
%TO.C,Conn6*%
X168402000Y-81534000D03*
D24*
X172720000Y-78486000D03*
D16*
X168402000Y-78486000D03*
X168402000Y-75438000D03*
%TD*%
%TO.C,Conn5*%
X93218000Y-59690000D03*
X96266000Y-59690000D03*
D24*
X94742000Y-55372000D03*
%TD*%
D16*
%TO.C,Conn4*%
X85598000Y-59690000D03*
X88646000Y-59690000D03*
D24*
X87122000Y-55372000D03*
%TD*%
D16*
%TO.C,Conn3*%
X132842000Y-59690000D03*
X135890000Y-59690000D03*
D24*
X135890000Y-55372000D03*
D16*
X138938000Y-59690000D03*
%TD*%
D25*
%TO.C,Conn2*%
X56896000Y-69850000D03*
X64770000Y-69850000D03*
X72644000Y-69850000D03*
%TD*%
%TO.C,C13*%
G36*
G01*
X93897500Y-69833500D02*
X93897500Y-69358500D01*
G75*
G02*
X94135000Y-69121000I237500J0D01*
G01*
X94735000Y-69121000D01*
G75*
G02*
X94972500Y-69358500I0J-237500D01*
G01*
X94972500Y-69833500D01*
G75*
G02*
X94735000Y-70071000I-237500J0D01*
G01*
X94135000Y-70071000D01*
G75*
G02*
X93897500Y-69833500I0J237500D01*
G01*
G37*
G36*
G01*
X92172500Y-69833500D02*
X92172500Y-69358500D01*
G75*
G02*
X92410000Y-69121000I237500J0D01*
G01*
X93010000Y-69121000D01*
G75*
G02*
X93247500Y-69358500I0J-237500D01*
G01*
X93247500Y-69833500D01*
G75*
G02*
X93010000Y-70071000I-237500J0D01*
G01*
X92410000Y-70071000D01*
G75*
G02*
X92172500Y-69833500I0J237500D01*
G01*
G37*
%TD*%
%TO.C,C12*%
G36*
G01*
X100401000Y-67039500D02*
X100401000Y-66564500D01*
G75*
G02*
X100638500Y-66327000I237500J0D01*
G01*
X101238500Y-66327000D01*
G75*
G02*
X101476000Y-66564500I0J-237500D01*
G01*
X101476000Y-67039500D01*
G75*
G02*
X101238500Y-67277000I-237500J0D01*
G01*
X100638500Y-67277000D01*
G75*
G02*
X100401000Y-67039500I0J237500D01*
G01*
G37*
G36*
G01*
X98676000Y-67039500D02*
X98676000Y-66564500D01*
G75*
G02*
X98913500Y-66327000I237500J0D01*
G01*
X99513500Y-66327000D01*
G75*
G02*
X99751000Y-66564500I0J-237500D01*
G01*
X99751000Y-67039500D01*
G75*
G02*
X99513500Y-67277000I-237500J0D01*
G01*
X98913500Y-67277000D01*
G75*
G02*
X98676000Y-67039500I0J237500D01*
G01*
G37*
%TD*%
%TO.C,C11*%
G36*
G01*
X93950500Y-77199500D02*
X93950500Y-76724500D01*
G75*
G02*
X94188000Y-76487000I237500J0D01*
G01*
X94788000Y-76487000D01*
G75*
G02*
X95025500Y-76724500I0J-237500D01*
G01*
X95025500Y-77199500D01*
G75*
G02*
X94788000Y-77437000I-237500J0D01*
G01*
X94188000Y-77437000D01*
G75*
G02*
X93950500Y-77199500I0J237500D01*
G01*
G37*
G36*
G01*
X92225500Y-77199500D02*
X92225500Y-76724500D01*
G75*
G02*
X92463000Y-76487000I237500J0D01*
G01*
X93063000Y-76487000D01*
G75*
G02*
X93300500Y-76724500I0J-237500D01*
G01*
X93300500Y-77199500D01*
G75*
G02*
X93063000Y-77437000I-237500J0D01*
G01*
X92463000Y-77437000D01*
G75*
G02*
X92225500Y-77199500I0J237500D01*
G01*
G37*
%TD*%
%TO.C,C10*%
G36*
G01*
X100247500Y-74659500D02*
X100247500Y-74184500D01*
G75*
G02*
X100485000Y-73947000I237500J0D01*
G01*
X101085000Y-73947000D01*
G75*
G02*
X101322500Y-74184500I0J-237500D01*
G01*
X101322500Y-74659500D01*
G75*
G02*
X101085000Y-74897000I-237500J0D01*
G01*
X100485000Y-74897000D01*
G75*
G02*
X100247500Y-74659500I0J237500D01*
G01*
G37*
G36*
G01*
X98522500Y-74659500D02*
X98522500Y-74184500D01*
G75*
G02*
X98760000Y-73947000I237500J0D01*
G01*
X99360000Y-73947000D01*
G75*
G02*
X99597500Y-74184500I0J-237500D01*
G01*
X99597500Y-74659500D01*
G75*
G02*
X99360000Y-74897000I-237500J0D01*
G01*
X98760000Y-74897000D01*
G75*
G02*
X98522500Y-74659500I0J237500D01*
G01*
G37*
%TD*%
%TO.C,C9*%
G36*
G01*
X90694500Y-86330500D02*
X91169500Y-86330500D01*
G75*
G02*
X91407000Y-86568000I0J-237500D01*
G01*
X91407000Y-87168000D01*
G75*
G02*
X91169500Y-87405500I-237500J0D01*
G01*
X90694500Y-87405500D01*
G75*
G02*
X90457000Y-87168000I0J237500D01*
G01*
X90457000Y-86568000D01*
G75*
G02*
X90694500Y-86330500I237500J0D01*
G01*
G37*
G36*
G01*
X90694500Y-84605500D02*
X91169500Y-84605500D01*
G75*
G02*
X91407000Y-84843000I0J-237500D01*
G01*
X91407000Y-85443000D01*
G75*
G02*
X91169500Y-85680500I-237500J0D01*
G01*
X90694500Y-85680500D01*
G75*
G02*
X90457000Y-85443000I0J237500D01*
G01*
X90457000Y-84843000D01*
G75*
G02*
X90694500Y-84605500I237500J0D01*
G01*
G37*
%TD*%
%TO.C,C8*%
G36*
G01*
X100427500Y-82025500D02*
X100427500Y-81550500D01*
G75*
G02*
X100665000Y-81313000I237500J0D01*
G01*
X101265000Y-81313000D01*
G75*
G02*
X101502500Y-81550500I0J-237500D01*
G01*
X101502500Y-82025500D01*
G75*
G02*
X101265000Y-82263000I-237500J0D01*
G01*
X100665000Y-82263000D01*
G75*
G02*
X100427500Y-82025500I0J237500D01*
G01*
G37*
G36*
G01*
X98702500Y-82025500D02*
X98702500Y-81550500D01*
G75*
G02*
X98940000Y-81313000I237500J0D01*
G01*
X99540000Y-81313000D01*
G75*
G02*
X99777500Y-81550500I0J-237500D01*
G01*
X99777500Y-82025500D01*
G75*
G02*
X99540000Y-82263000I-237500J0D01*
G01*
X98940000Y-82263000D01*
G75*
G02*
X98702500Y-82025500I0J237500D01*
G01*
G37*
%TD*%
%TO.C,C7*%
G36*
G01*
X81732000Y-89899500D02*
X81732000Y-89424500D01*
G75*
G02*
X81969500Y-89187000I237500J0D01*
G01*
X82569500Y-89187000D01*
G75*
G02*
X82807000Y-89424500I0J-237500D01*
G01*
X82807000Y-89899500D01*
G75*
G02*
X82569500Y-90137000I-237500J0D01*
G01*
X81969500Y-90137000D01*
G75*
G02*
X81732000Y-89899500I0J237500D01*
G01*
G37*
G36*
G01*
X80007000Y-89899500D02*
X80007000Y-89424500D01*
G75*
G02*
X80244500Y-89187000I237500J0D01*
G01*
X80844500Y-89187000D01*
G75*
G02*
X81082000Y-89424500I0J-237500D01*
G01*
X81082000Y-89899500D01*
G75*
G02*
X80844500Y-90137000I-237500J0D01*
G01*
X80244500Y-90137000D01*
G75*
G02*
X80007000Y-89899500I0J237500D01*
G01*
G37*
%TD*%
%TO.C,C6*%
G36*
G01*
X81732000Y-87994500D02*
X81732000Y-87519500D01*
G75*
G02*
X81969500Y-87282000I237500J0D01*
G01*
X82569500Y-87282000D01*
G75*
G02*
X82807000Y-87519500I0J-237500D01*
G01*
X82807000Y-87994500D01*
G75*
G02*
X82569500Y-88232000I-237500J0D01*
G01*
X81969500Y-88232000D01*
G75*
G02*
X81732000Y-87994500I0J237500D01*
G01*
G37*
G36*
G01*
X80007000Y-87994500D02*
X80007000Y-87519500D01*
G75*
G02*
X80244500Y-87282000I237500J0D01*
G01*
X80844500Y-87282000D01*
G75*
G02*
X81082000Y-87519500I0J-237500D01*
G01*
X81082000Y-87994500D01*
G75*
G02*
X80844500Y-88232000I-237500J0D01*
G01*
X80244500Y-88232000D01*
G75*
G02*
X80007000Y-87994500I0J237500D01*
G01*
G37*
%TD*%
%TO.C,C5*%
G36*
G01*
X61677500Y-75708500D02*
X61677500Y-76183500D01*
G75*
G02*
X61440000Y-76421000I-237500J0D01*
G01*
X60840000Y-76421000D01*
G75*
G02*
X60602500Y-76183500I0J237500D01*
G01*
X60602500Y-75708500D01*
G75*
G02*
X60840000Y-75471000I237500J0D01*
G01*
X61440000Y-75471000D01*
G75*
G02*
X61677500Y-75708500I0J-237500D01*
G01*
G37*
G36*
G01*
X63402500Y-75708500D02*
X63402500Y-76183500D01*
G75*
G02*
X63165000Y-76421000I-237500J0D01*
G01*
X62565000Y-76421000D01*
G75*
G02*
X62327500Y-76183500I0J237500D01*
G01*
X62327500Y-75708500D01*
G75*
G02*
X62565000Y-75471000I237500J0D01*
G01*
X63165000Y-75471000D01*
G75*
G02*
X63402500Y-75708500I0J-237500D01*
G01*
G37*
%TD*%
%TO.C,C4*%
G36*
G01*
X58121500Y-81169500D02*
X58121500Y-81644500D01*
G75*
G02*
X57884000Y-81882000I-237500J0D01*
G01*
X57284000Y-81882000D01*
G75*
G02*
X57046500Y-81644500I0J237500D01*
G01*
X57046500Y-81169500D01*
G75*
G02*
X57284000Y-80932000I237500J0D01*
G01*
X57884000Y-80932000D01*
G75*
G02*
X58121500Y-81169500I0J-237500D01*
G01*
G37*
G36*
G01*
X59846500Y-81169500D02*
X59846500Y-81644500D01*
G75*
G02*
X59609000Y-81882000I-237500J0D01*
G01*
X59009000Y-81882000D01*
G75*
G02*
X58771500Y-81644500I0J237500D01*
G01*
X58771500Y-81169500D01*
G75*
G02*
X59009000Y-80932000I237500J0D01*
G01*
X59609000Y-80932000D01*
G75*
G02*
X59846500Y-81169500I0J-237500D01*
G01*
G37*
%TD*%
%TO.C,C3*%
G36*
G01*
X58121500Y-79137500D02*
X58121500Y-79612500D01*
G75*
G02*
X57884000Y-79850000I-237500J0D01*
G01*
X57284000Y-79850000D01*
G75*
G02*
X57046500Y-79612500I0J237500D01*
G01*
X57046500Y-79137500D01*
G75*
G02*
X57284000Y-78900000I237500J0D01*
G01*
X57884000Y-78900000D01*
G75*
G02*
X58121500Y-79137500I0J-237500D01*
G01*
G37*
G36*
G01*
X59846500Y-79137500D02*
X59846500Y-79612500D01*
G75*
G02*
X59609000Y-79850000I-237500J0D01*
G01*
X59009000Y-79850000D01*
G75*
G02*
X58771500Y-79612500I0J237500D01*
G01*
X58771500Y-79137500D01*
G75*
G02*
X59009000Y-78900000I237500J0D01*
G01*
X59609000Y-78900000D01*
G75*
G02*
X59846500Y-79137500I0J-237500D01*
G01*
G37*
%TD*%
%TO.C,C2*%
G36*
G01*
X61677500Y-77232500D02*
X61677500Y-77707500D01*
G75*
G02*
X61440000Y-77945000I-237500J0D01*
G01*
X60840000Y-77945000D01*
G75*
G02*
X60602500Y-77707500I0J237500D01*
G01*
X60602500Y-77232500D01*
G75*
G02*
X60840000Y-76995000I237500J0D01*
G01*
X61440000Y-76995000D01*
G75*
G02*
X61677500Y-77232500I0J-237500D01*
G01*
G37*
G36*
G01*
X63402500Y-77232500D02*
X63402500Y-77707500D01*
G75*
G02*
X63165000Y-77945000I-237500J0D01*
G01*
X62565000Y-77945000D01*
G75*
G02*
X62327500Y-77707500I0J237500D01*
G01*
X62327500Y-77232500D01*
G75*
G02*
X62565000Y-76995000I237500J0D01*
G01*
X63165000Y-76995000D01*
G75*
G02*
X63402500Y-77232500I0J-237500D01*
G01*
G37*
%TD*%
%TO.C,C1*%
G36*
G01*
X150984000Y-56181000D02*
X150984000Y-55706000D01*
G75*
G02*
X151221500Y-55468500I237500J0D01*
G01*
X151821500Y-55468500D01*
G75*
G02*
X152059000Y-55706000I0J-237500D01*
G01*
X152059000Y-56181000D01*
G75*
G02*
X151821500Y-56418500I-237500J0D01*
G01*
X151221500Y-56418500D01*
G75*
G02*
X150984000Y-56181000I0J237500D01*
G01*
G37*
G36*
G01*
X149259000Y-56181000D02*
X149259000Y-55706000D01*
G75*
G02*
X149496500Y-55468500I237500J0D01*
G01*
X150096500Y-55468500D01*
G75*
G02*
X150334000Y-55706000I0J-237500D01*
G01*
X150334000Y-56181000D01*
G75*
G02*
X150096500Y-56418500I-237500J0D01*
G01*
X149496500Y-56418500D01*
G75*
G02*
X149259000Y-56181000I0J237500D01*
G01*
G37*
%TD*%
M02*
