M48
; DRILL file {KiCad (6.0.10)} date Wed Dec 28 18:35:16 2022
; FORMAT={-:-/ absolute / metric / decimal}
; #@! TF.CreationDate,2022-12-28T18:35:16-06:00
; #@! TF.GenerationSoftware,Kicad,Pcbnew,(6.0.10)
; #@! TF.FileFunction,Plated,1,2,PTH
FMAT,2
METRIC
; #@! TA.AperFunction,Plated,PTH,ViaDrill
T1C0.400
; #@! TA.AperFunction,Plated,PTH,ComponentDrill
T2C0.800
; #@! TA.AperFunction,Plated,PTH,ComponentDrill
T3C0.889
; #@! TA.AperFunction,Plated,PTH,ComponentDrill
T4C0.900
; #@! TA.AperFunction,Plated,PTH,ComponentDrill
T5C1.020
; #@! TA.AperFunction,Plated,PTH,ComponentDrill
T6C1.600
; #@! TA.AperFunction,Plated,PTH,ComponentDrill
T7C2.000
; #@! TA.AperFunction,Plated,PTH,ComponentDrill
T8C3.250
%
G90
G05
T1
X54.61Y-78.105
X55.88Y-88.9
X57.785Y-76.581
X57.785Y-85.471
X58.928Y-129.794
X61.595Y-80.391
X65.024Y-77.978
X65.024Y-79.756
X66.294Y-88.9
X67.945Y-100.711
X68.199Y-76.581
X68.199Y-85.471
X69.596Y-129.794
X72.009Y-80.518
X75.311Y-77.851
X75.311Y-79.629
X76.708Y-88.773
X78.482Y-100.711
X78.613Y-76.581
X78.613Y-85.471
X79.248Y-119.507
X80.391Y-129.794
X82.296Y-80.645
X85.725Y-77.851
X85.725Y-79.629
X87.122Y-88.773
X88.9Y-100.584
X89.027Y-76.454
X89.027Y-85.471
X90.932Y-129.794
X92.71Y-80.518
X96.139Y-77.724
X96.139Y-79.502
X97.536Y-88.773
X99.314Y-100.711
X99.441Y-76.454
X99.441Y-85.471
X101.6Y-129.794
X103.124Y-80.518
X106.419Y-77.722
X106.426Y-79.502
X107.95Y-88.773
X109.601Y-76.454
X109.728Y-100.711
X109.855Y-85.471
X112.395Y-129.794
X113.538Y-80.518
X116.967Y-77.724
X116.967Y-79.375
X118.491Y-88.773
X120.142Y-100.838
X120.396Y-76.454
X120.396Y-85.471
X122.936Y-129.794
X124.079Y-80.518
X127.381Y-77.724
X127.381Y-79.502
X128.778Y-88.773
X130.556Y-100.711
X130.683Y-76.454
X130.683Y-85.471
X133.477Y-129.794
X134.366Y-80.518
X137.795Y-77.724
X137.795Y-79.502
X139.192Y-88.773
X140.97Y-100.711
X141.097Y-76.454
X141.097Y-85.471
X144.272Y-129.794
X144.78Y-80.645
X148.209Y-77.724
X148.209Y-79.502
X149.606Y-88.773
X151.003Y-100.711
X151.511Y-76.454
X151.511Y-85.471
X151.772Y-115.316
X154.559Y-115.316
X154.94Y-129.794
X155.194Y-80.518
X157.099Y-115.316
X158.623Y-77.724
X158.623Y-79.502
X159.512Y-115.316
X160.02Y-88.773
X161.798Y-100.711
X161.925Y-76.454
X161.925Y-85.471
X162.052Y-115.316
X164.973Y-115.316
X165.481Y-112.522
X165.481Y-129.794
X165.608Y-80.518
X168.148Y-115.316
X168.275Y-112.522
X169.037Y-77.724
X169.037Y-79.502
X170.434Y-88.646
X171.069Y-115.316
X171.196Y-112.522
X171.958Y-100.584
X172.339Y-76.454
X172.339Y-85.471
X173.99Y-115.316
X174.117Y-112.522
X176.022Y-80.518
X176.403Y-129.794
X176.784Y-115.316
X176.911Y-112.522
X179.324Y-77.597
X179.324Y-79.375
X179.324Y-82.042
X179.324Y-83.947
X179.705Y-112.522
X179.705Y-115.316
X182.372Y-95.504
X182.372Y-112.522
X182.372Y-115.316
X185.039Y-95.504
X187.96Y-95.504
T2
X79.137Y-110.395
X79.137Y-112.395
X79.137Y-114.395
X81.137Y-110.395
X81.137Y-112.395
X81.137Y-114.395
X87.661Y-108.98
X87.661Y-124.219
X90.201Y-108.98
X90.201Y-124.219
X92.741Y-108.98
X92.741Y-124.219
X95.281Y-108.98
X95.281Y-124.219
X97.821Y-108.98
X97.821Y-124.219
X100.361Y-108.98
X100.361Y-124.219
X102.901Y-108.98
X102.901Y-124.219
X105.441Y-108.98
X105.441Y-124.219
X107.981Y-108.98
X107.981Y-124.219
X110.521Y-108.98
X110.521Y-124.219
X113.061Y-108.98
X113.061Y-124.219
X115.601Y-108.98
X115.601Y-124.219
X118.141Y-108.98
X118.141Y-124.219
X120.681Y-108.98
X120.681Y-124.219
X123.221Y-108.98
X123.221Y-124.219
X125.761Y-108.98
X125.761Y-124.219
X128.301Y-108.98
X128.301Y-124.219
X130.841Y-108.98
X130.841Y-124.219
X133.381Y-108.98
X133.381Y-124.219
X135.921Y-108.98
X135.921Y-124.219
X138.461Y-108.98
X138.461Y-124.219
X141.001Y-108.98
X141.001Y-124.219
X143.541Y-108.98
X143.541Y-124.219
X146.081Y-108.98
X146.081Y-124.219
T3
X184.912Y-80.264
X187.452Y-80.264
X189.992Y-80.264
T4
X53.848Y-134.62
X56.388Y-134.62
X58.928Y-134.62
X61.595Y-90.019
X61.595Y-96.877
X64.135Y-90.019
X64.135Y-96.877
X64.516Y-134.62
X67.056Y-134.62
X69.596Y-134.62
X72.009Y-90.019
X72.009Y-96.877
X73.452Y-111.76
X73.452Y-114.3
X73.452Y-116.84
X73.452Y-119.38
X74.549Y-90.019
X74.549Y-96.877
X75.184Y-134.62
X75.992Y-113.03
X75.992Y-115.57
X75.992Y-118.11
X75.992Y-120.65
X77.724Y-134.62
X80.264Y-134.62
X82.423Y-90.019
X82.423Y-96.877
X84.963Y-90.019
X84.963Y-96.877
X85.852Y-134.62
X88.392Y-134.62
X90.932Y-134.62
X92.837Y-90.019
X92.837Y-96.877
X95.377Y-90.019
X95.377Y-96.877
X96.52Y-134.62
X99.06Y-134.62
X101.6Y-134.62
X103.251Y-90.019
X103.251Y-96.877
X105.791Y-90.019
X105.791Y-96.877
X107.188Y-134.62
X109.728Y-134.62
X112.268Y-134.62
X113.665Y-90.019
X113.665Y-96.877
X116.205Y-90.019
X116.205Y-96.877
X117.856Y-134.62
X120.396Y-134.62
X122.936Y-134.62
X124.079Y-90.019
X124.079Y-96.877
X126.619Y-90.019
X126.619Y-96.877
X128.524Y-134.62
X131.064Y-134.62
X133.604Y-134.62
X134.493Y-90.019
X134.493Y-96.877
X137.033Y-90.019
X137.033Y-96.877
X139.192Y-134.62
X141.732Y-134.62
X144.272Y-134.62
X144.907Y-90.019
X144.907Y-96.877
X147.447Y-90.019
X147.447Y-96.877
X149.86Y-134.62
X152.4Y-134.62
X154.94Y-134.62
X155.321Y-90.018
X155.321Y-96.876
X157.861Y-90.018
X157.861Y-96.876
X160.528Y-134.62
X163.068Y-134.62
X165.608Y-134.62
X165.735Y-90.018
X165.735Y-96.876
X168.275Y-90.018
X168.275Y-96.876
X171.196Y-134.62
X173.736Y-134.62
X176.149Y-90.018
X176.149Y-96.876
X176.276Y-134.62
X178.689Y-90.018
X178.689Y-96.876
T5
X62.022Y-109.88
X62.022Y-119.99
X63.812Y-112.42
X63.812Y-122.53
T6
X70.152Y-108.33
X70.152Y-124.08
T8
X67.102Y-110.49
X67.102Y-121.92
T7
G00X66.935Y-59.825
M15
G01X66.935Y-61.925
M16
G05
G00X66.935Y-67.699
M15
G01X66.935Y-69.799
M16
G05
T0
M30
