%TF.GenerationSoftware,KiCad,Pcbnew,(5.1.10)-1*%
%TF.CreationDate,2022-03-14T21:27:58-05:00*%
%TF.ProjectId,hardware,68617264-7761-4726-952e-6b696361645f,rev?*%
%TF.SameCoordinates,Original*%
%TF.FileFunction,Paste,Top*%
%TF.FilePolarity,Positive*%
%FSLAX46Y46*%
G04 Gerber Fmt 4.6, Leading zero omitted, Abs format (unit mm)*
G04 Created by KiCad (PCBNEW (5.1.10)-1) date 2022-03-14 21:27:58*
%MOMM*%
%LPD*%
G01*
G04 APERTURE LIST*
%ADD10C,0.100000*%
%ADD11C,0.150000*%
%ADD12C,0.300000*%
%ADD13C,0.400000*%
%ADD14R,1.550000X0.600000*%
%ADD15R,0.750000X0.300000*%
%ADD16R,0.830000X0.300000*%
%ADD17R,0.510000X0.635000*%
G04 APERTURE END LIST*
D10*
D11*
X177002200Y-166007200D02*
X177002200Y-198007200D01*
X285002200Y-198007200D01*
X285002200Y-166007200D01*
X177002200Y-166007200D01*
D10*
D11*
X10000000Y-10000000D02*
X10000000Y-200007200D01*
X287002200Y-200007200D01*
X287002200Y-10000000D01*
X10000000Y-10000000D01*
D10*
D11*
X12000000Y-12000000D02*
X12000000Y-198007200D01*
X285002200Y-198007200D01*
X285002200Y-12000000D01*
X12000000Y-12000000D01*
D10*
D11*
X60000000Y-12000000D02*
X60000000Y-10000000D01*
D10*
D11*
X110000000Y-12000000D02*
X110000000Y-10000000D01*
D10*
D11*
X160000000Y-12000000D02*
X160000000Y-10000000D01*
D10*
D11*
X210000000Y-12000000D02*
X210000000Y-10000000D01*
D10*
D11*
X260000000Y-12000000D02*
X260000000Y-10000000D01*
D10*
D11*
X36065476Y-11588095D02*
X35322619Y-11588095D01*
X35694047Y-11588095D02*
X35694047Y-10288095D01*
X35570238Y-10473809D01*
X35446428Y-10597619D01*
X35322619Y-10659523D01*
D10*
D11*
X85322619Y-10411904D02*
X85384523Y-10350000D01*
X85508333Y-10288095D01*
X85817857Y-10288095D01*
X85941666Y-10350000D01*
X86003571Y-10411904D01*
X86065476Y-10535714D01*
X86065476Y-10659523D01*
X86003571Y-10845238D01*
X85260714Y-11588095D01*
X86065476Y-11588095D01*
D10*
D11*
X135260714Y-10288095D02*
X136065476Y-10288095D01*
X135632142Y-10783333D01*
X135817857Y-10783333D01*
X135941666Y-10845238D01*
X136003571Y-10907142D01*
X136065476Y-11030952D01*
X136065476Y-11340476D01*
X136003571Y-11464285D01*
X135941666Y-11526190D01*
X135817857Y-11588095D01*
X135446428Y-11588095D01*
X135322619Y-11526190D01*
X135260714Y-11464285D01*
D10*
D11*
X185941666Y-10721428D02*
X185941666Y-11588095D01*
X185632142Y-10226190D02*
X185322619Y-11154761D01*
X186127380Y-11154761D01*
D10*
D11*
X236003571Y-10288095D02*
X235384523Y-10288095D01*
X235322619Y-10907142D01*
X235384523Y-10845238D01*
X235508333Y-10783333D01*
X235817857Y-10783333D01*
X235941666Y-10845238D01*
X236003571Y-10907142D01*
X236065476Y-11030952D01*
X236065476Y-11340476D01*
X236003571Y-11464285D01*
X235941666Y-11526190D01*
X235817857Y-11588095D01*
X235508333Y-11588095D01*
X235384523Y-11526190D01*
X235322619Y-11464285D01*
D10*
D11*
X285941666Y-10288095D02*
X285694047Y-10288095D01*
X285570238Y-10350000D01*
X285508333Y-10411904D01*
X285384523Y-10597619D01*
X285322619Y-10845238D01*
X285322619Y-11340476D01*
X285384523Y-11464285D01*
X285446428Y-11526190D01*
X285570238Y-11588095D01*
X285817857Y-11588095D01*
X285941666Y-11526190D01*
X286003571Y-11464285D01*
X286065476Y-11340476D01*
X286065476Y-11030952D01*
X286003571Y-10907142D01*
X285941666Y-10845238D01*
X285817857Y-10783333D01*
X285570238Y-10783333D01*
X285446428Y-10845238D01*
X285384523Y-10907142D01*
X285322619Y-11030952D01*
D10*
D11*
X60000000Y-198007200D02*
X60000000Y-200007200D01*
D10*
D11*
X110000000Y-198007200D02*
X110000000Y-200007200D01*
D10*
D11*
X160000000Y-198007200D02*
X160000000Y-200007200D01*
D10*
D11*
X210000000Y-198007200D02*
X210000000Y-200007200D01*
D10*
D11*
X260000000Y-198007200D02*
X260000000Y-200007200D01*
D10*
D11*
X36065476Y-199595295D02*
X35322619Y-199595295D01*
X35694047Y-199595295D02*
X35694047Y-198295295D01*
X35570238Y-198481009D01*
X35446428Y-198604819D01*
X35322619Y-198666723D01*
D10*
D11*
X85322619Y-198419104D02*
X85384523Y-198357200D01*
X85508333Y-198295295D01*
X85817857Y-198295295D01*
X85941666Y-198357200D01*
X86003571Y-198419104D01*
X86065476Y-198542914D01*
X86065476Y-198666723D01*
X86003571Y-198852438D01*
X85260714Y-199595295D01*
X86065476Y-199595295D01*
D10*
D11*
X135260714Y-198295295D02*
X136065476Y-198295295D01*
X135632142Y-198790533D01*
X135817857Y-198790533D01*
X135941666Y-198852438D01*
X136003571Y-198914342D01*
X136065476Y-199038152D01*
X136065476Y-199347676D01*
X136003571Y-199471485D01*
X135941666Y-199533390D01*
X135817857Y-199595295D01*
X135446428Y-199595295D01*
X135322619Y-199533390D01*
X135260714Y-199471485D01*
D10*
D11*
X185941666Y-198728628D02*
X185941666Y-199595295D01*
X185632142Y-198233390D02*
X185322619Y-199161961D01*
X186127380Y-199161961D01*
D10*
D11*
X236003571Y-198295295D02*
X235384523Y-198295295D01*
X235322619Y-198914342D01*
X235384523Y-198852438D01*
X235508333Y-198790533D01*
X235817857Y-198790533D01*
X235941666Y-198852438D01*
X236003571Y-198914342D01*
X236065476Y-199038152D01*
X236065476Y-199347676D01*
X236003571Y-199471485D01*
X235941666Y-199533390D01*
X235817857Y-199595295D01*
X235508333Y-199595295D01*
X235384523Y-199533390D01*
X235322619Y-199471485D01*
D10*
D11*
X285941666Y-198295295D02*
X285694047Y-198295295D01*
X285570238Y-198357200D01*
X285508333Y-198419104D01*
X285384523Y-198604819D01*
X285322619Y-198852438D01*
X285322619Y-199347676D01*
X285384523Y-199471485D01*
X285446428Y-199533390D01*
X285570238Y-199595295D01*
X285817857Y-199595295D01*
X285941666Y-199533390D01*
X286003571Y-199471485D01*
X286065476Y-199347676D01*
X286065476Y-199038152D01*
X286003571Y-198914342D01*
X285941666Y-198852438D01*
X285817857Y-198790533D01*
X285570238Y-198790533D01*
X285446428Y-198852438D01*
X285384523Y-198914342D01*
X285322619Y-199038152D01*
D10*
D11*
X10000000Y-60000000D02*
X12000000Y-60000000D01*
D10*
D11*
X10000000Y-110000000D02*
X12000000Y-110000000D01*
D10*
D11*
X10000000Y-160000000D02*
X12000000Y-160000000D01*
D10*
D11*
X10690476Y-35216666D02*
X11309523Y-35216666D01*
X10566666Y-35588095D02*
X11000000Y-34288095D01*
X11433333Y-35588095D01*
D10*
D11*
X11092857Y-84907142D02*
X11278571Y-84969047D01*
X11340476Y-85030952D01*
X11402380Y-85154761D01*
X11402380Y-85340476D01*
X11340476Y-85464285D01*
X11278571Y-85526190D01*
X11154761Y-85588095D01*
X10659523Y-85588095D01*
X10659523Y-84288095D01*
X11092857Y-84288095D01*
X11216666Y-84350000D01*
X11278571Y-84411904D01*
X11340476Y-84535714D01*
X11340476Y-84659523D01*
X11278571Y-84783333D01*
X11216666Y-84845238D01*
X11092857Y-84907142D01*
X10659523Y-84907142D01*
D10*
D11*
X11402380Y-135464285D02*
X11340476Y-135526190D01*
X11154761Y-135588095D01*
X11030952Y-135588095D01*
X10845238Y-135526190D01*
X10721428Y-135402380D01*
X10659523Y-135278571D01*
X10597619Y-135030952D01*
X10597619Y-134845238D01*
X10659523Y-134597619D01*
X10721428Y-134473809D01*
X10845238Y-134350000D01*
X11030952Y-134288095D01*
X11154761Y-134288095D01*
X11340476Y-134350000D01*
X11402380Y-134411904D01*
D10*
D11*
X10659523Y-185588095D02*
X10659523Y-184288095D01*
X10969047Y-184288095D01*
X11154761Y-184350000D01*
X11278571Y-184473809D01*
X11340476Y-184597619D01*
X11402380Y-184845238D01*
X11402380Y-185030952D01*
X11340476Y-185278571D01*
X11278571Y-185402380D01*
X11154761Y-185526190D01*
X10969047Y-185588095D01*
X10659523Y-185588095D01*
D10*
D11*
X287002200Y-60000000D02*
X285002200Y-60000000D01*
D10*
D11*
X287002200Y-110000000D02*
X285002200Y-110000000D01*
D10*
D11*
X287002200Y-160000000D02*
X285002200Y-160000000D01*
D10*
D11*
X285692676Y-35216666D02*
X286311723Y-35216666D01*
X285568866Y-35588095D02*
X286002200Y-34288095D01*
X286435533Y-35588095D01*
D10*
D11*
X286095057Y-84907142D02*
X286280771Y-84969047D01*
X286342676Y-85030952D01*
X286404580Y-85154761D01*
X286404580Y-85340476D01*
X286342676Y-85464285D01*
X286280771Y-85526190D01*
X286156961Y-85588095D01*
X285661723Y-85588095D01*
X285661723Y-84288095D01*
X286095057Y-84288095D01*
X286218866Y-84350000D01*
X286280771Y-84411904D01*
X286342676Y-84535714D01*
X286342676Y-84659523D01*
X286280771Y-84783333D01*
X286218866Y-84845238D01*
X286095057Y-84907142D01*
X285661723Y-84907142D01*
D10*
D11*
X286404580Y-135464285D02*
X286342676Y-135526190D01*
X286156961Y-135588095D01*
X286033152Y-135588095D01*
X285847438Y-135526190D01*
X285723628Y-135402380D01*
X285661723Y-135278571D01*
X285599819Y-135030952D01*
X285599819Y-134845238D01*
X285661723Y-134597619D01*
X285723628Y-134473809D01*
X285847438Y-134350000D01*
X286033152Y-134288095D01*
X286156961Y-134288095D01*
X286342676Y-134350000D01*
X286404580Y-134411904D01*
D10*
D11*
X285661723Y-185588095D02*
X285661723Y-184288095D01*
X285971247Y-184288095D01*
X286156961Y-184350000D01*
X286280771Y-184473809D01*
X286342676Y-184597619D01*
X286404580Y-184845238D01*
X286404580Y-185030952D01*
X286342676Y-185278571D01*
X286280771Y-185402380D01*
X286156961Y-185526190D01*
X285971247Y-185588095D01*
X285661723Y-185588095D01*
D10*
D11*
X200434342Y-193785771D02*
X200434342Y-192285771D01*
X200791485Y-192285771D01*
X201005771Y-192357200D01*
X201148628Y-192500057D01*
X201220057Y-192642914D01*
X201291485Y-192928628D01*
X201291485Y-193142914D01*
X201220057Y-193428628D01*
X201148628Y-193571485D01*
X201005771Y-193714342D01*
X200791485Y-193785771D01*
X200434342Y-193785771D01*
X202577200Y-193785771D02*
X202577200Y-193000057D01*
X202505771Y-192857200D01*
X202362914Y-192785771D01*
X202077200Y-192785771D01*
X201934342Y-192857200D01*
X202577200Y-193714342D02*
X202434342Y-193785771D01*
X202077200Y-193785771D01*
X201934342Y-193714342D01*
X201862914Y-193571485D01*
X201862914Y-193428628D01*
X201934342Y-193285771D01*
X202077200Y-193214342D01*
X202434342Y-193214342D01*
X202577200Y-193142914D01*
X203077200Y-192785771D02*
X203648628Y-192785771D01*
X203291485Y-192285771D02*
X203291485Y-193571485D01*
X203362914Y-193714342D01*
X203505771Y-193785771D01*
X203648628Y-193785771D01*
X204720057Y-193714342D02*
X204577200Y-193785771D01*
X204291485Y-193785771D01*
X204148628Y-193714342D01*
X204077200Y-193571485D01*
X204077200Y-193000057D01*
X204148628Y-192857200D01*
X204291485Y-192785771D01*
X204577200Y-192785771D01*
X204720057Y-192857200D01*
X204791485Y-193000057D01*
X204791485Y-193142914D01*
X204077200Y-193285771D01*
X205434342Y-193642914D02*
X205505771Y-193714342D01*
X205434342Y-193785771D01*
X205362914Y-193714342D01*
X205434342Y-193642914D01*
X205434342Y-193785771D01*
X205434342Y-192857200D02*
X205505771Y-192928628D01*
X205434342Y-193000057D01*
X205362914Y-192928628D01*
X205434342Y-192857200D01*
X205434342Y-193000057D01*
D10*
D11*
X177002200Y-194507200D02*
X285002200Y-194507200D01*
D10*
D11*
X178434342Y-196585771D02*
X178434342Y-195085771D01*
X179291485Y-196585771D02*
X178648628Y-195728628D01*
X179291485Y-195085771D02*
X178434342Y-195942914D01*
X179934342Y-196585771D02*
X179934342Y-195585771D01*
X179934342Y-195085771D02*
X179862914Y-195157200D01*
X179934342Y-195228628D01*
X180005771Y-195157200D01*
X179934342Y-195085771D01*
X179934342Y-195228628D01*
X181505771Y-196442914D02*
X181434342Y-196514342D01*
X181220057Y-196585771D01*
X181077200Y-196585771D01*
X180862914Y-196514342D01*
X180720057Y-196371485D01*
X180648628Y-196228628D01*
X180577200Y-195942914D01*
X180577200Y-195728628D01*
X180648628Y-195442914D01*
X180720057Y-195300057D01*
X180862914Y-195157200D01*
X181077200Y-195085771D01*
X181220057Y-195085771D01*
X181434342Y-195157200D01*
X181505771Y-195228628D01*
X182791485Y-196585771D02*
X182791485Y-195800057D01*
X182720057Y-195657200D01*
X182577200Y-195585771D01*
X182291485Y-195585771D01*
X182148628Y-195657200D01*
X182791485Y-196514342D02*
X182648628Y-196585771D01*
X182291485Y-196585771D01*
X182148628Y-196514342D01*
X182077200Y-196371485D01*
X182077200Y-196228628D01*
X182148628Y-196085771D01*
X182291485Y-196014342D01*
X182648628Y-196014342D01*
X182791485Y-195942914D01*
X184148628Y-196585771D02*
X184148628Y-195085771D01*
X184148628Y-196514342D02*
X184005771Y-196585771D01*
X183720057Y-196585771D01*
X183577200Y-196514342D01*
X183505771Y-196442914D01*
X183434342Y-196300057D01*
X183434342Y-195871485D01*
X183505771Y-195728628D01*
X183577200Y-195657200D01*
X183720057Y-195585771D01*
X184005771Y-195585771D01*
X184148628Y-195657200D01*
X186005771Y-195800057D02*
X186505771Y-195800057D01*
X186720057Y-196585771D02*
X186005771Y-196585771D01*
X186005771Y-195085771D01*
X186720057Y-195085771D01*
X187362914Y-196442914D02*
X187434342Y-196514342D01*
X187362914Y-196585771D01*
X187291485Y-196514342D01*
X187362914Y-196442914D01*
X187362914Y-196585771D01*
X188077200Y-196585771D02*
X188077200Y-195085771D01*
X188434342Y-195085771D01*
X188648628Y-195157200D01*
X188791485Y-195300057D01*
X188862914Y-195442914D01*
X188934342Y-195728628D01*
X188934342Y-195942914D01*
X188862914Y-196228628D01*
X188791485Y-196371485D01*
X188648628Y-196514342D01*
X188434342Y-196585771D01*
X188077200Y-196585771D01*
X189577200Y-196442914D02*
X189648628Y-196514342D01*
X189577200Y-196585771D01*
X189505771Y-196514342D01*
X189577200Y-196442914D01*
X189577200Y-196585771D01*
X190220057Y-196157200D02*
X190934342Y-196157200D01*
X190077200Y-196585771D02*
X190577200Y-195085771D01*
X191077200Y-196585771D01*
X191577200Y-196442914D02*
X191648628Y-196514342D01*
X191577200Y-196585771D01*
X191505771Y-196514342D01*
X191577200Y-196442914D01*
X191577200Y-196585771D01*
X194577200Y-196585771D02*
X194577200Y-195085771D01*
X194720057Y-196014342D02*
X195148628Y-196585771D01*
X195148628Y-195585771D02*
X194577200Y-196157200D01*
X195791485Y-196585771D02*
X195791485Y-195585771D01*
X195791485Y-195085771D02*
X195720057Y-195157200D01*
X195791485Y-195228628D01*
X195862914Y-195157200D01*
X195791485Y-195085771D01*
X195791485Y-195228628D01*
X197148628Y-196514342D02*
X197005771Y-196585771D01*
X196720057Y-196585771D01*
X196577200Y-196514342D01*
X196505771Y-196442914D01*
X196434342Y-196300057D01*
X196434342Y-195871485D01*
X196505771Y-195728628D01*
X196577200Y-195657200D01*
X196720057Y-195585771D01*
X197005771Y-195585771D01*
X197148628Y-195657200D01*
X198434342Y-196585771D02*
X198434342Y-195800057D01*
X198362914Y-195657200D01*
X198220057Y-195585771D01*
X197934342Y-195585771D01*
X197791485Y-195657200D01*
X198434342Y-196514342D02*
X198291485Y-196585771D01*
X197934342Y-196585771D01*
X197791485Y-196514342D01*
X197720057Y-196371485D01*
X197720057Y-196228628D01*
X197791485Y-196085771D01*
X197934342Y-196014342D01*
X198291485Y-196014342D01*
X198434342Y-195942914D01*
X199791485Y-196585771D02*
X199791485Y-195085771D01*
X199791485Y-196514342D02*
X199648628Y-196585771D01*
X199362914Y-196585771D01*
X199220057Y-196514342D01*
X199148628Y-196442914D01*
X199077200Y-196300057D01*
X199077200Y-195871485D01*
X199148628Y-195728628D01*
X199220057Y-195657200D01*
X199362914Y-195585771D01*
X199648628Y-195585771D01*
X199791485Y-195657200D01*
X202077200Y-197157200D02*
X202005771Y-197085771D01*
X201862914Y-196871485D01*
X201791485Y-196728628D01*
X201720057Y-196514342D01*
X201648628Y-196157200D01*
X201648628Y-195871485D01*
X201720057Y-195514342D01*
X201791485Y-195300057D01*
X201862914Y-195157200D01*
X202005771Y-194942914D01*
X202077200Y-194871485D01*
X203362914Y-195085771D02*
X202648628Y-195085771D01*
X202577200Y-195800057D01*
X202648628Y-195728628D01*
X202791485Y-195657200D01*
X203148628Y-195657200D01*
X203291485Y-195728628D01*
X203362914Y-195800057D01*
X203434342Y-195942914D01*
X203434342Y-196300057D01*
X203362914Y-196442914D01*
X203291485Y-196514342D01*
X203148628Y-196585771D01*
X202791485Y-196585771D01*
X202648628Y-196514342D01*
X202577200Y-196442914D01*
X204077200Y-196442914D02*
X204148628Y-196514342D01*
X204077200Y-196585771D01*
X204005771Y-196514342D01*
X204077200Y-196442914D01*
X204077200Y-196585771D01*
X205577200Y-196585771D02*
X204720057Y-196585771D01*
X205148628Y-196585771D02*
X205148628Y-195085771D01*
X205005771Y-195300057D01*
X204862914Y-195442914D01*
X204720057Y-195514342D01*
X206220057Y-196442914D02*
X206291485Y-196514342D01*
X206220057Y-196585771D01*
X206148628Y-196514342D01*
X206220057Y-196442914D01*
X206220057Y-196585771D01*
X207720057Y-196585771D02*
X206862914Y-196585771D01*
X207291485Y-196585771D02*
X207291485Y-195085771D01*
X207148628Y-195300057D01*
X207005771Y-195442914D01*
X206862914Y-195514342D01*
X208648628Y-195085771D02*
X208791485Y-195085771D01*
X208934342Y-195157200D01*
X209005771Y-195228628D01*
X209077200Y-195371485D01*
X209148628Y-195657200D01*
X209148628Y-196014342D01*
X209077200Y-196300057D01*
X209005771Y-196442914D01*
X208934342Y-196514342D01*
X208791485Y-196585771D01*
X208648628Y-196585771D01*
X208505771Y-196514342D01*
X208434342Y-196442914D01*
X208362914Y-196300057D01*
X208291485Y-196014342D01*
X208291485Y-195657200D01*
X208362914Y-195371485D01*
X208434342Y-195228628D01*
X208505771Y-195157200D01*
X208648628Y-195085771D01*
X209648628Y-197157200D02*
X209720057Y-197085771D01*
X209862914Y-196871485D01*
X209934342Y-196728628D01*
X210005771Y-196514342D01*
X210077200Y-196157200D01*
X210077200Y-195871485D01*
X210005771Y-195514342D01*
X209934342Y-195300057D01*
X209862914Y-195157200D01*
X209720057Y-194942914D01*
X209648628Y-194871485D01*
X210791485Y-196014342D02*
X211934342Y-196014342D01*
X213434342Y-196585771D02*
X212577200Y-196585771D01*
X213005771Y-196585771D02*
X213005771Y-195085771D01*
X212862914Y-195300057D01*
X212720057Y-195442914D01*
X212577200Y-195514342D01*
D10*
D11*
X177002200Y-191507200D02*
X285002200Y-191507200D01*
D10*
D12*
X264411485Y-193785771D02*
X263911485Y-193071485D01*
X263554342Y-193785771D02*
X263554342Y-192285771D01*
X264125771Y-192285771D01*
X264268628Y-192357200D01*
X264340057Y-192428628D01*
X264411485Y-192571485D01*
X264411485Y-192785771D01*
X264340057Y-192928628D01*
X264268628Y-193000057D01*
X264125771Y-193071485D01*
X263554342Y-193071485D01*
X265625771Y-193714342D02*
X265482914Y-193785771D01*
X265197200Y-193785771D01*
X265054342Y-193714342D01*
X264982914Y-193571485D01*
X264982914Y-193000057D01*
X265054342Y-192857200D01*
X265197200Y-192785771D01*
X265482914Y-192785771D01*
X265625771Y-192857200D01*
X265697200Y-193000057D01*
X265697200Y-193142914D01*
X264982914Y-193285771D01*
X266197200Y-192785771D02*
X266554342Y-193785771D01*
X266911485Y-192785771D01*
X267482914Y-193642914D02*
X267554342Y-193714342D01*
X267482914Y-193785771D01*
X267411485Y-193714342D01*
X267482914Y-193642914D01*
X267482914Y-193785771D01*
X267482914Y-192857200D02*
X267554342Y-192928628D01*
X267482914Y-193000057D01*
X267411485Y-192928628D01*
X267482914Y-192857200D01*
X267482914Y-193000057D01*
D10*
D11*
X178362914Y-193714342D02*
X178577200Y-193785771D01*
X178934342Y-193785771D01*
X179077200Y-193714342D01*
X179148628Y-193642914D01*
X179220057Y-193500057D01*
X179220057Y-193357200D01*
X179148628Y-193214342D01*
X179077200Y-193142914D01*
X178934342Y-193071485D01*
X178648628Y-193000057D01*
X178505771Y-192928628D01*
X178434342Y-192857200D01*
X178362914Y-192714342D01*
X178362914Y-192571485D01*
X178434342Y-192428628D01*
X178505771Y-192357200D01*
X178648628Y-192285771D01*
X179005771Y-192285771D01*
X179220057Y-192357200D01*
X179862914Y-193785771D02*
X179862914Y-192785771D01*
X179862914Y-192285771D02*
X179791485Y-192357200D01*
X179862914Y-192428628D01*
X179934342Y-192357200D01*
X179862914Y-192285771D01*
X179862914Y-192428628D01*
X180434342Y-192785771D02*
X181220057Y-192785771D01*
X180434342Y-193785771D01*
X181220057Y-193785771D01*
X182362914Y-193714342D02*
X182220057Y-193785771D01*
X181934342Y-193785771D01*
X181791485Y-193714342D01*
X181720057Y-193571485D01*
X181720057Y-193000057D01*
X181791485Y-192857200D01*
X181934342Y-192785771D01*
X182220057Y-192785771D01*
X182362914Y-192857200D01*
X182434342Y-193000057D01*
X182434342Y-193142914D01*
X181720057Y-193285771D01*
X183077200Y-193642914D02*
X183148628Y-193714342D01*
X183077200Y-193785771D01*
X183005771Y-193714342D01*
X183077200Y-193642914D01*
X183077200Y-193785771D01*
X183077200Y-192857200D02*
X183148628Y-192928628D01*
X183077200Y-193000057D01*
X183005771Y-192928628D01*
X183077200Y-192857200D01*
X183077200Y-193000057D01*
X184862914Y-193357200D02*
X185577200Y-193357200D01*
X184720057Y-193785771D02*
X185220057Y-192285771D01*
X185720057Y-193785771D01*
X186862914Y-192785771D02*
X186862914Y-193785771D01*
X186505771Y-192214342D02*
X186148628Y-193285771D01*
X187077200Y-193285771D01*
D10*
D11*
X263434342Y-196585771D02*
X263434342Y-195085771D01*
X264791485Y-196585771D02*
X264791485Y-195085771D01*
X264791485Y-196514342D02*
X264648628Y-196585771D01*
X264362914Y-196585771D01*
X264220057Y-196514342D01*
X264148628Y-196442914D01*
X264077200Y-196300057D01*
X264077200Y-195871485D01*
X264148628Y-195728628D01*
X264220057Y-195657200D01*
X264362914Y-195585771D01*
X264648628Y-195585771D01*
X264791485Y-195657200D01*
X265505771Y-196442914D02*
X265577200Y-196514342D01*
X265505771Y-196585771D01*
X265434342Y-196514342D01*
X265505771Y-196442914D01*
X265505771Y-196585771D01*
X265505771Y-195657200D02*
X265577200Y-195728628D01*
X265505771Y-195800057D01*
X265434342Y-195728628D01*
X265505771Y-195657200D01*
X265505771Y-195800057D01*
X268148628Y-196585771D02*
X267291485Y-196585771D01*
X267720057Y-196585771D02*
X267720057Y-195085771D01*
X267577200Y-195300057D01*
X267434342Y-195442914D01*
X267291485Y-195514342D01*
X269862914Y-195014342D02*
X268577200Y-196942914D01*
X271148628Y-196585771D02*
X270291485Y-196585771D01*
X270720057Y-196585771D02*
X270720057Y-195085771D01*
X270577200Y-195300057D01*
X270434342Y-195442914D01*
X270291485Y-195514342D01*
D10*
D11*
X177002200Y-187507200D02*
X285002200Y-187507200D01*
D10*
D13*
X178714580Y-188211961D02*
X179857438Y-188211961D01*
X179036009Y-190211961D02*
X179286009Y-188211961D01*
X180274104Y-190211961D02*
X180440771Y-188878628D01*
X180524104Y-188211961D02*
X180416961Y-188307200D01*
X180500295Y-188402438D01*
X180607438Y-188307200D01*
X180524104Y-188211961D01*
X180500295Y-188402438D01*
X181107438Y-188878628D02*
X181869342Y-188878628D01*
X181476485Y-188211961D02*
X181262200Y-189926247D01*
X181333628Y-190116723D01*
X181512200Y-190211961D01*
X181702676Y-190211961D01*
X182655057Y-190211961D02*
X182476485Y-190116723D01*
X182405057Y-189926247D01*
X182619342Y-188211961D01*
X184190771Y-190116723D02*
X183988390Y-190211961D01*
X183607438Y-190211961D01*
X183428866Y-190116723D01*
X183357438Y-189926247D01*
X183452676Y-189164342D01*
X183571723Y-188973866D01*
X183774104Y-188878628D01*
X184155057Y-188878628D01*
X184333628Y-188973866D01*
X184405057Y-189164342D01*
X184381247Y-189354819D01*
X183405057Y-189545295D01*
X185155057Y-190021485D02*
X185238390Y-190116723D01*
X185131247Y-190211961D01*
X185047914Y-190116723D01*
X185155057Y-190021485D01*
X185131247Y-190211961D01*
X185286009Y-188973866D02*
X185369342Y-189069104D01*
X185262200Y-189164342D01*
X185178866Y-189069104D01*
X185286009Y-188973866D01*
X185262200Y-189164342D01*
D10*
D11*
X178934342Y-185600057D02*
X178434342Y-185600057D01*
X178434342Y-186385771D02*
X178434342Y-184885771D01*
X179148628Y-184885771D01*
X179720057Y-186385771D02*
X179720057Y-185385771D01*
X179720057Y-184885771D02*
X179648628Y-184957200D01*
X179720057Y-185028628D01*
X179791485Y-184957200D01*
X179720057Y-184885771D01*
X179720057Y-185028628D01*
X180648628Y-186385771D02*
X180505771Y-186314342D01*
X180434342Y-186171485D01*
X180434342Y-184885771D01*
X181791485Y-186314342D02*
X181648628Y-186385771D01*
X181362914Y-186385771D01*
X181220057Y-186314342D01*
X181148628Y-186171485D01*
X181148628Y-185600057D01*
X181220057Y-185457200D01*
X181362914Y-185385771D01*
X181648628Y-185385771D01*
X181791485Y-185457200D01*
X181862914Y-185600057D01*
X181862914Y-185742914D01*
X181148628Y-185885771D01*
X182505771Y-186242914D02*
X182577200Y-186314342D01*
X182505771Y-186385771D01*
X182434342Y-186314342D01*
X182505771Y-186242914D01*
X182505771Y-186385771D01*
X182505771Y-185457200D02*
X182577200Y-185528628D01*
X182505771Y-185600057D01*
X182434342Y-185528628D01*
X182505771Y-185457200D01*
X182505771Y-185600057D01*
X184362914Y-186385771D02*
X184362914Y-184885771D01*
X185005771Y-186385771D02*
X185005771Y-185600057D01*
X184934342Y-185457200D01*
X184791485Y-185385771D01*
X184577200Y-185385771D01*
X184434342Y-185457200D01*
X184362914Y-185528628D01*
X186362914Y-186385771D02*
X186362914Y-185600057D01*
X186291485Y-185457200D01*
X186148628Y-185385771D01*
X185862914Y-185385771D01*
X185720057Y-185457200D01*
X186362914Y-186314342D02*
X186220057Y-186385771D01*
X185862914Y-186385771D01*
X185720057Y-186314342D01*
X185648628Y-186171485D01*
X185648628Y-186028628D01*
X185720057Y-185885771D01*
X185862914Y-185814342D01*
X186220057Y-185814342D01*
X186362914Y-185742914D01*
X187077200Y-186385771D02*
X187077200Y-185385771D01*
X187077200Y-185671485D02*
X187148628Y-185528628D01*
X187220057Y-185457200D01*
X187362914Y-185385771D01*
X187505771Y-185385771D01*
X188648628Y-186385771D02*
X188648628Y-184885771D01*
X188648628Y-186314342D02*
X188505771Y-186385771D01*
X188220057Y-186385771D01*
X188077200Y-186314342D01*
X188005771Y-186242914D01*
X187934342Y-186100057D01*
X187934342Y-185671485D01*
X188005771Y-185528628D01*
X188077200Y-185457200D01*
X188220057Y-185385771D01*
X188505771Y-185385771D01*
X188648628Y-185457200D01*
X189220057Y-185385771D02*
X189505771Y-186385771D01*
X189791485Y-185671485D01*
X190077200Y-186385771D01*
X190362914Y-185385771D01*
X191577200Y-186385771D02*
X191577200Y-185600057D01*
X191505771Y-185457200D01*
X191362914Y-185385771D01*
X191077200Y-185385771D01*
X190934342Y-185457200D01*
X191577200Y-186314342D02*
X191434342Y-186385771D01*
X191077200Y-186385771D01*
X190934342Y-186314342D01*
X190862914Y-186171485D01*
X190862914Y-186028628D01*
X190934342Y-185885771D01*
X191077200Y-185814342D01*
X191434342Y-185814342D01*
X191577200Y-185742914D01*
X192291485Y-186385771D02*
X192291485Y-185385771D01*
X192291485Y-185671485D02*
X192362914Y-185528628D01*
X192434342Y-185457200D01*
X192577200Y-185385771D01*
X192720057Y-185385771D01*
X193791485Y-186314342D02*
X193648628Y-186385771D01*
X193362914Y-186385771D01*
X193220057Y-186314342D01*
X193148628Y-186171485D01*
X193148628Y-185600057D01*
X193220057Y-185457200D01*
X193362914Y-185385771D01*
X193648628Y-185385771D01*
X193791485Y-185457200D01*
X193862914Y-185600057D01*
X193862914Y-185742914D01*
X193148628Y-185885771D01*
X194505771Y-186242914D02*
X194577200Y-186314342D01*
X194505771Y-186385771D01*
X194434342Y-186314342D01*
X194505771Y-186242914D01*
X194505771Y-186385771D01*
X195220057Y-186385771D02*
X195220057Y-184885771D01*
X195362914Y-185814342D02*
X195791485Y-186385771D01*
X195791485Y-185385771D02*
X195220057Y-185957200D01*
X196434342Y-186385771D02*
X196434342Y-185385771D01*
X196434342Y-184885771D02*
X196362914Y-184957200D01*
X196434342Y-185028628D01*
X196505771Y-184957200D01*
X196434342Y-184885771D01*
X196434342Y-185028628D01*
X197791485Y-186314342D02*
X197648628Y-186385771D01*
X197362914Y-186385771D01*
X197220057Y-186314342D01*
X197148628Y-186242914D01*
X197077200Y-186100057D01*
X197077200Y-185671485D01*
X197148628Y-185528628D01*
X197220057Y-185457200D01*
X197362914Y-185385771D01*
X197648628Y-185385771D01*
X197791485Y-185457200D01*
X199077200Y-186385771D02*
X199077200Y-185600057D01*
X199005771Y-185457200D01*
X198862914Y-185385771D01*
X198577200Y-185385771D01*
X198434342Y-185457200D01*
X199077200Y-186314342D02*
X198934342Y-186385771D01*
X198577200Y-186385771D01*
X198434342Y-186314342D01*
X198362914Y-186171485D01*
X198362914Y-186028628D01*
X198434342Y-185885771D01*
X198577200Y-185814342D01*
X198934342Y-185814342D01*
X199077200Y-185742914D01*
X200434342Y-186385771D02*
X200434342Y-184885771D01*
X200434342Y-186314342D02*
X200291485Y-186385771D01*
X200005771Y-186385771D01*
X199862914Y-186314342D01*
X199791485Y-186242914D01*
X199720057Y-186100057D01*
X199720057Y-185671485D01*
X199791485Y-185528628D01*
X199862914Y-185457200D01*
X200005771Y-185385771D01*
X200291485Y-185385771D01*
X200434342Y-185457200D01*
X200791485Y-186528628D02*
X201934342Y-186528628D01*
X202291485Y-185385771D02*
X202291485Y-186885771D01*
X202291485Y-185457200D02*
X202434342Y-185385771D01*
X202720057Y-185385771D01*
X202862914Y-185457200D01*
X202934342Y-185528628D01*
X203005771Y-185671485D01*
X203005771Y-186100057D01*
X202934342Y-186242914D01*
X202862914Y-186314342D01*
X202720057Y-186385771D01*
X202434342Y-186385771D01*
X202291485Y-186314342D01*
X204291485Y-186314342D02*
X204148628Y-186385771D01*
X203862914Y-186385771D01*
X203720057Y-186314342D01*
X203648628Y-186242914D01*
X203577200Y-186100057D01*
X203577200Y-185671485D01*
X203648628Y-185528628D01*
X203720057Y-185457200D01*
X203862914Y-185385771D01*
X204148628Y-185385771D01*
X204291485Y-185457200D01*
X204934342Y-186385771D02*
X204934342Y-184885771D01*
X204934342Y-185457200D02*
X205077200Y-185385771D01*
X205362914Y-185385771D01*
X205505771Y-185457200D01*
X205577200Y-185528628D01*
X205648628Y-185671485D01*
X205648628Y-186100057D01*
X205577200Y-186242914D01*
X205505771Y-186314342D01*
X205362914Y-186385771D01*
X205077200Y-186385771D01*
X204934342Y-186314342D01*
D10*
D11*
X177002200Y-181507200D02*
X285002200Y-181507200D01*
D10*
D11*
X178362914Y-183614342D02*
X178577200Y-183685771D01*
X178934342Y-183685771D01*
X179077200Y-183614342D01*
X179148628Y-183542914D01*
X179220057Y-183400057D01*
X179220057Y-183257200D01*
X179148628Y-183114342D01*
X179077200Y-183042914D01*
X178934342Y-182971485D01*
X178648628Y-182900057D01*
X178505771Y-182828628D01*
X178434342Y-182757200D01*
X178362914Y-182614342D01*
X178362914Y-182471485D01*
X178434342Y-182328628D01*
X178505771Y-182257200D01*
X178648628Y-182185771D01*
X179005771Y-182185771D01*
X179220057Y-182257200D01*
X179862914Y-183685771D02*
X179862914Y-182185771D01*
X180505771Y-183685771D02*
X180505771Y-182900057D01*
X180434342Y-182757200D01*
X180291485Y-182685771D01*
X180077200Y-182685771D01*
X179934342Y-182757200D01*
X179862914Y-182828628D01*
X181791485Y-183614342D02*
X181648628Y-183685771D01*
X181362914Y-183685771D01*
X181220057Y-183614342D01*
X181148628Y-183471485D01*
X181148628Y-182900057D01*
X181220057Y-182757200D01*
X181362914Y-182685771D01*
X181648628Y-182685771D01*
X181791485Y-182757200D01*
X181862914Y-182900057D01*
X181862914Y-183042914D01*
X181148628Y-183185771D01*
X183077200Y-183614342D02*
X182934342Y-183685771D01*
X182648628Y-183685771D01*
X182505771Y-183614342D01*
X182434342Y-183471485D01*
X182434342Y-182900057D01*
X182505771Y-182757200D01*
X182648628Y-182685771D01*
X182934342Y-182685771D01*
X183077200Y-182757200D01*
X183148628Y-182900057D01*
X183148628Y-183042914D01*
X182434342Y-183185771D01*
X183577200Y-182685771D02*
X184148628Y-182685771D01*
X183791485Y-182185771D02*
X183791485Y-183471485D01*
X183862914Y-183614342D01*
X184005771Y-183685771D01*
X184148628Y-183685771D01*
X184648628Y-183542914D02*
X184720057Y-183614342D01*
X184648628Y-183685771D01*
X184577200Y-183614342D01*
X184648628Y-183542914D01*
X184648628Y-183685771D01*
X184648628Y-182757200D02*
X184720057Y-182828628D01*
X184648628Y-182900057D01*
X184577200Y-182828628D01*
X184648628Y-182757200D01*
X184648628Y-182900057D01*
D10*
D11*
X197002200Y-191507200D02*
X197002200Y-194507200D01*
D10*
D11*
X261002200Y-191507200D02*
X261002200Y-198007200D01*
%TO.C,R12*%
G36*
G01*
X138093000Y-78723500D02*
X138093000Y-78248500D01*
G75*
G02*
X138330500Y-78011000I237500J0D01*
G01*
X138830500Y-78011000D01*
G75*
G02*
X139068000Y-78248500I0J-237500D01*
G01*
X139068000Y-78723500D01*
G75*
G02*
X138830500Y-78961000I-237500J0D01*
G01*
X138330500Y-78961000D01*
G75*
G02*
X138093000Y-78723500I0J237500D01*
G01*
G37*
G36*
G01*
X136268000Y-78723500D02*
X136268000Y-78248500D01*
G75*
G02*
X136505500Y-78011000I237500J0D01*
G01*
X137005500Y-78011000D01*
G75*
G02*
X137243000Y-78248500I0J-237500D01*
G01*
X137243000Y-78723500D01*
G75*
G02*
X137005500Y-78961000I-237500J0D01*
G01*
X136505500Y-78961000D01*
G75*
G02*
X136268000Y-78723500I0J237500D01*
G01*
G37*
%TD*%
%TO.C,R11*%
G36*
G01*
X116399500Y-78723500D02*
X116399500Y-78248500D01*
G75*
G02*
X116637000Y-78011000I237500J0D01*
G01*
X117137000Y-78011000D01*
G75*
G02*
X117374500Y-78248500I0J-237500D01*
G01*
X117374500Y-78723500D01*
G75*
G02*
X117137000Y-78961000I-237500J0D01*
G01*
X116637000Y-78961000D01*
G75*
G02*
X116399500Y-78723500I0J237500D01*
G01*
G37*
G36*
G01*
X114574500Y-78723500D02*
X114574500Y-78248500D01*
G75*
G02*
X114812000Y-78011000I237500J0D01*
G01*
X115312000Y-78011000D01*
G75*
G02*
X115549500Y-78248500I0J-237500D01*
G01*
X115549500Y-78723500D01*
G75*
G02*
X115312000Y-78961000I-237500J0D01*
G01*
X114812000Y-78961000D01*
G75*
G02*
X114574500Y-78723500I0J237500D01*
G01*
G37*
%TD*%
%TO.C,R10*%
G36*
G01*
X91761500Y-78723500D02*
X91761500Y-78248500D01*
G75*
G02*
X91999000Y-78011000I237500J0D01*
G01*
X92499000Y-78011000D01*
G75*
G02*
X92736500Y-78248500I0J-237500D01*
G01*
X92736500Y-78723500D01*
G75*
G02*
X92499000Y-78961000I-237500J0D01*
G01*
X91999000Y-78961000D01*
G75*
G02*
X91761500Y-78723500I0J237500D01*
G01*
G37*
G36*
G01*
X89936500Y-78723500D02*
X89936500Y-78248500D01*
G75*
G02*
X90174000Y-78011000I237500J0D01*
G01*
X90674000Y-78011000D01*
G75*
G02*
X90911500Y-78248500I0J-237500D01*
G01*
X90911500Y-78723500D01*
G75*
G02*
X90674000Y-78961000I-237500J0D01*
G01*
X90174000Y-78961000D01*
G75*
G02*
X89936500Y-78723500I0J237500D01*
G01*
G37*
%TD*%
%TO.C,R9*%
G36*
G01*
X133624500Y-80501500D02*
X133624500Y-80026500D01*
G75*
G02*
X133862000Y-79789000I237500J0D01*
G01*
X134362000Y-79789000D01*
G75*
G02*
X134599500Y-80026500I0J-237500D01*
G01*
X134599500Y-80501500D01*
G75*
G02*
X134362000Y-80739000I-237500J0D01*
G01*
X133862000Y-80739000D01*
G75*
G02*
X133624500Y-80501500I0J237500D01*
G01*
G37*
G36*
G01*
X131799500Y-80501500D02*
X131799500Y-80026500D01*
G75*
G02*
X132037000Y-79789000I237500J0D01*
G01*
X132537000Y-79789000D01*
G75*
G02*
X132774500Y-80026500I0J-237500D01*
G01*
X132774500Y-80501500D01*
G75*
G02*
X132537000Y-80739000I-237500J0D01*
G01*
X132037000Y-80739000D01*
G75*
G02*
X131799500Y-80501500I0J237500D01*
G01*
G37*
%TD*%
%TO.C,R8*%
G36*
G01*
X114471000Y-80501500D02*
X114471000Y-80026500D01*
G75*
G02*
X114708500Y-79789000I237500J0D01*
G01*
X115208500Y-79789000D01*
G75*
G02*
X115446000Y-80026500I0J-237500D01*
G01*
X115446000Y-80501500D01*
G75*
G02*
X115208500Y-80739000I-237500J0D01*
G01*
X114708500Y-80739000D01*
G75*
G02*
X114471000Y-80501500I0J237500D01*
G01*
G37*
G36*
G01*
X112646000Y-80501500D02*
X112646000Y-80026500D01*
G75*
G02*
X112883500Y-79789000I237500J0D01*
G01*
X113383500Y-79789000D01*
G75*
G02*
X113621000Y-80026500I0J-237500D01*
G01*
X113621000Y-80501500D01*
G75*
G02*
X113383500Y-80739000I-237500J0D01*
G01*
X112883500Y-80739000D01*
G75*
G02*
X112646000Y-80501500I0J237500D01*
G01*
G37*
%TD*%
%TO.C,R7*%
G36*
G01*
X98889000Y-81042500D02*
X98889000Y-81517500D01*
G75*
G02*
X98651500Y-81755000I-237500J0D01*
G01*
X98151500Y-81755000D01*
G75*
G02*
X97914000Y-81517500I0J237500D01*
G01*
X97914000Y-81042500D01*
G75*
G02*
X98151500Y-80805000I237500J0D01*
G01*
X98651500Y-80805000D01*
G75*
G02*
X98889000Y-81042500I0J-237500D01*
G01*
G37*
G36*
G01*
X100714000Y-81042500D02*
X100714000Y-81517500D01*
G75*
G02*
X100476500Y-81755000I-237500J0D01*
G01*
X99976500Y-81755000D01*
G75*
G02*
X99739000Y-81517500I0J237500D01*
G01*
X99739000Y-81042500D01*
G75*
G02*
X99976500Y-80805000I237500J0D01*
G01*
X100476500Y-80805000D01*
G75*
G02*
X100714000Y-81042500I0J-237500D01*
G01*
G37*
%TD*%
%TO.C,R6*%
G36*
G01*
X77490500Y-83295500D02*
X77490500Y-82820500D01*
G75*
G02*
X77728000Y-82583000I237500J0D01*
G01*
X78228000Y-82583000D01*
G75*
G02*
X78465500Y-82820500I0J-237500D01*
G01*
X78465500Y-83295500D01*
G75*
G02*
X78228000Y-83533000I-237500J0D01*
G01*
X77728000Y-83533000D01*
G75*
G02*
X77490500Y-83295500I0J237500D01*
G01*
G37*
G36*
G01*
X75665500Y-83295500D02*
X75665500Y-82820500D01*
G75*
G02*
X75903000Y-82583000I237500J0D01*
G01*
X76403000Y-82583000D01*
G75*
G02*
X76640500Y-82820500I0J-237500D01*
G01*
X76640500Y-83295500D01*
G75*
G02*
X76403000Y-83533000I-237500J0D01*
G01*
X75903000Y-83533000D01*
G75*
G02*
X75665500Y-83295500I0J237500D01*
G01*
G37*
%TD*%
%TO.C,R5*%
G36*
G01*
X60773500Y-83549500D02*
X60773500Y-83074500D01*
G75*
G02*
X61011000Y-82837000I237500J0D01*
G01*
X61511000Y-82837000D01*
G75*
G02*
X61748500Y-83074500I0J-237500D01*
G01*
X61748500Y-83549500D01*
G75*
G02*
X61511000Y-83787000I-237500J0D01*
G01*
X61011000Y-83787000D01*
G75*
G02*
X60773500Y-83549500I0J237500D01*
G01*
G37*
G36*
G01*
X58948500Y-83549500D02*
X58948500Y-83074500D01*
G75*
G02*
X59186000Y-82837000I237500J0D01*
G01*
X59686000Y-82837000D01*
G75*
G02*
X59923500Y-83074500I0J-237500D01*
G01*
X59923500Y-83549500D01*
G75*
G02*
X59686000Y-83787000I-237500J0D01*
G01*
X59186000Y-83787000D01*
G75*
G02*
X58948500Y-83549500I0J237500D01*
G01*
G37*
%TD*%
%TO.C,R4*%
G36*
G01*
X78248500Y-63925000D02*
X78723500Y-63925000D01*
G75*
G02*
X78961000Y-64162500I0J-237500D01*
G01*
X78961000Y-64662500D01*
G75*
G02*
X78723500Y-64900000I-237500J0D01*
G01*
X78248500Y-64900000D01*
G75*
G02*
X78011000Y-64662500I0J237500D01*
G01*
X78011000Y-64162500D01*
G75*
G02*
X78248500Y-63925000I237500J0D01*
G01*
G37*
G36*
G01*
X78248500Y-62100000D02*
X78723500Y-62100000D01*
G75*
G02*
X78961000Y-62337500I0J-237500D01*
G01*
X78961000Y-62837500D01*
G75*
G02*
X78723500Y-63075000I-237500J0D01*
G01*
X78248500Y-63075000D01*
G75*
G02*
X78011000Y-62837500I0J237500D01*
G01*
X78011000Y-62337500D01*
G75*
G02*
X78248500Y-62100000I237500J0D01*
G01*
G37*
%TD*%
%TO.C,D9*%
G36*
G01*
X78248500Y-59532000D02*
X78723500Y-59532000D01*
G75*
G02*
X78961000Y-59769500I0J-237500D01*
G01*
X78961000Y-60344500D01*
G75*
G02*
X78723500Y-60582000I-237500J0D01*
G01*
X78248500Y-60582000D01*
G75*
G02*
X78011000Y-60344500I0J237500D01*
G01*
X78011000Y-59769500D01*
G75*
G02*
X78248500Y-59532000I237500J0D01*
G01*
G37*
G36*
G01*
X78248500Y-57782000D02*
X78723500Y-57782000D01*
G75*
G02*
X78961000Y-58019500I0J-237500D01*
G01*
X78961000Y-58594500D01*
G75*
G02*
X78723500Y-58832000I-237500J0D01*
G01*
X78248500Y-58832000D01*
G75*
G02*
X78011000Y-58594500I0J237500D01*
G01*
X78011000Y-58019500D01*
G75*
G02*
X78248500Y-57782000I237500J0D01*
G01*
G37*
%TD*%
%TO.C,D8*%
G36*
G01*
X136556000Y-80026500D02*
X136556000Y-80501500D01*
G75*
G02*
X136318500Y-80739000I-237500J0D01*
G01*
X135743500Y-80739000D01*
G75*
G02*
X135506000Y-80501500I0J237500D01*
G01*
X135506000Y-80026500D01*
G75*
G02*
X135743500Y-79789000I237500J0D01*
G01*
X136318500Y-79789000D01*
G75*
G02*
X136556000Y-80026500I0J-237500D01*
G01*
G37*
G36*
G01*
X138306000Y-80026500D02*
X138306000Y-80501500D01*
G75*
G02*
X138068500Y-80739000I-237500J0D01*
G01*
X137493500Y-80739000D01*
G75*
G02*
X137256000Y-80501500I0J237500D01*
G01*
X137256000Y-80026500D01*
G75*
G02*
X137493500Y-79789000I237500J0D01*
G01*
X138068500Y-79789000D01*
G75*
G02*
X138306000Y-80026500I0J-237500D01*
G01*
G37*
%TD*%
%TO.C,D7*%
G36*
G01*
X117365000Y-80026500D02*
X117365000Y-80501500D01*
G75*
G02*
X117127500Y-80739000I-237500J0D01*
G01*
X116552500Y-80739000D01*
G75*
G02*
X116315000Y-80501500I0J237500D01*
G01*
X116315000Y-80026500D01*
G75*
G02*
X116552500Y-79789000I237500J0D01*
G01*
X117127500Y-79789000D01*
G75*
G02*
X117365000Y-80026500I0J-237500D01*
G01*
G37*
G36*
G01*
X119115000Y-80026500D02*
X119115000Y-80501500D01*
G75*
G02*
X118877500Y-80739000I-237500J0D01*
G01*
X118302500Y-80739000D01*
G75*
G02*
X118065000Y-80501500I0J237500D01*
G01*
X118065000Y-80026500D01*
G75*
G02*
X118302500Y-79789000I237500J0D01*
G01*
X118877500Y-79789000D01*
G75*
G02*
X119115000Y-80026500I0J-237500D01*
G01*
G37*
%TD*%
%TO.C,D6*%
G36*
G01*
X92693000Y-81517500D02*
X92693000Y-81042500D01*
G75*
G02*
X92930500Y-80805000I237500J0D01*
G01*
X93505500Y-80805000D01*
G75*
G02*
X93743000Y-81042500I0J-237500D01*
G01*
X93743000Y-81517500D01*
G75*
G02*
X93505500Y-81755000I-237500J0D01*
G01*
X92930500Y-81755000D01*
G75*
G02*
X92693000Y-81517500I0J237500D01*
G01*
G37*
G36*
G01*
X90943000Y-81517500D02*
X90943000Y-81042500D01*
G75*
G02*
X91180500Y-80805000I237500J0D01*
G01*
X91755500Y-80805000D01*
G75*
G02*
X91993000Y-81042500I0J-237500D01*
G01*
X91993000Y-81517500D01*
G75*
G02*
X91755500Y-81755000I-237500J0D01*
G01*
X91180500Y-81755000D01*
G75*
G02*
X90943000Y-81517500I0J237500D01*
G01*
G37*
%TD*%
%TO.C,D5*%
G36*
G01*
X141015000Y-78248500D02*
X141015000Y-78723500D01*
G75*
G02*
X140777500Y-78961000I-237500J0D01*
G01*
X140202500Y-78961000D01*
G75*
G02*
X139965000Y-78723500I0J237500D01*
G01*
X139965000Y-78248500D01*
G75*
G02*
X140202500Y-78011000I237500J0D01*
G01*
X140777500Y-78011000D01*
G75*
G02*
X141015000Y-78248500I0J-237500D01*
G01*
G37*
G36*
G01*
X142765000Y-78248500D02*
X142765000Y-78723500D01*
G75*
G02*
X142527500Y-78961000I-237500J0D01*
G01*
X141952500Y-78961000D01*
G75*
G02*
X141715000Y-78723500I0J237500D01*
G01*
X141715000Y-78248500D01*
G75*
G02*
X141952500Y-78011000I237500J0D01*
G01*
X142527500Y-78011000D01*
G75*
G02*
X142765000Y-78248500I0J-237500D01*
G01*
G37*
%TD*%
%TO.C,D4*%
G36*
G01*
X119651000Y-78248500D02*
X119651000Y-78723500D01*
G75*
G02*
X119413500Y-78961000I-237500J0D01*
G01*
X118838500Y-78961000D01*
G75*
G02*
X118601000Y-78723500I0J237500D01*
G01*
X118601000Y-78248500D01*
G75*
G02*
X118838500Y-78011000I237500J0D01*
G01*
X119413500Y-78011000D01*
G75*
G02*
X119651000Y-78248500I0J-237500D01*
G01*
G37*
G36*
G01*
X121401000Y-78248500D02*
X121401000Y-78723500D01*
G75*
G02*
X121163500Y-78961000I-237500J0D01*
G01*
X120588500Y-78961000D01*
G75*
G02*
X120351000Y-78723500I0J237500D01*
G01*
X120351000Y-78248500D01*
G75*
G02*
X120588500Y-78011000I237500J0D01*
G01*
X121163500Y-78011000D01*
G75*
G02*
X121401000Y-78248500I0J-237500D01*
G01*
G37*
%TD*%
%TO.C,D3*%
G36*
G01*
X95013000Y-78248500D02*
X95013000Y-78723500D01*
G75*
G02*
X94775500Y-78961000I-237500J0D01*
G01*
X94200500Y-78961000D01*
G75*
G02*
X93963000Y-78723500I0J237500D01*
G01*
X93963000Y-78248500D01*
G75*
G02*
X94200500Y-78011000I237500J0D01*
G01*
X94775500Y-78011000D01*
G75*
G02*
X95013000Y-78248500I0J-237500D01*
G01*
G37*
G36*
G01*
X96763000Y-78248500D02*
X96763000Y-78723500D01*
G75*
G02*
X96525500Y-78961000I-237500J0D01*
G01*
X95950500Y-78961000D01*
G75*
G02*
X95713000Y-78723500I0J237500D01*
G01*
X95713000Y-78248500D01*
G75*
G02*
X95950500Y-78011000I237500J0D01*
G01*
X96525500Y-78011000D01*
G75*
G02*
X96763000Y-78248500I0J-237500D01*
G01*
G37*
%TD*%
%TO.C,D2*%
G36*
G01*
X73643000Y-83295500D02*
X73643000Y-82820500D01*
G75*
G02*
X73880500Y-82583000I237500J0D01*
G01*
X74455500Y-82583000D01*
G75*
G02*
X74693000Y-82820500I0J-237500D01*
G01*
X74693000Y-83295500D01*
G75*
G02*
X74455500Y-83533000I-237500J0D01*
G01*
X73880500Y-83533000D01*
G75*
G02*
X73643000Y-83295500I0J237500D01*
G01*
G37*
G36*
G01*
X71893000Y-83295500D02*
X71893000Y-82820500D01*
G75*
G02*
X72130500Y-82583000I237500J0D01*
G01*
X72705500Y-82583000D01*
G75*
G02*
X72943000Y-82820500I0J-237500D01*
G01*
X72943000Y-83295500D01*
G75*
G02*
X72705500Y-83533000I-237500J0D01*
G01*
X72130500Y-83533000D01*
G75*
G02*
X71893000Y-83295500I0J237500D01*
G01*
G37*
%TD*%
%TO.C,D1*%
G36*
G01*
X55609000Y-83549500D02*
X55609000Y-83074500D01*
G75*
G02*
X55846500Y-82837000I237500J0D01*
G01*
X56421500Y-82837000D01*
G75*
G02*
X56659000Y-83074500I0J-237500D01*
G01*
X56659000Y-83549500D01*
G75*
G02*
X56421500Y-83787000I-237500J0D01*
G01*
X55846500Y-83787000D01*
G75*
G02*
X55609000Y-83549500I0J237500D01*
G01*
G37*
G36*
G01*
X53859000Y-83549500D02*
X53859000Y-83074500D01*
G75*
G02*
X54096500Y-82837000I237500J0D01*
G01*
X54671500Y-82837000D01*
G75*
G02*
X54909000Y-83074500I0J-237500D01*
G01*
X54909000Y-83549500D01*
G75*
G02*
X54671500Y-83787000I-237500J0D01*
G01*
X54096500Y-83787000D01*
G75*
G02*
X53859000Y-83549500I0J237500D01*
G01*
G37*
%TD*%
D14*
%TO.C,U6*%
X136111000Y-76708000D03*
X136111000Y-74168000D03*
X136111000Y-72898000D03*
X141511000Y-72898000D03*
X141511000Y-74168000D03*
X141511000Y-75438000D03*
X141511000Y-76708000D03*
%TD*%
%TO.C,U5*%
X114521000Y-76708000D03*
X114521000Y-74168000D03*
X114521000Y-72898000D03*
X119921000Y-72898000D03*
X119921000Y-74168000D03*
X119921000Y-75438000D03*
X119921000Y-76708000D03*
%TD*%
%TO.C,U4*%
X90010000Y-76708000D03*
X90010000Y-74168000D03*
X90010000Y-72898000D03*
X95410000Y-72898000D03*
X95410000Y-74168000D03*
X95410000Y-75438000D03*
X95410000Y-76708000D03*
%TD*%
%TO.C,R3*%
G36*
G01*
X144990000Y-73549500D02*
X144990000Y-74024500D01*
G75*
G02*
X144752500Y-74262000I-237500J0D01*
G01*
X144252500Y-74262000D01*
G75*
G02*
X144015000Y-74024500I0J237500D01*
G01*
X144015000Y-73549500D01*
G75*
G02*
X144252500Y-73312000I237500J0D01*
G01*
X144752500Y-73312000D01*
G75*
G02*
X144990000Y-73549500I0J-237500D01*
G01*
G37*
G36*
G01*
X146815000Y-73549500D02*
X146815000Y-74024500D01*
G75*
G02*
X146577500Y-74262000I-237500J0D01*
G01*
X146077500Y-74262000D01*
G75*
G02*
X145840000Y-74024500I0J237500D01*
G01*
X145840000Y-73549500D01*
G75*
G02*
X146077500Y-73312000I237500J0D01*
G01*
X146577500Y-73312000D01*
G75*
G02*
X146815000Y-73549500I0J-237500D01*
G01*
G37*
%TD*%
%TO.C,R2*%
G36*
G01*
X123169500Y-73676500D02*
X123169500Y-74151500D01*
G75*
G02*
X122932000Y-74389000I-237500J0D01*
G01*
X122432000Y-74389000D01*
G75*
G02*
X122194500Y-74151500I0J237500D01*
G01*
X122194500Y-73676500D01*
G75*
G02*
X122432000Y-73439000I237500J0D01*
G01*
X122932000Y-73439000D01*
G75*
G02*
X123169500Y-73676500I0J-237500D01*
G01*
G37*
G36*
G01*
X124994500Y-73676500D02*
X124994500Y-74151500D01*
G75*
G02*
X124757000Y-74389000I-237500J0D01*
G01*
X124257000Y-74389000D01*
G75*
G02*
X124019500Y-74151500I0J237500D01*
G01*
X124019500Y-73676500D01*
G75*
G02*
X124257000Y-73439000I237500J0D01*
G01*
X124757000Y-73439000D01*
G75*
G02*
X124994500Y-73676500I0J-237500D01*
G01*
G37*
%TD*%
%TO.C,R1*%
G36*
G01*
X98785500Y-73676500D02*
X98785500Y-74151500D01*
G75*
G02*
X98548000Y-74389000I-237500J0D01*
G01*
X98048000Y-74389000D01*
G75*
G02*
X97810500Y-74151500I0J237500D01*
G01*
X97810500Y-73676500D01*
G75*
G02*
X98048000Y-73439000I237500J0D01*
G01*
X98548000Y-73439000D01*
G75*
G02*
X98785500Y-73676500I0J-237500D01*
G01*
G37*
G36*
G01*
X100610500Y-73676500D02*
X100610500Y-74151500D01*
G75*
G02*
X100373000Y-74389000I-237500J0D01*
G01*
X99873000Y-74389000D01*
G75*
G02*
X99635500Y-74151500I0J237500D01*
G01*
X99635500Y-73676500D01*
G75*
G02*
X99873000Y-73439000I237500J0D01*
G01*
X100373000Y-73439000D01*
G75*
G02*
X100610500Y-73676500I0J-237500D01*
G01*
G37*
%TD*%
D15*
%TO.C,Q3*%
X128116000Y-72939000D03*
X128116000Y-73589000D03*
X128116000Y-74239000D03*
X128116000Y-74889000D03*
D16*
X131226000Y-74889000D03*
X131226000Y-74239000D03*
X131226000Y-73589000D03*
X131226000Y-72939000D03*
D17*
X129046000Y-73288000D03*
X129906000Y-73288000D03*
X129046000Y-74540000D03*
X129906000Y-74540000D03*
%TD*%
D15*
%TO.C,Q2*%
X106399000Y-72939000D03*
X106399000Y-73589000D03*
X106399000Y-74239000D03*
X106399000Y-74889000D03*
D16*
X109509000Y-74889000D03*
X109509000Y-74239000D03*
X109509000Y-73589000D03*
X109509000Y-72939000D03*
D17*
X107329000Y-73288000D03*
X108189000Y-73288000D03*
X107329000Y-74540000D03*
X108189000Y-74540000D03*
%TD*%
D15*
%TO.C,Q1*%
X81888000Y-72939000D03*
X81888000Y-73589000D03*
X81888000Y-74239000D03*
X81888000Y-74889000D03*
D16*
X84998000Y-74889000D03*
X84998000Y-74239000D03*
X84998000Y-73589000D03*
X84998000Y-72939000D03*
D17*
X82818000Y-73288000D03*
X83678000Y-73288000D03*
X82818000Y-74540000D03*
X83678000Y-74540000D03*
%TD*%
%TO.C,C13*%
G36*
G01*
X133874500Y-77821500D02*
X134349500Y-77821500D01*
G75*
G02*
X134587000Y-78059000I0J-237500D01*
G01*
X134587000Y-78659000D01*
G75*
G02*
X134349500Y-78896500I-237500J0D01*
G01*
X133874500Y-78896500D01*
G75*
G02*
X133637000Y-78659000I0J237500D01*
G01*
X133637000Y-78059000D01*
G75*
G02*
X133874500Y-77821500I237500J0D01*
G01*
G37*
G36*
G01*
X133874500Y-76096500D02*
X134349500Y-76096500D01*
G75*
G02*
X134587000Y-76334000I0J-237500D01*
G01*
X134587000Y-76934000D01*
G75*
G02*
X134349500Y-77171500I-237500J0D01*
G01*
X133874500Y-77171500D01*
G75*
G02*
X133637000Y-76934000I0J237500D01*
G01*
X133637000Y-76334000D01*
G75*
G02*
X133874500Y-76096500I237500J0D01*
G01*
G37*
%TD*%
%TO.C,C12*%
G36*
G01*
X145740000Y-76056500D02*
X145740000Y-75581500D01*
G75*
G02*
X145977500Y-75344000I237500J0D01*
G01*
X146577500Y-75344000D01*
G75*
G02*
X146815000Y-75581500I0J-237500D01*
G01*
X146815000Y-76056500D01*
G75*
G02*
X146577500Y-76294000I-237500J0D01*
G01*
X145977500Y-76294000D01*
G75*
G02*
X145740000Y-76056500I0J237500D01*
G01*
G37*
G36*
G01*
X144015000Y-76056500D02*
X144015000Y-75581500D01*
G75*
G02*
X144252500Y-75344000I237500J0D01*
G01*
X144852500Y-75344000D01*
G75*
G02*
X145090000Y-75581500I0J-237500D01*
G01*
X145090000Y-76056500D01*
G75*
G02*
X144852500Y-76294000I-237500J0D01*
G01*
X144252500Y-76294000D01*
G75*
G02*
X144015000Y-76056500I0J237500D01*
G01*
G37*
%TD*%
%TO.C,C11*%
G36*
G01*
X112030500Y-77795000D02*
X112505500Y-77795000D01*
G75*
G02*
X112743000Y-78032500I0J-237500D01*
G01*
X112743000Y-78632500D01*
G75*
G02*
X112505500Y-78870000I-237500J0D01*
G01*
X112030500Y-78870000D01*
G75*
G02*
X111793000Y-78632500I0J237500D01*
G01*
X111793000Y-78032500D01*
G75*
G02*
X112030500Y-77795000I237500J0D01*
G01*
G37*
G36*
G01*
X112030500Y-76070000D02*
X112505500Y-76070000D01*
G75*
G02*
X112743000Y-76307500I0J-237500D01*
G01*
X112743000Y-76907500D01*
G75*
G02*
X112505500Y-77145000I-237500J0D01*
G01*
X112030500Y-77145000D01*
G75*
G02*
X111793000Y-76907500I0J237500D01*
G01*
X111793000Y-76307500D01*
G75*
G02*
X112030500Y-76070000I237500J0D01*
G01*
G37*
%TD*%
%TO.C,C10*%
G36*
G01*
X123869500Y-76183500D02*
X123869500Y-75708500D01*
G75*
G02*
X124107000Y-75471000I237500J0D01*
G01*
X124707000Y-75471000D01*
G75*
G02*
X124944500Y-75708500I0J-237500D01*
G01*
X124944500Y-76183500D01*
G75*
G02*
X124707000Y-76421000I-237500J0D01*
G01*
X124107000Y-76421000D01*
G75*
G02*
X123869500Y-76183500I0J237500D01*
G01*
G37*
G36*
G01*
X122144500Y-76183500D02*
X122144500Y-75708500D01*
G75*
G02*
X122382000Y-75471000I237500J0D01*
G01*
X122982000Y-75471000D01*
G75*
G02*
X123219500Y-75708500I0J-237500D01*
G01*
X123219500Y-76183500D01*
G75*
G02*
X122982000Y-76421000I-237500J0D01*
G01*
X122382000Y-76421000D01*
G75*
G02*
X122144500Y-76183500I0J237500D01*
G01*
G37*
%TD*%
%TO.C,C9*%
G36*
G01*
X87138500Y-77821500D02*
X87613500Y-77821500D01*
G75*
G02*
X87851000Y-78059000I0J-237500D01*
G01*
X87851000Y-78659000D01*
G75*
G02*
X87613500Y-78896500I-237500J0D01*
G01*
X87138500Y-78896500D01*
G75*
G02*
X86901000Y-78659000I0J237500D01*
G01*
X86901000Y-78059000D01*
G75*
G02*
X87138500Y-77821500I237500J0D01*
G01*
G37*
G36*
G01*
X87138500Y-76096500D02*
X87613500Y-76096500D01*
G75*
G02*
X87851000Y-76334000I0J-237500D01*
G01*
X87851000Y-76934000D01*
G75*
G02*
X87613500Y-77171500I-237500J0D01*
G01*
X87138500Y-77171500D01*
G75*
G02*
X86901000Y-76934000I0J237500D01*
G01*
X86901000Y-76334000D01*
G75*
G02*
X87138500Y-76096500I237500J0D01*
G01*
G37*
%TD*%
%TO.C,C8*%
G36*
G01*
X99538500Y-76183500D02*
X99538500Y-75708500D01*
G75*
G02*
X99776000Y-75471000I237500J0D01*
G01*
X100376000Y-75471000D01*
G75*
G02*
X100613500Y-75708500I0J-237500D01*
G01*
X100613500Y-76183500D01*
G75*
G02*
X100376000Y-76421000I-237500J0D01*
G01*
X99776000Y-76421000D01*
G75*
G02*
X99538500Y-76183500I0J237500D01*
G01*
G37*
G36*
G01*
X97813500Y-76183500D02*
X97813500Y-75708500D01*
G75*
G02*
X98051000Y-75471000I237500J0D01*
G01*
X98651000Y-75471000D01*
G75*
G02*
X98888500Y-75708500I0J-237500D01*
G01*
X98888500Y-76183500D01*
G75*
G02*
X98651000Y-76421000I-237500J0D01*
G01*
X98051000Y-76421000D01*
G75*
G02*
X97813500Y-76183500I0J237500D01*
G01*
G37*
%TD*%
%TO.C,C7*%
G36*
G01*
X83764000Y-89899500D02*
X83764000Y-89424500D01*
G75*
G02*
X84001500Y-89187000I237500J0D01*
G01*
X84601500Y-89187000D01*
G75*
G02*
X84839000Y-89424500I0J-237500D01*
G01*
X84839000Y-89899500D01*
G75*
G02*
X84601500Y-90137000I-237500J0D01*
G01*
X84001500Y-90137000D01*
G75*
G02*
X83764000Y-89899500I0J237500D01*
G01*
G37*
G36*
G01*
X82039000Y-89899500D02*
X82039000Y-89424500D01*
G75*
G02*
X82276500Y-89187000I237500J0D01*
G01*
X82876500Y-89187000D01*
G75*
G02*
X83114000Y-89424500I0J-237500D01*
G01*
X83114000Y-89899500D01*
G75*
G02*
X82876500Y-90137000I-237500J0D01*
G01*
X82276500Y-90137000D01*
G75*
G02*
X82039000Y-89899500I0J237500D01*
G01*
G37*
%TD*%
%TO.C,C6*%
G36*
G01*
X83764000Y-87994500D02*
X83764000Y-87519500D01*
G75*
G02*
X84001500Y-87282000I237500J0D01*
G01*
X84601500Y-87282000D01*
G75*
G02*
X84839000Y-87519500I0J-237500D01*
G01*
X84839000Y-87994500D01*
G75*
G02*
X84601500Y-88232000I-237500J0D01*
G01*
X84001500Y-88232000D01*
G75*
G02*
X83764000Y-87994500I0J237500D01*
G01*
G37*
G36*
G01*
X82039000Y-87994500D02*
X82039000Y-87519500D01*
G75*
G02*
X82276500Y-87282000I237500J0D01*
G01*
X82876500Y-87282000D01*
G75*
G02*
X83114000Y-87519500I0J-237500D01*
G01*
X83114000Y-87994500D01*
G75*
G02*
X82876500Y-88232000I-237500J0D01*
G01*
X82276500Y-88232000D01*
G75*
G02*
X82039000Y-87994500I0J237500D01*
G01*
G37*
%TD*%
%TO.C,C5*%
G36*
G01*
X60026500Y-75708500D02*
X60026500Y-76183500D01*
G75*
G02*
X59789000Y-76421000I-237500J0D01*
G01*
X59189000Y-76421000D01*
G75*
G02*
X58951500Y-76183500I0J237500D01*
G01*
X58951500Y-75708500D01*
G75*
G02*
X59189000Y-75471000I237500J0D01*
G01*
X59789000Y-75471000D01*
G75*
G02*
X60026500Y-75708500I0J-237500D01*
G01*
G37*
G36*
G01*
X61751500Y-75708500D02*
X61751500Y-76183500D01*
G75*
G02*
X61514000Y-76421000I-237500J0D01*
G01*
X60914000Y-76421000D01*
G75*
G02*
X60676500Y-76183500I0J237500D01*
G01*
X60676500Y-75708500D01*
G75*
G02*
X60914000Y-75471000I237500J0D01*
G01*
X61514000Y-75471000D01*
G75*
G02*
X61751500Y-75708500I0J-237500D01*
G01*
G37*
%TD*%
%TO.C,C4*%
G36*
G01*
X60026500Y-81169500D02*
X60026500Y-81644500D01*
G75*
G02*
X59789000Y-81882000I-237500J0D01*
G01*
X59189000Y-81882000D01*
G75*
G02*
X58951500Y-81644500I0J237500D01*
G01*
X58951500Y-81169500D01*
G75*
G02*
X59189000Y-80932000I237500J0D01*
G01*
X59789000Y-80932000D01*
G75*
G02*
X60026500Y-81169500I0J-237500D01*
G01*
G37*
G36*
G01*
X61751500Y-81169500D02*
X61751500Y-81644500D01*
G75*
G02*
X61514000Y-81882000I-237500J0D01*
G01*
X60914000Y-81882000D01*
G75*
G02*
X60676500Y-81644500I0J237500D01*
G01*
X60676500Y-81169500D01*
G75*
G02*
X60914000Y-80932000I237500J0D01*
G01*
X61514000Y-80932000D01*
G75*
G02*
X61751500Y-81169500I0J-237500D01*
G01*
G37*
%TD*%
%TO.C,C3*%
G36*
G01*
X60026500Y-79137500D02*
X60026500Y-79612500D01*
G75*
G02*
X59789000Y-79850000I-237500J0D01*
G01*
X59189000Y-79850000D01*
G75*
G02*
X58951500Y-79612500I0J237500D01*
G01*
X58951500Y-79137500D01*
G75*
G02*
X59189000Y-78900000I237500J0D01*
G01*
X59789000Y-78900000D01*
G75*
G02*
X60026500Y-79137500I0J-237500D01*
G01*
G37*
G36*
G01*
X61751500Y-79137500D02*
X61751500Y-79612500D01*
G75*
G02*
X61514000Y-79850000I-237500J0D01*
G01*
X60914000Y-79850000D01*
G75*
G02*
X60676500Y-79612500I0J237500D01*
G01*
X60676500Y-79137500D01*
G75*
G02*
X60914000Y-78900000I237500J0D01*
G01*
X61514000Y-78900000D01*
G75*
G02*
X61751500Y-79137500I0J-237500D01*
G01*
G37*
%TD*%
%TO.C,C2*%
G36*
G01*
X60026500Y-77232500D02*
X60026500Y-77707500D01*
G75*
G02*
X59789000Y-77945000I-237500J0D01*
G01*
X59189000Y-77945000D01*
G75*
G02*
X58951500Y-77707500I0J237500D01*
G01*
X58951500Y-77232500D01*
G75*
G02*
X59189000Y-76995000I237500J0D01*
G01*
X59789000Y-76995000D01*
G75*
G02*
X60026500Y-77232500I0J-237500D01*
G01*
G37*
G36*
G01*
X61751500Y-77232500D02*
X61751500Y-77707500D01*
G75*
G02*
X61514000Y-77945000I-237500J0D01*
G01*
X60914000Y-77945000D01*
G75*
G02*
X60676500Y-77707500I0J237500D01*
G01*
X60676500Y-77232500D01*
G75*
G02*
X60914000Y-76995000I237500J0D01*
G01*
X61514000Y-76995000D01*
G75*
G02*
X61751500Y-77232500I0J-237500D01*
G01*
G37*
%TD*%
%TO.C,C1*%
G36*
G01*
X150984000Y-56181000D02*
X150984000Y-55706000D01*
G75*
G02*
X151221500Y-55468500I237500J0D01*
G01*
X151821500Y-55468500D01*
G75*
G02*
X152059000Y-55706000I0J-237500D01*
G01*
X152059000Y-56181000D01*
G75*
G02*
X151821500Y-56418500I-237500J0D01*
G01*
X151221500Y-56418500D01*
G75*
G02*
X150984000Y-56181000I0J237500D01*
G01*
G37*
G36*
G01*
X149259000Y-56181000D02*
X149259000Y-55706000D01*
G75*
G02*
X149496500Y-55468500I237500J0D01*
G01*
X150096500Y-55468500D01*
G75*
G02*
X150334000Y-55706000I0J-237500D01*
G01*
X150334000Y-56181000D01*
G75*
G02*
X150096500Y-56418500I-237500J0D01*
G01*
X149496500Y-56418500D01*
G75*
G02*
X149259000Y-56181000I0J237500D01*
G01*
G37*
%TD*%
M02*
