%TF.GenerationSoftware,KiCad,Pcbnew,(6.0.10)*%
%TF.CreationDate,2022-12-28T15:45:52-06:00*%
%TF.ProjectId,Hardware_Rev1,48617264-7761-4726-955f-526576312e6b,rev?*%
%TF.SameCoordinates,Original*%
%TF.FileFunction,Soldermask,Top*%
%TF.FilePolarity,Negative*%
%FSLAX46Y46*%
G04 Gerber Fmt 4.6, Leading zero omitted, Abs format (unit mm)*
G04 Created by KiCad (PCBNEW (6.0.10)) date 2022-12-28 15:45:52*
%MOMM*%
%LPD*%
G01*
G04 APERTURE LIST*
G04 Aperture macros list*
%AMRoundRect*
0 Rectangle with rounded corners*
0 $1 Rounding radius*
0 $2 $3 $4 $5 $6 $7 $8 $9 X,Y pos of 4 corners*
0 Add a 4 corners polygon primitive as box body*
4,1,4,$2,$3,$4,$5,$6,$7,$8,$9,$2,$3,0*
0 Add four circle primitives for the rounded corners*
1,1,$1+$1,$2,$3*
1,1,$1+$1,$4,$5*
1,1,$1+$1,$6,$7*
1,1,$1+$1,$8,$9*
0 Add four rect primitives between the rounded corners*
20,1,$1+$1,$2,$3,$4,$5,0*
20,1,$1+$1,$4,$5,$6,$7,0*
20,1,$1+$1,$6,$7,$8,$9,0*
20,1,$1+$1,$8,$9,$2,$3,0*%
G04 Aperture macros list end*
%ADD10C,1.524000*%
%ADD11RoundRect,0.237500X-0.237500X0.250000X-0.237500X-0.250000X0.237500X-0.250000X0.237500X0.250000X0*%
%ADD12C,1.100000*%
%ADD13C,1.400000*%
%ADD14C,4.000000*%
%ADD15C,2.000000*%
%ADD16RoundRect,0.150000X0.150000X-0.587500X0.150000X0.587500X-0.150000X0.587500X-0.150000X-0.587500X0*%
%ADD17RoundRect,0.237500X-0.237500X0.287500X-0.237500X-0.287500X0.237500X-0.287500X0.237500X0.287500X0*%
%ADD18RoundRect,0.237500X0.237500X-0.250000X0.237500X0.250000X-0.237500X0.250000X-0.237500X-0.250000X0*%
%ADD19RoundRect,0.237500X0.287500X0.237500X-0.287500X0.237500X-0.287500X-0.237500X0.287500X-0.237500X0*%
%ADD20RoundRect,0.150000X-0.150000X0.587500X-0.150000X-0.587500X0.150000X-0.587500X0.150000X0.587500X0*%
%ADD21RoundRect,0.237500X0.250000X0.237500X-0.250000X0.237500X-0.250000X-0.237500X0.250000X-0.237500X0*%
%ADD22RoundRect,0.237500X0.300000X0.237500X-0.300000X0.237500X-0.300000X-0.237500X0.300000X-0.237500X0*%
%ADD23R,1.350000X1.350000*%
%ADD24O,1.350000X1.350000*%
%ADD25O,3.000000X5.100000*%
%ADD26RoundRect,0.237500X-0.250000X-0.237500X0.250000X-0.237500X0.250000X0.237500X-0.250000X0.237500X0*%
%ADD27C,1.308000*%
%ADD28C,1.258000*%
%ADD29C,1.208000*%
%ADD30C,2.946400*%
%ADD31RoundRect,0.237500X-0.287500X-0.237500X0.287500X-0.237500X0.287500X0.237500X-0.287500X0.237500X0*%
%ADD32RoundRect,0.237500X-0.300000X-0.237500X0.300000X-0.237500X0.300000X0.237500X-0.300000X0.237500X0*%
G04 APERTURE END LIST*
D10*
X171196000Y-134620000D03*
X173736000Y-134620000D03*
X176276000Y-134620000D03*
X92837000Y-90019500D03*
X95377000Y-90019500D03*
D11*
X172339000Y-86971500D03*
X172339000Y-88796500D03*
D10*
X103251000Y-90019500D03*
X105791000Y-90019500D03*
D12*
X73452000Y-111760000D03*
X75992000Y-113030000D03*
X73452000Y-114300000D03*
X75992000Y-115570000D03*
X73452000Y-116840000D03*
X75992000Y-118110000D03*
X73452000Y-119380000D03*
X75992000Y-120650000D03*
D13*
X62022000Y-109880000D03*
X63812000Y-112420000D03*
X62022000Y-119990000D03*
X63812000Y-122530000D03*
D14*
X67102000Y-110490000D03*
X67102000Y-121920000D03*
D15*
X70152000Y-124080000D03*
X70152000Y-108330000D03*
D10*
X124079000Y-90019500D03*
X126619000Y-90019500D03*
D11*
X99441000Y-86971500D03*
X99441000Y-88796500D03*
D16*
X142941000Y-83995500D03*
X144841000Y-83995500D03*
X143891000Y-82120500D03*
D11*
X57785000Y-82145500D03*
X57785000Y-83970500D03*
D17*
X63500000Y-77992000D03*
X63500000Y-79742000D03*
D11*
X84201000Y-82169000D03*
X84201000Y-83994000D03*
D18*
X107950000Y-83970500D03*
X107950000Y-82145500D03*
D10*
X92837000Y-96877500D03*
X95377000Y-96877500D03*
D19*
X190613000Y-119380000D03*
X188863000Y-119380000D03*
D18*
X55880000Y-83970500D03*
X55880000Y-82145500D03*
D19*
X190613000Y-127889000D03*
X188863000Y-127889000D03*
D20*
X141158000Y-77929500D03*
X139258000Y-77929500D03*
X140208000Y-79804500D03*
X172400000Y-77929500D03*
X170500000Y-77929500D03*
X171450000Y-79804500D03*
D18*
X76708000Y-83970500D03*
X76708000Y-82145500D03*
D11*
X73914000Y-82145500D03*
X73914000Y-83970500D03*
D21*
X186864000Y-119380000D03*
X185039000Y-119380000D03*
D22*
X184885500Y-77597000D03*
X183160500Y-77597000D03*
D20*
X130744000Y-77929500D03*
X128844000Y-77929500D03*
X129794000Y-79804500D03*
D11*
X78613000Y-86948000D03*
X78613000Y-88773000D03*
D23*
X79137000Y-110395000D03*
D24*
X81137000Y-110395000D03*
X79137000Y-112395000D03*
X81137000Y-112395000D03*
X79137000Y-114395000D03*
X81137000Y-114395000D03*
D10*
X113665000Y-96877500D03*
X116205000Y-96877500D03*
D11*
X68199000Y-82145500D03*
X68199000Y-83970500D03*
D17*
X84201000Y-77879000D03*
X84201000Y-79629000D03*
D10*
X176149000Y-96875600D03*
X178689000Y-96875600D03*
D17*
X73914000Y-77879000D03*
X73914000Y-79629000D03*
D19*
X190613000Y-105410000D03*
X188863000Y-105410000D03*
D10*
X117856000Y-134620000D03*
X120396000Y-134620000D03*
X122936000Y-134620000D03*
X61595000Y-96877500D03*
X64135000Y-96877500D03*
D18*
X87122000Y-83970500D03*
X87122000Y-82145500D03*
D19*
X190613000Y-130683000D03*
X188863000Y-130683000D03*
X190613000Y-116586000D03*
X188863000Y-116586000D03*
X191756000Y-70866000D03*
X190006000Y-70866000D03*
X190613000Y-122174000D03*
X188863000Y-122174000D03*
D10*
X53848000Y-134620000D03*
X56388000Y-134620000D03*
X58928000Y-134620000D03*
D11*
X172339000Y-82145500D03*
X172339000Y-83970500D03*
D16*
X90871000Y-83995500D03*
X92771000Y-83995500D03*
X91821000Y-82120500D03*
D11*
X141097000Y-86971500D03*
X141097000Y-88796500D03*
D19*
X190599000Y-108204000D03*
X188849000Y-108204000D03*
X190613000Y-102616000D03*
X188863000Y-102616000D03*
D18*
X97536000Y-83970500D03*
X97536000Y-82145500D03*
X139192000Y-83947000D03*
X139192000Y-82122000D03*
D25*
X66935400Y-60875000D03*
X66935400Y-68749000D03*
D18*
X128778000Y-83970500D03*
X128778000Y-82145500D03*
D21*
X186864000Y-133477000D03*
X185039000Y-133477000D03*
D17*
X105029000Y-77738000D03*
X105029000Y-79488000D03*
D16*
X111699000Y-83995500D03*
X113599000Y-83995500D03*
X112649000Y-82120500D03*
D18*
X118491000Y-83970500D03*
X118491000Y-82145500D03*
D10*
X72009000Y-90019500D03*
X74549000Y-90019500D03*
X72009000Y-96877500D03*
X74549000Y-96877500D03*
D11*
X141097000Y-82122000D03*
X141097000Y-83947000D03*
D17*
X157099000Y-77738000D03*
X157099000Y-79488000D03*
D21*
X186840500Y-110998000D03*
X185015500Y-110998000D03*
D11*
X89027000Y-86948000D03*
X89027000Y-88773000D03*
X151511000Y-82145500D03*
X151511000Y-83970500D03*
X120396000Y-82145500D03*
X120396000Y-83970500D03*
D10*
X165735000Y-96875600D03*
X168275000Y-96875600D03*
D11*
X136271000Y-82145500D03*
X136271000Y-83970500D03*
D21*
X186840500Y-102616000D03*
X185015500Y-102616000D03*
D26*
X185250750Y-70866000D03*
X187075750Y-70866000D03*
D20*
X89088000Y-77929500D03*
X87188000Y-77929500D03*
X88138000Y-79804500D03*
D10*
X75184000Y-134620000D03*
X77724000Y-134620000D03*
X80264000Y-134620000D03*
D11*
X115443000Y-82122000D03*
X115443000Y-83947000D03*
D16*
X101285000Y-83995500D03*
X103185000Y-83995500D03*
X102235000Y-82120500D03*
D10*
X85852000Y-134620000D03*
X88392000Y-134620000D03*
X90932000Y-134620000D03*
X155321000Y-96875600D03*
X157861000Y-96875600D03*
D11*
X146685000Y-82145500D03*
X146685000Y-83970500D03*
X78613000Y-82122000D03*
X78613000Y-83947000D03*
X63500000Y-82122000D03*
X63500000Y-83947000D03*
D27*
X143510000Y-108839000D03*
X140970000Y-108839000D03*
X138430000Y-108839000D03*
X135890000Y-108839000D03*
X110490000Y-108839000D03*
X140970000Y-124079000D03*
X100330000Y-113919000D03*
X133350000Y-108839000D03*
X130810000Y-108839000D03*
D28*
X139700000Y-111889000D03*
D27*
X128270000Y-108839000D03*
X125730000Y-108839000D03*
X123190000Y-108839000D03*
X120650000Y-108839000D03*
X118110000Y-108839000D03*
X115570000Y-108839000D03*
X113030000Y-108839000D03*
X113030000Y-124079000D03*
X115570000Y-124079000D03*
X118110000Y-124079000D03*
X120650000Y-124079000D03*
X123190000Y-124079000D03*
X125730000Y-124079000D03*
X128270000Y-124079000D03*
X130810000Y-124079000D03*
X133350000Y-124079000D03*
X135890000Y-124079000D03*
X138430000Y-124079000D03*
X107950000Y-108839000D03*
X105410000Y-108839000D03*
X102870000Y-108839000D03*
X100330000Y-108839000D03*
X97790000Y-108839000D03*
X95250000Y-108839000D03*
X92710000Y-108839000D03*
X90170000Y-108839000D03*
X87630000Y-108839000D03*
X87630000Y-124079000D03*
X90170000Y-124079000D03*
X92710000Y-124079000D03*
X95250000Y-124079000D03*
X97790000Y-124079000D03*
X100330000Y-124079000D03*
X102870000Y-124079000D03*
X105410000Y-124079000D03*
X107950000Y-124079000D03*
D28*
X134620000Y-111889000D03*
X137160000Y-111889000D03*
D27*
X146050000Y-108839000D03*
X110490000Y-124079000D03*
X143510000Y-124079000D03*
X100330000Y-116459000D03*
D29*
X131080000Y-119629000D03*
X133080000Y-119629000D03*
D27*
X100330000Y-121539000D03*
X100330000Y-118999000D03*
D29*
X133080000Y-121629000D03*
X131080000Y-121629000D03*
X131080000Y-117629000D03*
X133080000Y-117629000D03*
D28*
X132080000Y-111889000D03*
X129540000Y-111889000D03*
D27*
X100330000Y-111379000D03*
X146050000Y-124079000D03*
X143510000Y-121539000D03*
D17*
X177927000Y-77611000D03*
X177927000Y-79361000D03*
D11*
X99441000Y-82145500D03*
X99441000Y-83970500D03*
D10*
X165735000Y-90017600D03*
X168275000Y-90017600D03*
D21*
X186840500Y-127889000D03*
X185015500Y-127889000D03*
D26*
X189968500Y-75438000D03*
X191793500Y-75438000D03*
D22*
X80999500Y-122301000D03*
X79274500Y-122301000D03*
D10*
X144907000Y-90019500D03*
X147447000Y-90019500D03*
D16*
X174183000Y-83995500D03*
X176083000Y-83995500D03*
X175133000Y-82120500D03*
D10*
X61595000Y-90019500D03*
X64135000Y-90019500D03*
D19*
X190613000Y-124968000D03*
X188863000Y-124968000D03*
D18*
X66294000Y-83970500D03*
X66294000Y-82145500D03*
D17*
X146685000Y-77738000D03*
X146685000Y-79488000D03*
D10*
X144907000Y-96877500D03*
X147447000Y-96877500D03*
X128524000Y-134620000D03*
X131064000Y-134620000D03*
X133604000Y-134620000D03*
X64516000Y-134620000D03*
X67056000Y-134620000D03*
X69596000Y-134620000D03*
D16*
X163769000Y-83995500D03*
X165669000Y-83995500D03*
X164719000Y-82120500D03*
D11*
X109855000Y-86971500D03*
X109855000Y-88796500D03*
D10*
X107188000Y-134620000D03*
X109728000Y-134620000D03*
X112268000Y-134620000D03*
D30*
X52914420Y-143935580D03*
D11*
X167513000Y-82145500D03*
X167513000Y-83970500D03*
X130683000Y-82145500D03*
X130683000Y-83970500D03*
D16*
X70170000Y-83972000D03*
X72070000Y-83972000D03*
X71120000Y-82097000D03*
D20*
X68260000Y-78183500D03*
X66360000Y-78183500D03*
X67310000Y-80058500D03*
D11*
X94615000Y-82145500D03*
X94615000Y-83970500D03*
D21*
X186840500Y-108204000D03*
X185015500Y-108204000D03*
D19*
X190613000Y-113792000D03*
X188863000Y-113792000D03*
D16*
X80457000Y-83995500D03*
X82357000Y-83995500D03*
X81407000Y-82120500D03*
D10*
X134493000Y-96877500D03*
X137033000Y-96877500D03*
D16*
X59695000Y-83947000D03*
X61595000Y-83947000D03*
X60645000Y-82072000D03*
D11*
X68199000Y-86971500D03*
X68199000Y-88796500D03*
D16*
X153355000Y-83995500D03*
X155255000Y-83995500D03*
X154305000Y-82120500D03*
D11*
X161925000Y-82145500D03*
X161925000Y-83970500D03*
X157099000Y-82145500D03*
X157099000Y-83970500D03*
D10*
X82423000Y-90019500D03*
X84963000Y-90019500D03*
D11*
X109855000Y-82145500D03*
X109855000Y-83970500D03*
D20*
X109662000Y-77929500D03*
X107762000Y-77929500D03*
X108712000Y-79804500D03*
X78674000Y-78056500D03*
X76774000Y-78056500D03*
X77724000Y-79931500D03*
D21*
X186864000Y-124968000D03*
X185039000Y-124968000D03*
D11*
X130683000Y-86971500D03*
X130683000Y-88796500D03*
D20*
X151572000Y-77929500D03*
X149672000Y-77929500D03*
X150622000Y-79804500D03*
D11*
X57785000Y-86971500D03*
X57785000Y-88796500D03*
D31*
X190020000Y-73533000D03*
X191770000Y-73533000D03*
D18*
X160020000Y-83970500D03*
X160020000Y-82145500D03*
D10*
X96520000Y-134620000D03*
X99060000Y-134620000D03*
X101600000Y-134620000D03*
X134493000Y-90019500D03*
X137033000Y-90019500D03*
X184912000Y-80264000D03*
X187452000Y-80264000D03*
X189992000Y-80264000D03*
D20*
X57846000Y-78183500D03*
X55946000Y-78183500D03*
X56896000Y-80058500D03*
D18*
X149606000Y-83970500D03*
X149606000Y-82145500D03*
D20*
X99502000Y-77929500D03*
X97602000Y-77929500D03*
X98552000Y-79804500D03*
D17*
X125984000Y-77738000D03*
X125984000Y-79488000D03*
D10*
X149860000Y-134620000D03*
X152400000Y-134620000D03*
X154940000Y-134620000D03*
X160528000Y-134620000D03*
X163068000Y-134620000D03*
X165608000Y-134620000D03*
D20*
X161986000Y-77929500D03*
X160086000Y-77929500D03*
X161036000Y-79804500D03*
D11*
X161925000Y-86971500D03*
X161925000Y-88796500D03*
D16*
X132527000Y-83995500D03*
X134427000Y-83995500D03*
X133477000Y-82120500D03*
D19*
X190627000Y-110998000D03*
X188877000Y-110998000D03*
D16*
X122240000Y-83995500D03*
X124140000Y-83995500D03*
X123190000Y-82120500D03*
D19*
X190627000Y-133477000D03*
X188877000Y-133477000D03*
D17*
X115443000Y-77738000D03*
X115443000Y-79488000D03*
D18*
X170434000Y-83970500D03*
X170434000Y-82145500D03*
D21*
X186840500Y-113792000D03*
X185015500Y-113792000D03*
D10*
X82423000Y-96877500D03*
X84963000Y-96877500D03*
D11*
X125984000Y-82122000D03*
X125984000Y-83947000D03*
D21*
X186840500Y-105410000D03*
X185015500Y-105410000D03*
D30*
X52903120Y-51644420D03*
D10*
X124079000Y-96877500D03*
X126619000Y-96877500D03*
D17*
X167513000Y-77738000D03*
X167513000Y-79488000D03*
D10*
X113665000Y-90019500D03*
X116205000Y-90019500D03*
X176149000Y-90017600D03*
X178689000Y-90017600D03*
D21*
X186864000Y-122174000D03*
X185039000Y-122174000D03*
X186840500Y-116586000D03*
X185015500Y-116586000D03*
X186840500Y-130683000D03*
X185015500Y-130683000D03*
D11*
X177927000Y-82145500D03*
X177927000Y-83970500D03*
D32*
X190018500Y-77597000D03*
X191743500Y-77597000D03*
D10*
X155321000Y-90017600D03*
X157861000Y-90017600D03*
D30*
X192206880Y-143946880D03*
D11*
X89027000Y-82122000D03*
X89027000Y-83947000D03*
D20*
X120457000Y-77929500D03*
X118557000Y-77929500D03*
X119507000Y-79804500D03*
D17*
X136271000Y-77738000D03*
X136271000Y-79488000D03*
D30*
X192195580Y-51644420D03*
D10*
X103251000Y-96877500D03*
X105791000Y-96877500D03*
D11*
X120396000Y-86971500D03*
X120396000Y-88796500D03*
X151511000Y-86971500D03*
X151511000Y-88796500D03*
X105029000Y-82145500D03*
X105029000Y-83970500D03*
D10*
X139192000Y-134620000D03*
X141732000Y-134620000D03*
X144272000Y-134620000D03*
D17*
X94615000Y-77738000D03*
X94615000Y-79488000D03*
M02*
