M48
; DRILL file {KiCad (6.0.10)} date Sun May  7 18:06:35 2023
; FORMAT={-:-/ absolute / metric / decimal}
; #@! TF.CreationDate,2023-05-07T18:06:35-05:00
; #@! TF.GenerationSoftware,Kicad,Pcbnew,(6.0.10)
; #@! TF.FileFunction,Plated,1,2,PTH
FMAT,2
METRIC
; #@! TA.AperFunction,Plated,PTH,ViaDrill
T1C0.400
; #@! TA.AperFunction,Plated,PTH,ComponentDrill
T2C0.700
; #@! TA.AperFunction,Plated,PTH,ComponentDrill
T3C0.800
; #@! TA.AperFunction,Plated,PTH,ComponentDrill
T4C0.889
; #@! TA.AperFunction,Plated,PTH,ComponentDrill
T5C0.900
; #@! TA.AperFunction,Plated,PTH,ComponentDrill
T6C1.020
; #@! TA.AperFunction,Plated,PTH,ComponentDrill
T7C1.600
; #@! TA.AperFunction,Plated,PTH,ComponentDrill
T8C2.000
; #@! TA.AperFunction,Plated,PTH,ComponentDrill
T9C3.250
%
G90
G05
T1
X87.122Y-121.92
X98.806Y-80.01
X100.203Y-73.279
X102.87Y-113.03
X104.521Y-76.073
X108.966Y-80.01
X109.982Y-107.696
X110.363Y-73.279
X114.681Y-76.2
X119.126Y-80.01
X120.523Y-73.279
X124.968Y-76.073
X125.222Y-107.696
X129.159Y-80.01
X130.683Y-73.279
X135.128Y-76.073
X139.319Y-80.01
X140.843Y-73.279
X143.51Y-107.696
X145.288Y-76.073
X149.352Y-80.01
X151.003Y-73.152
X155.448Y-76.073
X155.702Y-107.696
X159.512Y-80.01
X161.163Y-73.279
X165.608Y-76.073
X169.545Y-80.01
X171.323Y-73.152
X175.768Y-76.073
X179.832Y-80.01
X181.483Y-73.406
X185.928Y-76.2
X189.992Y-80.01
X191.643Y-73.279
X196.088Y-76.073
X200.152Y-80.01
X201.803Y-73.279
X206.248Y-76.073
X210.312Y-80.01
X211.963Y-73.279
X216.408Y-76.073
T2
X150.923Y-106.466
X150.923Y-108.466
X150.923Y-110.466
X152.923Y-106.466
X152.923Y-108.466
X152.923Y-110.466
T3
X80.558Y-94.742
X80.573Y-87.63
X80.66Y-78.486
X83.058Y-94.742
X83.073Y-87.63
X83.16Y-78.486
X107.473Y-97.676
X107.473Y-112.916
X110.013Y-97.676
X110.013Y-112.916
X112.553Y-97.676
X112.553Y-112.916
X115.093Y-97.676
X115.093Y-112.916
X117.633Y-97.676
X117.633Y-112.916
X120.173Y-97.676
X120.173Y-112.916
X122.713Y-97.676
X122.713Y-112.916
X125.253Y-97.676
X125.253Y-112.916
X127.793Y-97.676
X127.793Y-112.916
X130.333Y-97.676
X130.333Y-112.916
X132.873Y-97.676
X132.873Y-112.916
X135.413Y-97.676
X135.413Y-112.916
X137.953Y-97.676
X137.953Y-112.916
X140.493Y-97.676
X140.493Y-112.916
X143.033Y-97.676
X143.033Y-112.916
X145.573Y-97.676
X145.573Y-112.916
X148.113Y-97.676
X148.113Y-112.916
X150.653Y-97.676
X150.653Y-112.916
X153.193Y-97.676
X153.193Y-112.916
X155.733Y-97.676
X155.733Y-112.916
X158.273Y-97.676
X158.273Y-112.916
X160.813Y-97.676
X160.813Y-112.916
X163.353Y-97.676
X163.353Y-112.916
X165.893Y-97.676
X165.893Y-112.916
T4
X199.898Y-94.488
X199.898Y-97.028
X199.898Y-99.568
T5
X87.376Y-119.888
X89.916Y-119.888
X92.456Y-119.888
X94.28Y-103.38
X94.28Y-105.92
X94.28Y-108.46
X94.28Y-111.0
X96.82Y-104.65
X96.82Y-107.19
X96.82Y-109.73
X96.82Y-112.27
X98.044Y-119.888
X100.584Y-119.888
X103.124Y-119.888
X108.712Y-119.888
X111.252Y-119.888
X113.792Y-119.888
X119.38Y-119.888
X121.92Y-119.888
X124.46Y-119.888
X130.048Y-119.888
X132.588Y-119.888
X135.128Y-119.888
X140.716Y-119.888
X143.256Y-119.888
X145.796Y-119.888
X151.384Y-119.888
X153.924Y-119.888
X156.464Y-119.888
X162.052Y-119.888
X164.592Y-119.888
X167.132Y-119.888
X172.72Y-119.888
X175.26Y-119.888
X177.8Y-119.888
X183.388Y-119.888
X185.928Y-119.888
X188.468Y-119.888
X194.056Y-119.888
X196.596Y-119.888
X199.136Y-119.888
X204.724Y-119.888
X207.264Y-119.888
X209.804Y-119.888
T6
X82.85Y-101.5
X82.85Y-111.61
X84.64Y-104.04
X84.64Y-114.15
T7
X90.98Y-99.95
X90.98Y-115.7
T9
X87.93Y-102.11
X87.93Y-113.54
T8
G00X94.234Y-59.656
M15
G01X94.234Y-61.756
M16
G05
G00X94.234Y-67.53
M15
G01X94.234Y-69.63
M16
G05
G00X104.014Y-61.783
M15
G01X104.014Y-59.683
M16
G05
G00X104.014Y-69.683
M15
G01X104.014Y-67.583
M16
G05
G00X114.174Y-61.783
M15
G01X114.174Y-59.683
M16
G05
G00X114.174Y-69.683
M15
G01X114.174Y-67.583
M16
G05
G00X124.334Y-61.783
M15
G01X124.334Y-59.683
M16
G05
G00X124.334Y-69.683
M15
G01X124.334Y-67.583
M16
G05
G00X134.494Y-61.783
M15
G01X134.494Y-59.683
M16
G05
G00X134.494Y-69.683
M15
G01X134.494Y-67.583
M16
G05
G00X144.654Y-61.783
M15
G01X144.654Y-59.683
M16
G05
G00X144.654Y-69.683
M15
G01X144.654Y-67.583
M16
G05
G00X154.814Y-61.783
M15
G01X154.814Y-59.683
M16
G05
G00X154.814Y-69.683
M15
G01X154.814Y-67.583
M16
G05
G00X164.974Y-61.783
M15
G01X164.974Y-59.683
M16
G05
G00X164.974Y-69.683
M15
G01X164.974Y-67.583
M16
G05
G00X175.094Y-61.783
M15
G01X175.094Y-59.683
M16
G05
G00X175.094Y-69.683
M15
G01X175.094Y-67.583
M16
G05
G00X185.294Y-61.783
M15
G01X185.294Y-59.683
M16
G05
G00X185.294Y-69.683
M15
G01X185.294Y-67.583
M16
G05
G00X195.454Y-61.783
M15
G01X195.454Y-59.683
M16
G05
G00X195.454Y-69.683
M15
G01X195.454Y-67.583
M16
G05
G00X205.614Y-61.783
M15
G01X205.614Y-59.683
M16
G05
G00X205.614Y-69.683
M15
G01X205.614Y-67.583
M16
G05
G00X215.774Y-61.783
M15
G01X215.774Y-59.683
M16
G05
G00X215.774Y-69.683
M15
G01X215.774Y-67.583
M16
G05
T0
M30
