%TF.GenerationSoftware,KiCad,Pcbnew,(6.0.10)*%
%TF.CreationDate,2023-04-22T01:27:36-05:00*%
%TF.ProjectId,Hardware_Rev1,48617264-7761-4726-955f-526576312e6b,rev?*%
%TF.SameCoordinates,Original*%
%TF.FileFunction,Soldermask,Bot*%
%TF.FilePolarity,Negative*%
%FSLAX46Y46*%
G04 Gerber Fmt 4.6, Leading zero omitted, Abs format (unit mm)*
G04 Created by KiCad (PCBNEW (6.0.10)) date 2023-04-22 01:27:36*
%MOMM*%
%LPD*%
G01*
G04 APERTURE LIST*
G04 Aperture macros list*
%AMRoundRect*
0 Rectangle with rounded corners*
0 $1 Rounding radius*
0 $2 $3 $4 $5 $6 $7 $8 $9 X,Y pos of 4 corners*
0 Add a 4 corners polygon primitive as box body*
4,1,4,$2,$3,$4,$5,$6,$7,$8,$9,$2,$3,0*
0 Add four circle primitives for the rounded corners*
1,1,$1+$1,$2,$3*
1,1,$1+$1,$4,$5*
1,1,$1+$1,$6,$7*
1,1,$1+$1,$8,$9*
0 Add four rect primitives between the rounded corners*
20,1,$1+$1,$2,$3,$4,$5,0*
20,1,$1+$1,$4,$5,$6,$7,0*
20,1,$1+$1,$6,$7,$8,$9,0*
20,1,$1+$1,$8,$9,$2,$3,0*%
G04 Aperture macros list end*
%ADD10O,3.000000X5.100000*%
%ADD11C,2.946400*%
%ADD12R,1.600000X1.600000*%
%ADD13C,1.600000*%
%ADD14C,1.524000*%
%ADD15C,1.100000*%
%ADD16C,1.400000*%
%ADD17C,4.000000*%
%ADD18C,2.000000*%
%ADD19C,1.308000*%
%ADD20C,1.208000*%
%ADD21RoundRect,0.237500X-0.250000X-0.237500X0.250000X-0.237500X0.250000X0.237500X-0.250000X0.237500X0*%
%ADD22RoundRect,0.150000X-0.587500X-0.150000X0.587500X-0.150000X0.587500X0.150000X-0.587500X0.150000X0*%
G04 APERTURE END LIST*
D10*
X164974000Y-60733000D03*
X164974000Y-68633000D03*
X114174000Y-60733000D03*
X114174000Y-68633000D03*
X134494000Y-60733000D03*
X134494000Y-68633000D03*
D11*
X80208120Y-120451880D03*
D10*
X94234000Y-60706000D03*
X94234000Y-68580000D03*
D12*
X83058000Y-94742000D03*
D13*
X80558000Y-94742000D03*
D14*
X167132000Y-119888000D03*
X164592000Y-119888000D03*
X162052000Y-119888000D03*
X209804000Y-119888000D03*
X207264000Y-119888000D03*
X204724000Y-119888000D03*
X199898000Y-94488000D03*
X199898000Y-97028000D03*
X199898000Y-99568000D03*
X177800000Y-119888000D03*
X175260000Y-119888000D03*
X172720000Y-119888000D03*
D11*
X80208120Y-52268120D03*
D10*
X175094000Y-60733000D03*
X175094000Y-68633000D03*
D11*
X216971880Y-120451880D03*
D14*
X103124000Y-119888000D03*
X100584000Y-119888000D03*
X98044000Y-119888000D03*
D10*
X104014000Y-60733000D03*
X104014000Y-68633000D03*
D12*
X83159677Y-78486000D03*
D13*
X80659677Y-78486000D03*
D10*
X185294000Y-60733000D03*
X185294000Y-68633000D03*
D14*
X135128000Y-119888000D03*
X132588000Y-119888000D03*
X130048000Y-119888000D03*
X92456000Y-119888000D03*
X89916000Y-119888000D03*
X87376000Y-119888000D03*
X188468000Y-119888000D03*
X185928000Y-119888000D03*
X183388000Y-119888000D03*
X145796000Y-119888000D03*
X143256000Y-119888000D03*
X140716000Y-119888000D03*
D10*
X215774000Y-60733000D03*
X215774000Y-68633000D03*
D14*
X156464000Y-119888000D03*
X153924000Y-119888000D03*
X151384000Y-119888000D03*
X124460000Y-119888000D03*
X121920000Y-119888000D03*
X119380000Y-119888000D03*
D15*
X94280000Y-103380000D03*
X96820000Y-104650000D03*
X94280000Y-105920000D03*
X96820000Y-107190000D03*
X94280000Y-108460000D03*
X96820000Y-109730000D03*
X94280000Y-111000000D03*
X96820000Y-112270000D03*
D16*
X82850000Y-101500000D03*
X84640000Y-104040000D03*
X82850000Y-111610000D03*
X84640000Y-114150000D03*
D17*
X87930000Y-102110000D03*
X87930000Y-113540000D03*
D18*
X90980000Y-115700000D03*
X90980000Y-99950000D03*
D10*
X205614000Y-60733000D03*
X205614000Y-68633000D03*
D11*
X216971880Y-52268120D03*
D10*
X144654000Y-60733000D03*
X144654000Y-68633000D03*
D12*
X83072660Y-87630000D03*
D13*
X80572660Y-87630000D03*
D10*
X195454000Y-60733000D03*
X195454000Y-68633000D03*
D14*
X113792000Y-119888000D03*
X111252000Y-119888000D03*
X108712000Y-119888000D03*
X199136000Y-119888000D03*
X196596000Y-119888000D03*
X194056000Y-119888000D03*
D10*
X154814000Y-60733000D03*
X154814000Y-68633000D03*
X124334000Y-60733000D03*
X124334000Y-68633000D03*
D19*
X163353000Y-97676500D03*
X160813000Y-97676500D03*
X158273000Y-97676500D03*
X155733000Y-97676500D03*
X130333000Y-97676500D03*
X160813000Y-112916500D03*
X153193000Y-97676500D03*
X150653000Y-97676500D03*
X148113000Y-97676500D03*
X145573000Y-97676500D03*
X143033000Y-97676500D03*
X140493000Y-97676500D03*
X137953000Y-97676500D03*
X135413000Y-97676500D03*
X132873000Y-97676500D03*
X132873000Y-112916500D03*
X135413000Y-112916500D03*
X137953000Y-112916500D03*
X140493000Y-112916500D03*
X143033000Y-112916500D03*
X145573000Y-112916500D03*
X148113000Y-112916500D03*
X150653000Y-112916500D03*
X153193000Y-112916500D03*
X155733000Y-112916500D03*
X158273000Y-112916500D03*
X127793000Y-97676500D03*
X125253000Y-97676500D03*
X122713000Y-97676500D03*
X120173000Y-97676500D03*
X117633000Y-97676500D03*
X115093000Y-97676500D03*
X112553000Y-97676500D03*
X110013000Y-97676500D03*
X107473000Y-97676500D03*
X107473000Y-112916500D03*
X110013000Y-112916500D03*
X112553000Y-112916500D03*
X115093000Y-112916500D03*
X117633000Y-112916500D03*
X120173000Y-112916500D03*
X122713000Y-112916500D03*
X125253000Y-112916500D03*
X127793000Y-112916500D03*
X165893000Y-97676500D03*
X130333000Y-112916500D03*
X163353000Y-112916500D03*
D20*
X150923000Y-108466500D03*
X152923000Y-108466500D03*
X152923000Y-110466500D03*
X150923000Y-110466500D03*
X150923000Y-106466500D03*
X152923000Y-106466500D03*
D19*
X165893000Y-112916500D03*
D21*
X104497500Y-80010000D03*
X106322500Y-80010000D03*
X110189000Y-80010000D03*
X112014000Y-80010000D03*
X145264500Y-80010000D03*
X147089500Y-80010000D03*
X100029000Y-80010000D03*
X101854000Y-80010000D03*
D22*
X144985500Y-84770000D03*
X144985500Y-82870000D03*
X146860500Y-83820000D03*
D21*
X201652500Y-80010000D03*
X203477500Y-80010000D03*
X150725500Y-80010000D03*
X152550500Y-80010000D03*
X130532500Y-82804000D03*
X132357500Y-82804000D03*
D22*
X175465500Y-84770000D03*
X175465500Y-82870000D03*
X177340500Y-83820000D03*
D21*
X211812500Y-82804000D03*
X213637500Y-82804000D03*
X135128000Y-80010000D03*
X136953000Y-80010000D03*
X130532500Y-80010000D03*
X132357500Y-80010000D03*
X161012500Y-80010000D03*
X162837500Y-80010000D03*
D22*
X104218500Y-84770000D03*
X104218500Y-82870000D03*
X106093500Y-83820000D03*
D21*
X171172500Y-80010000D03*
X172997500Y-80010000D03*
X120499500Y-82804000D03*
X122324500Y-82804000D03*
X191492500Y-80010000D03*
X193317500Y-80010000D03*
X140692500Y-82804000D03*
X142517500Y-82804000D03*
X206224500Y-80010000D03*
X208049500Y-80010000D03*
X181332500Y-80010000D03*
X183157500Y-80010000D03*
D22*
X195785500Y-84770000D03*
X195785500Y-82870000D03*
X197660500Y-83820000D03*
X114378500Y-84770000D03*
X114378500Y-82870000D03*
X116253500Y-83820000D03*
X216105500Y-84770000D03*
X216105500Y-82870000D03*
X217980500Y-83820000D03*
D21*
X100179500Y-82804000D03*
X102004500Y-82804000D03*
D22*
X185625500Y-84770000D03*
X185625500Y-82870000D03*
X187500500Y-83820000D03*
X155145500Y-84770000D03*
X155145500Y-82870000D03*
X157020500Y-83820000D03*
D21*
X114657500Y-80010000D03*
X116482500Y-80010000D03*
X216384500Y-80010000D03*
X218209500Y-80010000D03*
X165608000Y-80010000D03*
X167433000Y-80010000D03*
X120499500Y-80010000D03*
X122324500Y-80010000D03*
X160989000Y-82804000D03*
X162814000Y-82804000D03*
X191469000Y-82804000D03*
X193294000Y-82804000D03*
X211812500Y-80010000D03*
X213637500Y-80010000D03*
X196064500Y-80010000D03*
X197889500Y-80010000D03*
X140692500Y-80010000D03*
X142517500Y-80010000D03*
X181309000Y-82804000D03*
X183134000Y-82804000D03*
X150725500Y-82804000D03*
X152550500Y-82804000D03*
D22*
X134825500Y-84770000D03*
X134825500Y-82870000D03*
X136700500Y-83820000D03*
D21*
X171172500Y-82804000D03*
X172997500Y-82804000D03*
X155448000Y-80010000D03*
X157273000Y-80010000D03*
X175744500Y-80010000D03*
X177569500Y-80010000D03*
D22*
X165305500Y-84770000D03*
X165305500Y-82870000D03*
X167180500Y-83820000D03*
D21*
X201652500Y-82804000D03*
X203477500Y-82804000D03*
X110189000Y-82804000D03*
X112014000Y-82804000D03*
D22*
X124665500Y-84770000D03*
X124665500Y-82870000D03*
X126540500Y-83820000D03*
X205945500Y-84770000D03*
X205945500Y-82870000D03*
X207820500Y-83820000D03*
D21*
X124944500Y-80010000D03*
X126769500Y-80010000D03*
X185904500Y-80010000D03*
X187729500Y-80010000D03*
M02*
