%TF.GenerationSoftware,KiCad,Pcbnew,(6.0.10)*%
%TF.CreationDate,2023-05-07T18:06:42-05:00*%
%TF.ProjectId,Hardware_Rev1,48617264-7761-4726-955f-526576312e6b,rev?*%
%TF.SameCoordinates,Original*%
%TF.FileFunction,Paste,Top*%
%TF.FilePolarity,Positive*%
%FSLAX46Y46*%
G04 Gerber Fmt 4.6, Leading zero omitted, Abs format (unit mm)*
G04 Created by KiCad (PCBNEW (6.0.10)) date 2023-05-07 18:06:42*
%MOMM*%
%LPD*%
G01*
G04 APERTURE LIST*
G04 Aperture macros list*
%AMRoundRect*
0 Rectangle with rounded corners*
0 $1 Rounding radius*
0 $2 $3 $4 $5 $6 $7 $8 $9 X,Y pos of 4 corners*
0 Add a 4 corners polygon primitive as box body*
4,1,4,$2,$3,$4,$5,$6,$7,$8,$9,$2,$3,0*
0 Add four circle primitives for the rounded corners*
1,1,$1+$1,$2,$3*
1,1,$1+$1,$4,$5*
1,1,$1+$1,$6,$7*
1,1,$1+$1,$8,$9*
0 Add four rect primitives between the rounded corners*
20,1,$1+$1,$2,$3,$4,$5,0*
20,1,$1+$1,$4,$5,$6,$7,0*
20,1,$1+$1,$6,$7,$8,$9,0*
20,1,$1+$1,$8,$9,$2,$3,0*%
G04 Aperture macros list end*
%ADD10RoundRect,0.237500X0.237500X-0.250000X0.237500X0.250000X-0.237500X0.250000X-0.237500X-0.250000X0*%
%ADD11RoundRect,0.237500X0.237500X-0.287500X0.237500X0.287500X-0.237500X0.287500X-0.237500X-0.287500X0*%
%ADD12RoundRect,0.150000X-0.512500X-0.150000X0.512500X-0.150000X0.512500X0.150000X-0.512500X0.150000X0*%
%ADD13RoundRect,0.237500X-0.287500X-0.237500X0.287500X-0.237500X0.287500X0.237500X-0.287500X0.237500X0*%
%ADD14RoundRect,0.237500X0.250000X0.237500X-0.250000X0.237500X-0.250000X-0.237500X0.250000X-0.237500X0*%
%ADD15O,3.000000X5.100000*%
%ADD16RoundRect,0.237500X-0.237500X0.300000X-0.237500X-0.300000X0.237500X-0.300000X0.237500X0.300000X0*%
%ADD17RoundRect,0.237500X0.287500X0.237500X-0.287500X0.237500X-0.287500X-0.237500X0.287500X-0.237500X0*%
%ADD18RoundRect,0.237500X-0.250000X-0.237500X0.250000X-0.237500X0.250000X0.237500X-0.250000X0.237500X0*%
G04 APERTURE END LIST*
D10*
X206248000Y-109370500D03*
X206248000Y-107545500D03*
D11*
X206248000Y-113143000D03*
X206248000Y-111393000D03*
D12*
X100208500Y-74663500D03*
X100208500Y-76563500D03*
X102483500Y-75613500D03*
D10*
X182880000Y-109370500D03*
X182880000Y-107545500D03*
D11*
X194564000Y-113143000D03*
X194564000Y-111393000D03*
D12*
X130688500Y-74676000D03*
X130688500Y-76576000D03*
X132963500Y-75626000D03*
D13*
X135142000Y-77597000D03*
X136892000Y-77597000D03*
D14*
X167409500Y-74676000D03*
X165584500Y-74676000D03*
D11*
X203327000Y-113143000D03*
X203327000Y-111393000D03*
D13*
X155462000Y-77597000D03*
X157212000Y-77597000D03*
X175782000Y-77597000D03*
X177532000Y-77597000D03*
D11*
X197485000Y-113129000D03*
X197485000Y-111379000D03*
X188722000Y-113143000D03*
X188722000Y-111393000D03*
D15*
X94234000Y-60706000D03*
X94234000Y-68580000D03*
D12*
X171328500Y-74676000D03*
X171328500Y-76576000D03*
X173603500Y-75626000D03*
D16*
X100965000Y-100483500D03*
X100965000Y-102208500D03*
D13*
X196102000Y-77597000D03*
X197852000Y-77597000D03*
D14*
X106322500Y-74676000D03*
X104497500Y-74676000D03*
D13*
X124996000Y-77597000D03*
X126746000Y-77597000D03*
D12*
X161168500Y-74676000D03*
X161168500Y-76576000D03*
X163443500Y-75626000D03*
D14*
X126769500Y-74676000D03*
X124944500Y-74676000D03*
D10*
X188722000Y-109370500D03*
X188722000Y-107545500D03*
D14*
X187729500Y-74803000D03*
X185904500Y-74803000D03*
D17*
X212457000Y-100076000D03*
X210707000Y-100076000D03*
D14*
X218209500Y-74676000D03*
X216384500Y-74676000D03*
X208049500Y-74676000D03*
X206224500Y-74676000D03*
D17*
X212457000Y-97028000D03*
X210707000Y-97028000D03*
D10*
X179959000Y-109347000D03*
X179959000Y-107522000D03*
D14*
X116482500Y-74676000D03*
X114657500Y-74676000D03*
D10*
X194564000Y-109370500D03*
X194564000Y-107545500D03*
D14*
X177546000Y-74676000D03*
X175721000Y-74676000D03*
D13*
X185942000Y-77597000D03*
X187692000Y-77597000D03*
X114695000Y-77724000D03*
X116445000Y-77724000D03*
D12*
X110368500Y-74676000D03*
X110368500Y-76576000D03*
X112643500Y-75626000D03*
D10*
X203327000Y-109370500D03*
X203327000Y-107545500D03*
X197485000Y-109370500D03*
X197485000Y-107545500D03*
D11*
X209169000Y-113143000D03*
X209169000Y-111393000D03*
X179959000Y-113143000D03*
X179959000Y-111393000D03*
X185801000Y-113157000D03*
X185801000Y-111407000D03*
D12*
X211968500Y-74676000D03*
X211968500Y-76576000D03*
X214243500Y-75626000D03*
X120528500Y-74676000D03*
X120528500Y-76576000D03*
X122803500Y-75626000D03*
D10*
X200406000Y-109394000D03*
X200406000Y-107569000D03*
D11*
X182880000Y-113157000D03*
X182880000Y-111407000D03*
D18*
X206859500Y-100076000D03*
X208684500Y-100076000D03*
D11*
X212090000Y-113143000D03*
X212090000Y-111393000D03*
D18*
X206859500Y-97028000D03*
X208684500Y-97028000D03*
D11*
X191643000Y-113143000D03*
X191643000Y-111393000D03*
D12*
X140848500Y-74676000D03*
X140848500Y-76576000D03*
X143123500Y-75626000D03*
D13*
X145302000Y-77597000D03*
X147052000Y-77597000D03*
D12*
X181488500Y-74803000D03*
X181488500Y-76703000D03*
X183763500Y-75753000D03*
D14*
X157226000Y-74676000D03*
X155401000Y-74676000D03*
D12*
X191648500Y-74676000D03*
X191648500Y-76576000D03*
X193923500Y-75626000D03*
D16*
X202438000Y-94895500D03*
X202438000Y-96620500D03*
D10*
X185801000Y-109370500D03*
X185801000Y-107545500D03*
D14*
X197866000Y-74676000D03*
X196041000Y-74676000D03*
D10*
X212090000Y-109370500D03*
X212090000Y-107545500D03*
X209169000Y-109370500D03*
X209169000Y-107545500D03*
D13*
X104535000Y-77724000D03*
X106285000Y-77724000D03*
D12*
X151008500Y-74676000D03*
X151008500Y-76576000D03*
X153283500Y-75626000D03*
D13*
X206262000Y-77597000D03*
X208012000Y-77597000D03*
D10*
X191643000Y-109370500D03*
X191643000Y-107545500D03*
D11*
X200406000Y-113143000D03*
X200406000Y-111393000D03*
D16*
X202438000Y-99568000D03*
X202438000Y-101293000D03*
D14*
X147066000Y-74676000D03*
X145241000Y-74676000D03*
X136929500Y-74676000D03*
X135104500Y-74676000D03*
D13*
X216422000Y-77597000D03*
X218172000Y-77597000D03*
D12*
X201808500Y-74676000D03*
X201808500Y-76576000D03*
X204083500Y-75626000D03*
D13*
X165622000Y-77597000D03*
X167372000Y-77597000D03*
M02*
